<ttFont>
    <TTGlyph name="A" xMin="15" yMin="0" xMax="637" yMax="649">
      <contour>
        <pt x="637" y="0" on="1"/>
        <pt x="536" y="0" on="1"/>
        <pt x="462" y="197" on="1"/>
        <pt x="184" y="197" on="1"/>
        <pt x="111" y="0" on="1"/>
        <pt x="15" y="0" on="1"/>
        <pt x="273" y="649" on="1"/>
        <pt x="385" y="649" on="1"/>
      </contour>
      <contour>
        <pt x="438" y="264" on="1"/>
        <pt x="328" y="557" on="1"/>
        <pt x="319" y="557" on="1"/>
        <pt x="209" y="264" on="1"/>
      </contour>
    </TTGlyph>
    <TTGlyph name="AE" xMin="0" yMin="0" xMax="873" yMax="649">
      <contour>
        <pt x="873" y="0" on="1"/>
        <pt x="457" y="0" on="1"/>
        <pt x="457" y="197" on="1"/>
        <pt x="211" y="197" on="1"/>
        <pt x="109" y="0" on="1"/>
        <pt x="0" y="0" on="1"/>
        <pt x="358" y="649" on="1"/>
        <pt x="863" y="649" on="1"/>
        <pt x="863" y="581" on="1"/>
        <pt x="554" y="581" on="1"/>
        <pt x="554" y="369" on="1"/>
        <pt x="830" y="369" on="1"/>
        <pt x="830" y="301" on="1"/>
        <pt x="554" y="301" on="1"/>
        <pt x="554" y="68" on="1"/>
        <pt x="873" y="68" on="1"/>
      </contour>
      <contour>
        <pt x="457" y="264" on="1"/>
        <pt x="457" y="581" on="1"/>
        <pt x="409" y="581" on="1"/>
        <pt x="245" y="264" on="1"/>
      </contour>
    </TTGlyph>
    <TTGlyph name="Aacute" xMin="15" yMin="0" xMax="637" yMax="830">
      <contour>
        <pt x="637" y="0" on="1"/>
        <pt x="536" y="0" on="1"/>
        <pt x="462" y="197" on="1"/>
        <pt x="184" y="197" on="1"/>
        <pt x="111" y="0" on="1"/>
        <pt x="15" y="0" on="1"/>
        <pt x="273" y="649" on="1"/>
        <pt x="385" y="649" on="1"/>
      </contour>
      <contour>
        <pt x="438" y="264" on="1"/>
        <pt x="328" y="557" on="1"/>
        <pt x="319" y="557" on="1"/>
        <pt x="209" y="264" on="1"/>
      </contour>
      <contour>
        <pt x="469" y="830" on="1"/>
        <pt x="344" y="703" on="1"/>
        <pt x="270" y="703" on="1"/>
        <pt x="360" y="830" on="1"/>
      </contour>
    </TTGlyph>
    <TTGlyph name="Abreve" xMin="15" yMin="0" xMax="637" yMax="830">
      <contour>
        <pt x="637" y="0" on="1"/>
        <pt x="536" y="0" on="1"/>
        <pt x="462" y="197" on="1"/>
        <pt x="184" y="197" on="1"/>
        <pt x="111" y="0" on="1"/>
        <pt x="15" y="0" on="1"/>
        <pt x="273" y="649" on="1"/>
        <pt x="385" y="649" on="1"/>
      </contour>
      <contour>
        <pt x="438" y="264" on="1"/>
        <pt x="328" y="557" on="1"/>
        <pt x="319" y="557" on="1"/>
        <pt x="209" y="264" on="1"/>
      </contour>
      <contour>
        <pt x="441" y="830" on="1"/>
        <pt x="437" y="772" on="0"/>
        <pt x="376" y="703" on="0"/>
        <pt x="323" y="703" on="1"/>
        <pt x="269" y="703" on="0"/>
        <pt x="208" y="772" on="0"/>
        <pt x="205" y="830" on="1"/>
        <pt x="241" y="830" on="1"/>
        <pt x="254" y="793" on="0"/>
        <pt x="289" y="762" on="0"/>
        <pt x="323" y="762" on="1"/>
        <pt x="356" y="762" on="0"/>
        <pt x="393" y="794" on="0"/>
        <pt x="404" y="830" on="1"/>
      </contour>
    </TTGlyph>
    <TTGlyph name="Acircumflex" xMin="15" yMin="0" xMax="637" yMax="830">
      <contour>
        <pt x="637" y="0" on="1"/>
        <pt x="536" y="0" on="1"/>
        <pt x="462" y="197" on="1"/>
        <pt x="184" y="197" on="1"/>
        <pt x="111" y="0" on="1"/>
        <pt x="15" y="0" on="1"/>
        <pt x="273" y="649" on="1"/>
        <pt x="385" y="649" on="1"/>
      </contour>
      <contour>
        <pt x="438" y="264" on="1"/>
        <pt x="328" y="557" on="1"/>
        <pt x="319" y="557" on="1"/>
        <pt x="209" y="264" on="1"/>
      </contour>
      <contour>
        <pt x="210" y="703" on="1"/>
        <pt x="278" y="830" on="1"/>
        <pt x="385" y="830" on="1"/>
        <pt x="451" y="703" on="1"/>
        <pt x="393" y="703" on="1"/>
        <pt x="331" y="790" on="1"/>
        <pt x="268" y="703" on="1"/>
      </contour>
    </TTGlyph>
    <TTGlyph name="Adieresis" xMin="15" yMin="0" xMax="637" yMax="809">
      <contour>
        <pt x="637" y="0" on="1"/>
        <pt x="536" y="0" on="1"/>
        <pt x="462" y="197" on="1"/>
        <pt x="184" y="197" on="1"/>
        <pt x="111" y="0" on="1"/>
        <pt x="15" y="0" on="1"/>
        <pt x="273" y="649" on="1"/>
        <pt x="385" y="649" on="1"/>
      </contour>
      <contour>
        <pt x="438" y="264" on="1"/>
        <pt x="328" y="557" on="1"/>
        <pt x="319" y="557" on="1"/>
        <pt x="209" y="264" on="1"/>
      </contour>
      <contour>
        <pt x="280" y="715" on="1"/>
        <pt x="190" y="715" on="1"/>
        <pt x="190" y="809" on="1"/>
        <pt x="280" y="809" on="1"/>
      </contour>
      <contour>
        <pt x="450" y="715" on="1"/>
        <pt x="360" y="715" on="1"/>
        <pt x="360" y="809" on="1"/>
        <pt x="450" y="809" on="1"/>
      </contour>
    </TTGlyph>
    <TTGlyph name="Agrave" xMin="15" yMin="0" xMax="637" yMax="820">
      <contour>
        <pt x="637" y="0" on="1"/>
        <pt x="536" y="0" on="1"/>
        <pt x="462" y="197" on="1"/>
        <pt x="184" y="197" on="1"/>
        <pt x="111" y="0" on="1"/>
        <pt x="15" y="0" on="1"/>
        <pt x="273" y="649" on="1"/>
        <pt x="385" y="649" on="1"/>
      </contour>
      <contour>
        <pt x="438" y="264" on="1"/>
        <pt x="328" y="557" on="1"/>
        <pt x="319" y="557" on="1"/>
        <pt x="209" y="264" on="1"/>
      </contour>
      <contour>
        <pt x="359" y="693" on="1"/>
        <pt x="285" y="693" on="1"/>
        <pt x="160" y="820" on="1"/>
        <pt x="269" y="820" on="1"/>
      </contour>
    </TTGlyph>
    <TTGlyph name="Alpha" xMin="15" yMin="0" xMax="637" yMax="649">
      <contour>
        <pt x="637" y="0" on="1"/>
        <pt x="536" y="0" on="1"/>
        <pt x="462" y="197" on="1"/>
        <pt x="184" y="197" on="1"/>
        <pt x="111" y="0" on="1"/>
        <pt x="15" y="0" on="1"/>
        <pt x="273" y="649" on="1"/>
        <pt x="385" y="649" on="1"/>
      </contour>
      <contour>
        <pt x="438" y="264" on="1"/>
        <pt x="328" y="557" on="1"/>
        <pt x="319" y="557" on="1"/>
        <pt x="209" y="264" on="1"/>
      </contour>
    </TTGlyph>
    <TTGlyph name="Alphatonos" xMin="15" yMin="0" xMax="637" yMax="649">
      <contour>
        <pt x="637" y="0" on="1"/>
        <pt x="536" y="0" on="1"/>
        <pt x="462" y="197" on="1"/>
        <pt x="184" y="197" on="1"/>
        <pt x="111" y="0" on="1"/>
        <pt x="15" y="0" on="1"/>
        <pt x="273" y="649" on="1"/>
        <pt x="385" y="649" on="1"/>
      </contour>
      <contour>
        <pt x="438" y="264" on="1"/>
        <pt x="328" y="557" on="1"/>
        <pt x="319" y="557" on="1"/>
        <pt x="209" y="264" on="1"/>
      </contour>
      <contour>
        <pt x="125" y="479" on="1"/>
        <pt x="75" y="479" on="1"/>
        <pt x="46" y="649" on="1"/>
        <pt x="154" y="649" on="1"/>
      </contour>
    </TTGlyph>
    <TTGlyph name="Amacron" xMin="15" yMin="0" xMax="637" yMax="798">
      <contour>
        <pt x="637" y="0" on="1"/>
        <pt x="536" y="0" on="1"/>
        <pt x="462" y="197" on="1"/>
        <pt x="184" y="197" on="1"/>
        <pt x="111" y="0" on="1"/>
        <pt x="15" y="0" on="1"/>
        <pt x="273" y="649" on="1"/>
        <pt x="385" y="649" on="1"/>
      </contour>
      <contour>
        <pt x="438" y="264" on="1"/>
        <pt x="328" y="557" on="1"/>
        <pt x="319" y="557" on="1"/>
        <pt x="209" y="264" on="1"/>
      </contour>
      <contour>
        <pt x="433" y="739" on="1"/>
        <pt x="215" y="739" on="1"/>
        <pt x="215" y="798" on="1"/>
        <pt x="433" y="798" on="1"/>
      </contour>
    </TTGlyph>
    <TTGlyph name="Aogonek" xMin="15" yMin="-186" xMax="664" yMax="649">
      <contour>
        <pt x="614" y="-186" on="1"/>
        <pt x="564" y="-186" on="0"/>
        <pt x="515" y="-149" on="0"/>
        <pt x="515" y="-106" on="1"/>
        <pt x="515" y="-65" on="0"/>
        <pt x="536" y="0" on="1"/>
        <pt x="462" y="197" on="1"/>
        <pt x="184" y="197" on="1"/>
        <pt x="111" y="0" on="1"/>
        <pt x="15" y="0" on="1"/>
        <pt x="273" y="649" on="1"/>
        <pt x="385" y="649" on="1"/>
        <pt x="637" y="0" on="1"/>
        <pt x="594" y="-52" on="0"/>
        <pt x="594" y="-97" on="1"/>
        <pt x="594" y="-130" on="0"/>
        <pt x="633" y="-130" on="1"/>
        <pt x="641" y="-130" on="0"/>
        <pt x="664" y="-123" on="1"/>
        <pt x="664" y="-176" on="1"/>
        <pt x="643" y="-186" on="0"/>
      </contour>
      <contour>
        <pt x="438" y="264" on="1"/>
        <pt x="328" y="557" on="1"/>
        <pt x="319" y="557" on="1"/>
        <pt x="209" y="264" on="1"/>
      </contour>
    </TTGlyph>
    <TTGlyph name="Aring" xMin="15" yMin="0" xMax="637" yMax="762">
      <contour>
        <pt x="637" y="0" on="1"/>
        <pt x="536" y="0" on="1"/>
        <pt x="462" y="198" on="1"/>
        <pt x="185" y="198" on="1"/>
        <pt x="111" y="0" on="1"/>
        <pt x="15" y="0" on="1"/>
        <pt x="242" y="560" on="1"/>
        <pt x="185" y="577" on="0"/>
        <pt x="185" y="646" on="1"/>
        <pt x="185" y="659" on="1"/>
        <pt x="185" y="688" on="0"/>
        <pt x="200" y="727" on="0"/>
        <pt x="222" y="749" on="0"/>
        <pt x="263" y="760" on="0"/>
        <pt x="297" y="762" on="0"/>
        <pt x="355" y="762" on="0"/>
        <pt x="389" y="760" on="0"/>
        <pt x="430" y="749" on="0"/>
        <pt x="452" y="727" on="0"/>
        <pt x="467" y="688" on="0"/>
        <pt x="467" y="659" on="1"/>
        <pt x="467" y="646" on="1"/>
        <pt x="467" y="582" on="0"/>
        <pt x="415" y="561" on="1"/>
      </contour>
      <contour>
        <pt x="400" y="643" on="1"/>
        <pt x="400" y="657" on="1"/>
        <pt x="400" y="691" on="0"/>
        <pt x="367" y="709" on="0"/>
        <pt x="285" y="709" on="0"/>
        <pt x="252" y="691" on="0"/>
        <pt x="252" y="657" on="1"/>
        <pt x="252" y="643" on="1"/>
        <pt x="252" y="612" on="0"/>
        <pt x="286" y="596" on="0"/>
        <pt x="326" y="596" on="1"/>
        <pt x="353" y="596" on="0"/>
        <pt x="380" y="600" on="0"/>
        <pt x="400" y="621" on="0"/>
      </contour>
      <contour>
        <pt x="438" y="264" on="1"/>
        <pt x="332" y="545" on="1"/>
        <pt x="315" y="545" on="1"/>
        <pt x="209" y="264" on="1"/>
      </contour>
    </TTGlyph>
    <TTGlyph name="Atilde" xMin="15" yMin="0" xMax="637" yMax="802">
      <contour>
        <pt x="637" y="0" on="1"/>
        <pt x="536" y="0" on="1"/>
        <pt x="462" y="197" on="1"/>
        <pt x="184" y="197" on="1"/>
        <pt x="111" y="0" on="1"/>
        <pt x="15" y="0" on="1"/>
        <pt x="273" y="649" on="1"/>
        <pt x="385" y="649" on="1"/>
      </contour>
      <contour>
        <pt x="438" y="264" on="1"/>
        <pt x="328" y="557" on="1"/>
        <pt x="319" y="557" on="1"/>
        <pt x="209" y="264" on="1"/>
      </contour>
      <contour>
        <pt x="255" y="793" on="1"/>
        <pt x="279" y="793" on="0"/>
        <pt x="361" y="759" on="0"/>
        <pt x="380" y="759" on="1"/>
        <pt x="402" y="759" on="0"/>
        <pt x="430" y="780" on="0"/>
        <pt x="445" y="802" on="1"/>
        <pt x="445" y="733" on="1"/>
        <pt x="422" y="694" on="0"/>
        <pt x="380" y="694" on="1"/>
        <pt x="354" y="694" on="0"/>
        <pt x="274" y="730" on="0"/>
        <pt x="255" y="730" on="1"/>
        <pt x="215" y="730" on="0"/>
        <pt x="190" y="691" on="1"/>
        <pt x="190" y="764" on="1"/>
        <pt x="214" y="793" on="0"/>
      </contour>
    </TTGlyph>
    <TTGlyph name="B" xMin="84" yMin="0" xMax="553" yMax="649">
      <contour>
        <pt x="553" y="238" on="1"/>
        <pt x="553" y="129" on="1"/>
        <pt x="553" y="58" on="0"/>
        <pt x="445" y="0" on="0"/>
        <pt x="323" y="0" on="1"/>
        <pt x="84" y="0" on="1"/>
        <pt x="84" y="649" on="1"/>
        <pt x="316" y="649" on="1"/>
        <pt x="400" y="649" on="0"/>
        <pt x="495" y="615" on="0"/>
        <pt x="524" y="565" on="0"/>
        <pt x="524" y="526" on="1"/>
        <pt x="524" y="439" on="1"/>
        <pt x="524" y="399" on="0"/>
        <pt x="479" y="357" on="0"/>
        <pt x="435" y="347" on="1"/>
        <pt x="435" y="343" on="1"/>
        <pt x="487" y="334" on="0"/>
        <pt x="553" y="280" on="0"/>
      </contour>
      <contour>
        <pt x="433" y="442" on="1"/>
        <pt x="433" y="518" on="1"/>
        <pt x="433" y="555" on="0"/>
        <pt x="379" y="585" on="0"/>
        <pt x="316" y="585" on="1"/>
        <pt x="181" y="585" on="1"/>
        <pt x="181" y="365" on="1"/>
        <pt x="319" y="365" on="1"/>
        <pt x="381" y="365" on="0"/>
        <pt x="433" y="402" on="0"/>
      </contour>
      <contour>
        <pt x="456" y="133" on="1"/>
        <pt x="456" y="231" on="1"/>
        <pt x="456" y="257" on="0"/>
        <pt x="435" y="288" on="0"/>
        <pt x="390" y="301" on="0"/>
        <pt x="355" y="304" on="0"/>
        <pt x="323" y="304" on="1"/>
        <pt x="181" y="304" on="1"/>
        <pt x="181" y="67" on="1"/>
        <pt x="323" y="67" on="1"/>
        <pt x="396" y="67" on="0"/>
        <pt x="456" y="97" on="0"/>
      </contour>
    </TTGlyph>
    <TTGlyph name="Beta" xMin="84" yMin="0" xMax="553" yMax="649">
      <contour>
        <pt x="553" y="238" on="1"/>
        <pt x="553" y="129" on="1"/>
        <pt x="553" y="58" on="0"/>
        <pt x="445" y="0" on="0"/>
        <pt x="323" y="0" on="1"/>
        <pt x="84" y="0" on="1"/>
        <pt x="84" y="649" on="1"/>
        <pt x="316" y="649" on="1"/>
        <pt x="400" y="649" on="0"/>
        <pt x="495" y="615" on="0"/>
        <pt x="524" y="565" on="0"/>
        <pt x="524" y="526" on="1"/>
        <pt x="524" y="439" on="1"/>
        <pt x="524" y="399" on="0"/>
        <pt x="479" y="357" on="0"/>
        <pt x="435" y="347" on="1"/>
        <pt x="435" y="343" on="1"/>
        <pt x="487" y="334" on="0"/>
        <pt x="553" y="280" on="0"/>
      </contour>
      <contour>
        <pt x="433" y="442" on="1"/>
        <pt x="433" y="518" on="1"/>
        <pt x="433" y="555" on="0"/>
        <pt x="379" y="585" on="0"/>
        <pt x="316" y="585" on="1"/>
        <pt x="181" y="585" on="1"/>
        <pt x="181" y="365" on="1"/>
        <pt x="319" y="365" on="1"/>
        <pt x="381" y="365" on="0"/>
        <pt x="433" y="402" on="0"/>
      </contour>
      <contour>
        <pt x="456" y="133" on="1"/>
        <pt x="456" y="231" on="1"/>
        <pt x="456" y="257" on="0"/>
        <pt x="435" y="288" on="0"/>
        <pt x="390" y="301" on="0"/>
        <pt x="355" y="304" on="0"/>
        <pt x="323" y="304" on="1"/>
        <pt x="181" y="304" on="1"/>
        <pt x="181" y="67" on="1"/>
        <pt x="323" y="67" on="1"/>
        <pt x="396" y="67" on="0"/>
        <pt x="456" y="97" on="0"/>
      </contour>
    </TTGlyph>
    <TTGlyph name="C" xMin="64" yMin="-10" xMax="519" yMax="660">
      <contour>
        <pt x="519" y="9" on="1"/>
        <pt x="432" y="-10" on="0"/>
        <pt x="337" y="-10" on="1"/>
        <pt x="64" y="-10" on="0"/>
        <pt x="64" y="166" on="1"/>
        <pt x="64" y="474" on="1"/>
        <pt x="64" y="660" on="0"/>
        <pt x="337" y="660" on="1"/>
        <pt x="428" y="660" on="0"/>
        <pt x="515" y="641" on="1"/>
        <pt x="515" y="569" on="1"/>
        <pt x="419" y="593" on="0"/>
        <pt x="339" y="593" on="1"/>
        <pt x="301" y="593" on="0"/>
        <pt x="243" y="584" on="0"/>
        <pt x="187" y="561" on="0"/>
        <pt x="157" y="512" on="0"/>
        <pt x="157" y="475" on="1"/>
        <pt x="157" y="171" on="1"/>
        <pt x="157" y="59" on="0"/>
        <pt x="343" y="59" on="1"/>
        <pt x="423" y="59" on="0"/>
        <pt x="519" y="83" on="1"/>
      </contour>
    </TTGlyph>
    <TTGlyph name="Cacute" xMin="64" yMin="-10" xMax="519" yMax="830">
      <contour>
        <pt x="519" y="9" on="1"/>
        <pt x="432" y="-10" on="0"/>
        <pt x="337" y="-10" on="1"/>
        <pt x="64" y="-10" on="0"/>
        <pt x="64" y="166" on="1"/>
        <pt x="64" y="474" on="1"/>
        <pt x="64" y="660" on="0"/>
        <pt x="337" y="660" on="1"/>
        <pt x="428" y="660" on="0"/>
        <pt x="515" y="641" on="1"/>
        <pt x="515" y="569" on="1"/>
        <pt x="419" y="593" on="0"/>
        <pt x="339" y="593" on="1"/>
        <pt x="301" y="593" on="0"/>
        <pt x="243" y="584" on="0"/>
        <pt x="187" y="561" on="0"/>
        <pt x="157" y="512" on="0"/>
        <pt x="157" y="475" on="1"/>
        <pt x="157" y="171" on="1"/>
        <pt x="157" y="59" on="0"/>
        <pt x="343" y="59" on="1"/>
        <pt x="423" y="59" on="0"/>
        <pt x="519" y="83" on="1"/>
      </contour>
      <contour>
        <pt x="464" y="830" on="1"/>
        <pt x="339" y="703" on="1"/>
        <pt x="265" y="703" on="1"/>
        <pt x="355" y="830" on="1"/>
      </contour>
    </TTGlyph>
    <TTGlyph name="Ccaron" xMin="64" yMin="-10" xMax="519" yMax="830">
      <contour>
        <pt x="519" y="9" on="1"/>
        <pt x="432" y="-10" on="0"/>
        <pt x="337" y="-10" on="1"/>
        <pt x="64" y="-10" on="0"/>
        <pt x="64" y="166" on="1"/>
        <pt x="64" y="474" on="1"/>
        <pt x="64" y="660" on="0"/>
        <pt x="337" y="660" on="1"/>
        <pt x="428" y="660" on="0"/>
        <pt x="515" y="641" on="1"/>
        <pt x="515" y="569" on="1"/>
        <pt x="419" y="593" on="0"/>
        <pt x="339" y="593" on="1"/>
        <pt x="301" y="593" on="0"/>
        <pt x="243" y="584" on="0"/>
        <pt x="187" y="561" on="0"/>
        <pt x="157" y="512" on="0"/>
        <pt x="157" y="475" on="1"/>
        <pt x="157" y="171" on="1"/>
        <pt x="157" y="59" on="0"/>
        <pt x="343" y="59" on="1"/>
        <pt x="423" y="59" on="0"/>
        <pt x="519" y="83" on="1"/>
      </contour>
      <contour>
        <pt x="251" y="703" on="1"/>
        <pt x="183" y="830" on="1"/>
        <pt x="241" y="830" on="1"/>
        <pt x="304" y="743" on="1"/>
        <pt x="366" y="830" on="1"/>
        <pt x="424" y="830" on="1"/>
        <pt x="358" y="703" on="1"/>
      </contour>
    </TTGlyph>
    <TTGlyph name="Ccedilla" xMin="64" yMin="-220" xMax="519" yMax="660">
      <contour>
        <pt x="519" y="9" on="1"/>
        <pt x="441" y="-8" on="0"/>
        <pt x="359" y="-10" on="1"/>
        <pt x="338" y="-52" on="1"/>
        <pt x="375" y="-53" on="0"/>
        <pt x="431" y="-92" on="0"/>
        <pt x="431" y="-130" on="1"/>
        <pt x="431" y="-174" on="0"/>
        <pt x="363" y="-220" on="0"/>
        <pt x="318" y="-220" on="1"/>
        <pt x="269" y="-220" on="0"/>
        <pt x="237" y="-201" on="1"/>
        <pt x="258" y="-156" on="1"/>
        <pt x="288" y="-173" on="0"/>
        <pt x="316" y="-173" on="1"/>
        <pt x="363" y="-173" on="0"/>
        <pt x="363" y="-133" on="1"/>
        <pt x="363" y="-114" on="0"/>
        <pt x="319" y="-92" on="0"/>
        <pt x="285" y="-92" on="1"/>
        <pt x="252" y="-92" on="1"/>
        <pt x="274" y="-54" on="0"/>
        <pt x="297" y="-9" on="1"/>
        <pt x="64" y="4" on="0"/>
        <pt x="64" y="166" on="1"/>
        <pt x="64" y="474" on="1"/>
        <pt x="64" y="660" on="0"/>
        <pt x="337" y="660" on="1"/>
        <pt x="428" y="660" on="0"/>
        <pt x="515" y="641" on="1"/>
        <pt x="515" y="569" on="1"/>
        <pt x="419" y="593" on="0"/>
        <pt x="339" y="593" on="1"/>
        <pt x="301" y="593" on="0"/>
        <pt x="243" y="584" on="0"/>
        <pt x="187" y="561" on="0"/>
        <pt x="157" y="512" on="0"/>
        <pt x="157" y="475" on="1"/>
        <pt x="157" y="171" on="1"/>
        <pt x="157" y="59" on="0"/>
        <pt x="343" y="59" on="1"/>
        <pt x="423" y="59" on="0"/>
        <pt x="519" y="83" on="1"/>
      </contour>
    </TTGlyph>
    <TTGlyph name="Ccircumflex" xMin="64" yMin="-10" xMax="519" yMax="830">
      <contour>
        <pt x="519" y="9" on="1"/>
        <pt x="432" y="-10" on="0"/>
        <pt x="337" y="-10" on="1"/>
        <pt x="64" y="-10" on="0"/>
        <pt x="64" y="166" on="1"/>
        <pt x="64" y="474" on="1"/>
        <pt x="64" y="660" on="0"/>
        <pt x="337" y="660" on="1"/>
        <pt x="428" y="660" on="0"/>
        <pt x="515" y="641" on="1"/>
        <pt x="515" y="569" on="1"/>
        <pt x="419" y="593" on="0"/>
        <pt x="339" y="593" on="1"/>
        <pt x="301" y="593" on="0"/>
        <pt x="243" y="584" on="0"/>
        <pt x="187" y="561" on="0"/>
        <pt x="157" y="512" on="0"/>
        <pt x="157" y="475" on="1"/>
        <pt x="157" y="171" on="1"/>
        <pt x="157" y="59" on="0"/>
        <pt x="343" y="59" on="1"/>
        <pt x="423" y="59" on="0"/>
        <pt x="519" y="83" on="1"/>
      </contour>
      <contour>
        <pt x="211" y="703" on="1"/>
        <pt x="279" y="830" on="1"/>
        <pt x="386" y="830" on="1"/>
        <pt x="452" y="703" on="1"/>
        <pt x="394" y="703" on="1"/>
        <pt x="332" y="790" on="1"/>
        <pt x="269" y="703" on="1"/>
      </contour>
    </TTGlyph>
    <TTGlyph name="Cdotaccent" xMin="64" yMin="-10" xMax="519" yMax="830">
      <contour>
        <pt x="519" y="9" on="1"/>
        <pt x="432" y="-10" on="0"/>
        <pt x="337" y="-10" on="1"/>
        <pt x="64" y="-10" on="0"/>
        <pt x="64" y="166" on="1"/>
        <pt x="64" y="474" on="1"/>
        <pt x="64" y="660" on="0"/>
        <pt x="337" y="660" on="1"/>
        <pt x="428" y="660" on="0"/>
        <pt x="515" y="641" on="1"/>
        <pt x="515" y="569" on="1"/>
        <pt x="419" y="593" on="0"/>
        <pt x="339" y="593" on="1"/>
        <pt x="301" y="593" on="0"/>
        <pt x="243" y="584" on="0"/>
        <pt x="187" y="561" on="0"/>
        <pt x="157" y="512" on="0"/>
        <pt x="157" y="475" on="1"/>
        <pt x="157" y="171" on="1"/>
        <pt x="157" y="59" on="0"/>
        <pt x="343" y="59" on="1"/>
        <pt x="423" y="59" on="0"/>
        <pt x="519" y="83" on="1"/>
      </contour>
      <contour>
        <pt x="380" y="732" on="1"/>
        <pt x="290" y="732" on="1"/>
        <pt x="290" y="830" on="1"/>
        <pt x="380" y="830" on="1"/>
      </contour>
    </TTGlyph>
    <TTGlyph name="Chi" xMin="8" yMin="0" xMax="596" yMax="649">
      <contour>
        <pt x="596" y="0" on="1"/>
        <pt x="485" y="0" on="1"/>
        <pt x="302" y="264" on="1"/>
        <pt x="119" y="0" on="1"/>
        <pt x="8" y="0" on="1"/>
        <pt x="247" y="331" on="1"/>
        <pt x="18" y="649" on="1"/>
        <pt x="129" y="649" on="1"/>
        <pt x="302" y="398" on="1"/>
        <pt x="475" y="649" on="1"/>
        <pt x="586" y="649" on="1"/>
        <pt x="357" y="331" on="1"/>
      </contour>
    </TTGlyph>
    <TTGlyph name="D" xMin="84" yMin="0" xMax="615" yMax="649">
      <contour>
        <pt x="615" y="463" on="1"/>
        <pt x="615" y="176" on="1"/>
        <pt x="615" y="0" on="0"/>
        <pt x="343" y="0" on="1"/>
        <pt x="84" y="0" on="1"/>
        <pt x="84" y="649" on="1"/>
        <pt x="342" y="649" on="1"/>
        <pt x="615" y="649" on="0"/>
      </contour>
      <contour>
        <pt x="522" y="178" on="1"/>
        <pt x="522" y="464" on="1"/>
        <pt x="522" y="501" on="0"/>
        <pt x="492" y="550" on="0"/>
        <pt x="437" y="573" on="0"/>
        <pt x="379" y="582" on="0"/>
        <pt x="341" y="582" on="1"/>
        <pt x="181" y="582" on="1"/>
        <pt x="181" y="66" on="1"/>
        <pt x="336" y="66" on="1"/>
        <pt x="522" y="66" on="0"/>
      </contour>
    </TTGlyph>
    <TTGlyph name="Dcaron" xMin="84" yMin="0" xMax="615" yMax="845">
      <contour>
        <pt x="615" y="463" on="1"/>
        <pt x="615" y="176" on="1"/>
        <pt x="615" y="0" on="0"/>
        <pt x="343" y="0" on="1"/>
        <pt x="84" y="0" on="1"/>
        <pt x="84" y="649" on="1"/>
        <pt x="342" y="649" on="1"/>
        <pt x="615" y="649" on="0"/>
      </contour>
      <contour>
        <pt x="522" y="178" on="1"/>
        <pt x="522" y="464" on="1"/>
        <pt x="522" y="501" on="0"/>
        <pt x="492" y="550" on="0"/>
        <pt x="437" y="573" on="0"/>
        <pt x="379" y="582" on="0"/>
        <pt x="341" y="582" on="1"/>
        <pt x="181" y="582" on="1"/>
        <pt x="181" y="66" on="1"/>
        <pt x="336" y="66" on="1"/>
        <pt x="522" y="66" on="0"/>
      </contour>
      <contour>
        <pt x="287" y="718" on="1"/>
        <pt x="219" y="845" on="1"/>
        <pt x="277" y="845" on="1"/>
        <pt x="340" y="758" on="1"/>
        <pt x="402" y="845" on="1"/>
        <pt x="460" y="845" on="1"/>
        <pt x="394" y="718" on="1"/>
      </contour>
    </TTGlyph>
    <TTGlyph name="Dcroat" xMin="20" yMin="0" xMax="615" yMax="649">
      <contour>
        <pt x="84" y="301" on="1"/>
        <pt x="20" y="301" on="1"/>
        <pt x="20" y="369" on="1"/>
        <pt x="84" y="369" on="1"/>
        <pt x="84" y="649" on="1"/>
        <pt x="342" y="649" on="1"/>
        <pt x="615" y="649" on="0"/>
        <pt x="615" y="463" on="1"/>
        <pt x="615" y="176" on="1"/>
        <pt x="615" y="0" on="0"/>
        <pt x="343" y="0" on="1"/>
        <pt x="84" y="0" on="1"/>
      </contour>
      <contour>
        <pt x="287" y="301" on="1"/>
        <pt x="181" y="301" on="1"/>
        <pt x="181" y="66" on="1"/>
        <pt x="336" y="66" on="1"/>
        <pt x="522" y="66" on="0"/>
        <pt x="522" y="178" on="1"/>
        <pt x="522" y="464" on="1"/>
        <pt x="522" y="501" on="0"/>
        <pt x="492" y="550" on="0"/>
        <pt x="437" y="573" on="0"/>
        <pt x="379" y="582" on="0"/>
        <pt x="341" y="582" on="1"/>
        <pt x="181" y="582" on="1"/>
        <pt x="181" y="369" on="1"/>
        <pt x="287" y="369" on="1"/>
      </contour>
    </TTGlyph>
    <TTGlyph name="Delta" xMin="15" yMin="0" xMax="637" yMax="649">
      <contour>
        <pt x="637" y="0" on="1"/>
        <pt x="15" y="0" on="1"/>
        <pt x="273" y="649" on="1"/>
        <pt x="385" y="649" on="1"/>
      </contour>
      <contour>
        <pt x="319" y="557" on="1"/>
        <pt x="136" y="68" on="1"/>
        <pt x="510" y="68" on="1"/>
        <pt x="328" y="557" on="1"/>
      </contour>
    </TTGlyph>
    <TTGlyph name="E" xMin="84" yMin="0" xMax="530" yMax="649">
      <contour>
        <pt x="530" y="0" on="1"/>
        <pt x="84" y="0" on="1"/>
        <pt x="84" y="649" on="1"/>
        <pt x="520" y="649" on="1"/>
        <pt x="520" y="581" on="1"/>
        <pt x="181" y="581" on="1"/>
        <pt x="181" y="369" on="1"/>
        <pt x="487" y="369" on="1"/>
        <pt x="487" y="301" on="1"/>
        <pt x="181" y="301" on="1"/>
        <pt x="181" y="68" on="1"/>
        <pt x="530" y="68" on="1"/>
      </contour>
    </TTGlyph>
    <TTGlyph name="Eacute" xMin="84" yMin="0" xMax="530" yMax="830">
      <contour>
        <pt x="530" y="0" on="1"/>
        <pt x="84" y="0" on="1"/>
        <pt x="84" y="649" on="1"/>
        <pt x="520" y="649" on="1"/>
        <pt x="520" y="581" on="1"/>
        <pt x="181" y="581" on="1"/>
        <pt x="181" y="369" on="1"/>
        <pt x="487" y="369" on="1"/>
        <pt x="487" y="301" on="1"/>
        <pt x="181" y="301" on="1"/>
        <pt x="181" y="68" on="1"/>
        <pt x="530" y="68" on="1"/>
      </contour>
      <contour>
        <pt x="419" y="830" on="1"/>
        <pt x="294" y="703" on="1"/>
        <pt x="220" y="703" on="1"/>
        <pt x="310" y="830" on="1"/>
      </contour>
    </TTGlyph>
    <TTGlyph name="Ebreve" xMin="84" yMin="0" xMax="530" yMax="830">
      <contour>
        <pt x="530" y="0" on="1"/>
        <pt x="84" y="0" on="1"/>
        <pt x="84" y="649" on="1"/>
        <pt x="520" y="649" on="1"/>
        <pt x="520" y="581" on="1"/>
        <pt x="181" y="581" on="1"/>
        <pt x="181" y="369" on="1"/>
        <pt x="487" y="369" on="1"/>
        <pt x="487" y="301" on="1"/>
        <pt x="181" y="301" on="1"/>
        <pt x="181" y="68" on="1"/>
        <pt x="530" y="68" on="1"/>
      </contour>
      <contour>
        <pt x="423" y="830" on="1"/>
        <pt x="419" y="772" on="0"/>
        <pt x="358" y="703" on="0"/>
        <pt x="305" y="703" on="1"/>
        <pt x="251" y="703" on="0"/>
        <pt x="190" y="772" on="0"/>
        <pt x="187" y="830" on="1"/>
        <pt x="223" y="830" on="1"/>
        <pt x="236" y="793" on="0"/>
        <pt x="271" y="762" on="0"/>
        <pt x="305" y="762" on="1"/>
        <pt x="338" y="762" on="0"/>
        <pt x="375" y="794" on="0"/>
        <pt x="386" y="830" on="1"/>
      </contour>
    </TTGlyph>
    <TTGlyph name="Ecaron" xMin="84" yMin="0" xMax="530" yMax="830">
      <contour>
        <pt x="530" y="0" on="1"/>
        <pt x="84" y="0" on="1"/>
        <pt x="84" y="649" on="1"/>
        <pt x="520" y="649" on="1"/>
        <pt x="520" y="581" on="1"/>
        <pt x="181" y="581" on="1"/>
        <pt x="181" y="369" on="1"/>
        <pt x="487" y="369" on="1"/>
        <pt x="487" y="301" on="1"/>
        <pt x="181" y="301" on="1"/>
        <pt x="181" y="68" on="1"/>
        <pt x="530" y="68" on="1"/>
      </contour>
      <contour>
        <pt x="249" y="703" on="1"/>
        <pt x="181" y="830" on="1"/>
        <pt x="239" y="830" on="1"/>
        <pt x="302" y="743" on="1"/>
        <pt x="364" y="830" on="1"/>
        <pt x="422" y="830" on="1"/>
        <pt x="356" y="703" on="1"/>
      </contour>
    </TTGlyph>
    <TTGlyph name="Ecircumflex" xMin="84" yMin="0" xMax="530" yMax="830">
      <contour>
        <pt x="530" y="0" on="1"/>
        <pt x="84" y="0" on="1"/>
        <pt x="84" y="649" on="1"/>
        <pt x="520" y="649" on="1"/>
        <pt x="520" y="581" on="1"/>
        <pt x="181" y="581" on="1"/>
        <pt x="181" y="369" on="1"/>
        <pt x="487" y="369" on="1"/>
        <pt x="487" y="301" on="1"/>
        <pt x="181" y="301" on="1"/>
        <pt x="181" y="68" on="1"/>
        <pt x="530" y="68" on="1"/>
      </contour>
      <contour>
        <pt x="180" y="703" on="1"/>
        <pt x="248" y="830" on="1"/>
        <pt x="355" y="830" on="1"/>
        <pt x="421" y="703" on="1"/>
        <pt x="363" y="703" on="1"/>
        <pt x="301" y="790" on="1"/>
        <pt x="238" y="703" on="1"/>
      </contour>
    </TTGlyph>
    <TTGlyph name="Edieresis" xMin="84" yMin="0" xMax="530" yMax="809">
      <contour>
        <pt x="530" y="0" on="1"/>
        <pt x="84" y="0" on="1"/>
        <pt x="84" y="649" on="1"/>
        <pt x="520" y="649" on="1"/>
        <pt x="520" y="581" on="1"/>
        <pt x="181" y="581" on="1"/>
        <pt x="181" y="369" on="1"/>
        <pt x="487" y="369" on="1"/>
        <pt x="487" y="301" on="1"/>
        <pt x="181" y="301" on="1"/>
        <pt x="181" y="68" on="1"/>
        <pt x="530" y="68" on="1"/>
      </contour>
      <contour>
        <pt x="266" y="715" on="1"/>
        <pt x="176" y="715" on="1"/>
        <pt x="176" y="809" on="1"/>
        <pt x="266" y="809" on="1"/>
      </contour>
      <contour>
        <pt x="436" y="715" on="1"/>
        <pt x="346" y="715" on="1"/>
        <pt x="346" y="809" on="1"/>
        <pt x="436" y="809" on="1"/>
      </contour>
    </TTGlyph>
    <TTGlyph name="Edotaccent" xMin="84" yMin="0" xMax="530" yMax="830">
      <contour>
        <pt x="530" y="0" on="1"/>
        <pt x="84" y="0" on="1"/>
        <pt x="84" y="649" on="1"/>
        <pt x="520" y="649" on="1"/>
        <pt x="520" y="581" on="1"/>
        <pt x="181" y="581" on="1"/>
        <pt x="181" y="369" on="1"/>
        <pt x="487" y="369" on="1"/>
        <pt x="487" y="301" on="1"/>
        <pt x="181" y="301" on="1"/>
        <pt x="181" y="68" on="1"/>
        <pt x="530" y="68" on="1"/>
      </contour>
      <contour>
        <pt x="346" y="732" on="1"/>
        <pt x="256" y="732" on="1"/>
        <pt x="256" y="830" on="1"/>
        <pt x="346" y="830" on="1"/>
      </contour>
    </TTGlyph>
    <TTGlyph name="Egrave" xMin="84" yMin="0" xMax="530" yMax="830">
      <contour>
        <pt x="530" y="0" on="1"/>
        <pt x="84" y="0" on="1"/>
        <pt x="84" y="649" on="1"/>
        <pt x="520" y="649" on="1"/>
        <pt x="520" y="581" on="1"/>
        <pt x="181" y="581" on="1"/>
        <pt x="181" y="369" on="1"/>
        <pt x="487" y="369" on="1"/>
        <pt x="487" y="301" on="1"/>
        <pt x="181" y="301" on="1"/>
        <pt x="181" y="68" on="1"/>
        <pt x="530" y="68" on="1"/>
      </contour>
      <contour>
        <pt x="349" y="703" on="1"/>
        <pt x="275" y="703" on="1"/>
        <pt x="150" y="830" on="1"/>
        <pt x="259" y="830" on="1"/>
      </contour>
    </TTGlyph>
    <TTGlyph name="Emacron" xMin="84" yMin="0" xMax="530" yMax="798">
      <contour>
        <pt x="530" y="0" on="1"/>
        <pt x="84" y="0" on="1"/>
        <pt x="84" y="649" on="1"/>
        <pt x="520" y="649" on="1"/>
        <pt x="520" y="581" on="1"/>
        <pt x="181" y="581" on="1"/>
        <pt x="181" y="369" on="1"/>
        <pt x="487" y="369" on="1"/>
        <pt x="487" y="301" on="1"/>
        <pt x="181" y="301" on="1"/>
        <pt x="181" y="68" on="1"/>
        <pt x="530" y="68" on="1"/>
      </contour>
      <contour>
        <pt x="411" y="739" on="1"/>
        <pt x="193" y="739" on="1"/>
        <pt x="193" y="798" on="1"/>
        <pt x="411" y="798" on="1"/>
      </contour>
    </TTGlyph>
    <TTGlyph name="Eng" xMin="84" yMin="-190" xMax="639" yMax="649">
      <contour>
        <pt x="550" y="-36" on="1"/>
        <pt x="169" y="545" on="1"/>
        <pt x="169" y="0" on="1"/>
        <pt x="84" y="0" on="1"/>
        <pt x="84" y="649" on="1"/>
        <pt x="201" y="649" on="1"/>
        <pt x="554" y="113" on="1"/>
        <pt x="554" y="649" on="1"/>
        <pt x="639" y="649" on="1"/>
        <pt x="639" y="-41" on="1"/>
        <pt x="639" y="-115" on="0"/>
        <pt x="575" y="-190" on="0"/>
        <pt x="481" y="-190" on="1"/>
        <pt x="455" y="-190" on="1"/>
        <pt x="455" y="-126" on="1"/>
        <pt x="512" y="-126" on="0"/>
        <pt x="550" y="-75" on="0"/>
      </contour>
    </TTGlyph>
    <TTGlyph name="Eogonek" xMin="84" yMin="-186" xMax="530" yMax="649">
      <contour>
        <pt x="437" y="-186" on="1"/>
        <pt x="388" y="-186" on="0"/>
        <pt x="338" y="-149" on="0"/>
        <pt x="338" y="-106" on="1"/>
        <pt x="338" y="-56" on="0"/>
        <pt x="374" y="0" on="1"/>
        <pt x="84" y="0" on="1"/>
        <pt x="84" y="649" on="1"/>
        <pt x="520" y="649" on="1"/>
        <pt x="520" y="581" on="1"/>
        <pt x="181" y="581" on="1"/>
        <pt x="181" y="369" on="1"/>
        <pt x="487" y="369" on="1"/>
        <pt x="487" y="301" on="1"/>
        <pt x="181" y="301" on="1"/>
        <pt x="181" y="68" on="1"/>
        <pt x="530" y="68" on="1"/>
        <pt x="530" y="0" on="1"/>
        <pt x="449" y="0" on="1"/>
        <pt x="417" y="-50" on="0"/>
        <pt x="417" y="-97" on="1"/>
        <pt x="417" y="-130" on="0"/>
        <pt x="456" y="-130" on="1"/>
        <pt x="464" y="-130" on="0"/>
        <pt x="487" y="-123" on="1"/>
        <pt x="487" y="-176" on="1"/>
        <pt x="466" y="-186" on="0"/>
      </contour>
    </TTGlyph>
    <TTGlyph name="Epsilon" xMin="84" yMin="0" xMax="530" yMax="649">
      <contour>
        <pt x="530" y="0" on="1"/>
        <pt x="84" y="0" on="1"/>
        <pt x="84" y="649" on="1"/>
        <pt x="520" y="649" on="1"/>
        <pt x="520" y="581" on="1"/>
        <pt x="181" y="581" on="1"/>
        <pt x="181" y="369" on="1"/>
        <pt x="487" y="369" on="1"/>
        <pt x="487" y="301" on="1"/>
        <pt x="181" y="301" on="1"/>
        <pt x="181" y="68" on="1"/>
        <pt x="530" y="68" on="1"/>
      </contour>
    </TTGlyph>
    <TTGlyph name="Epsilontonos" xMin="48" yMin="0" xMax="668" yMax="659">
      <contour>
        <pt x="668" y="0" on="1"/>
        <pt x="222" y="0" on="1"/>
        <pt x="222" y="649" on="1"/>
        <pt x="658" y="649" on="1"/>
        <pt x="658" y="581" on="1"/>
        <pt x="319" y="581" on="1"/>
        <pt x="319" y="369" on="1"/>
        <pt x="625" y="369" on="1"/>
        <pt x="625" y="301" on="1"/>
        <pt x="319" y="301" on="1"/>
        <pt x="319" y="68" on="1"/>
        <pt x="668" y="68" on="1"/>
      </contour>
      <contour>
        <pt x="127" y="489" on="1"/>
        <pt x="77" y="489" on="1"/>
        <pt x="48" y="659" on="1"/>
        <pt x="156" y="659" on="1"/>
      </contour>
    </TTGlyph>
    <TTGlyph name="Eta" xMin="84" yMin="0" xMax="623" yMax="649">
      <contour>
        <pt x="623" y="0" on="1"/>
        <pt x="526" y="0" on="1"/>
        <pt x="526" y="301" on="1"/>
        <pt x="181" y="301" on="1"/>
        <pt x="181" y="0" on="1"/>
        <pt x="84" y="0" on="1"/>
        <pt x="84" y="649" on="1"/>
        <pt x="181" y="649" on="1"/>
        <pt x="181" y="369" on="1"/>
        <pt x="526" y="369" on="1"/>
        <pt x="526" y="649" on="1"/>
        <pt x="623" y="649" on="1"/>
      </contour>
    </TTGlyph>
    <TTGlyph name="Etatonos" xMin="48" yMin="0" xMax="776" yMax="659">
      <contour>
        <pt x="776" y="0" on="1"/>
        <pt x="679" y="0" on="1"/>
        <pt x="679" y="301" on="1"/>
        <pt x="334" y="301" on="1"/>
        <pt x="334" y="0" on="1"/>
        <pt x="237" y="0" on="1"/>
        <pt x="237" y="649" on="1"/>
        <pt x="334" y="649" on="1"/>
        <pt x="334" y="369" on="1"/>
        <pt x="679" y="369" on="1"/>
        <pt x="679" y="649" on="1"/>
        <pt x="776" y="649" on="1"/>
      </contour>
      <contour>
        <pt x="127" y="489" on="1"/>
        <pt x="77" y="489" on="1"/>
        <pt x="48" y="659" on="1"/>
        <pt x="156" y="659" on="1"/>
      </contour>
    </TTGlyph>
    <TTGlyph name="Eth" xMin="20" yMin="0" xMax="615" yMax="649">
      <contour>
        <pt x="84" y="301" on="1"/>
        <pt x="20" y="301" on="1"/>
        <pt x="20" y="369" on="1"/>
        <pt x="84" y="369" on="1"/>
        <pt x="84" y="649" on="1"/>
        <pt x="342" y="649" on="1"/>
        <pt x="615" y="649" on="0"/>
        <pt x="615" y="463" on="1"/>
        <pt x="615" y="176" on="1"/>
        <pt x="615" y="0" on="0"/>
        <pt x="343" y="0" on="1"/>
        <pt x="84" y="0" on="1"/>
      </contour>
      <contour>
        <pt x="287" y="301" on="1"/>
        <pt x="181" y="301" on="1"/>
        <pt x="181" y="66" on="1"/>
        <pt x="336" y="66" on="1"/>
        <pt x="522" y="66" on="0"/>
        <pt x="522" y="178" on="1"/>
        <pt x="522" y="464" on="1"/>
        <pt x="522" y="501" on="0"/>
        <pt x="492" y="550" on="0"/>
        <pt x="437" y="573" on="0"/>
        <pt x="379" y="582" on="0"/>
        <pt x="341" y="582" on="1"/>
        <pt x="181" y="582" on="1"/>
        <pt x="181" y="369" on="1"/>
        <pt x="287" y="369" on="1"/>
      </contour>
    </TTGlyph>
    <TTGlyph name="Eth.001" xMin="20" yMin="0" xMax="585" yMax="649">
      <contour>
        <pt x="84" y="301" on="1"/>
        <pt x="20" y="301" on="1"/>
        <pt x="20" y="369" on="1"/>
        <pt x="84" y="369" on="1"/>
        <pt x="84" y="649" on="1"/>
        <pt x="312" y="649" on="1"/>
        <pt x="585" y="649" on="0"/>
        <pt x="585" y="463" on="1"/>
        <pt x="585" y="176" on="1"/>
        <pt x="585" y="0" on="0"/>
        <pt x="313" y="0" on="1"/>
        <pt x="84" y="0" on="1"/>
      </contour>
      <contour>
        <pt x="287" y="301" on="1"/>
        <pt x="181" y="301" on="1"/>
        <pt x="181" y="66" on="1"/>
        <pt x="306" y="66" on="1"/>
        <pt x="492" y="66" on="0"/>
        <pt x="492" y="178" on="1"/>
        <pt x="492" y="464" on="1"/>
        <pt x="492" y="501" on="0"/>
        <pt x="462" y="550" on="0"/>
        <pt x="407" y="573" on="0"/>
        <pt x="349" y="582" on="0"/>
        <pt x="311" y="582" on="1"/>
        <pt x="181" y="582" on="1"/>
        <pt x="181" y="369" on="1"/>
        <pt x="287" y="369" on="1"/>
      </contour>
    </TTGlyph>
    <TTGlyph name="Euro" xMin="26" yMin="-10" xMax="554" yMax="640">
      <contour>
        <pt x="26" y="213" on="1"/>
        <pt x="26" y="284" on="1"/>
        <pt x="119" y="284" on="1"/>
        <pt x="119" y="355" on="1"/>
        <pt x="26" y="355" on="1"/>
        <pt x="26" y="426" on="1"/>
        <pt x="119" y="426" on="1"/>
        <pt x="119" y="454" on="1"/>
        <pt x="119" y="640" on="0"/>
        <pt x="392" y="640" on="1"/>
        <pt x="471" y="640" on="0"/>
        <pt x="533" y="628" on="1"/>
        <pt x="515" y="561" on="1"/>
        <pt x="445" y="573" on="0"/>
        <pt x="394" y="573" on="1"/>
        <pt x="364" y="573" on="0"/>
        <pt x="316" y="568" on="0"/>
        <pt x="265" y="553" on="0"/>
        <pt x="231" y="528" on="0"/>
        <pt x="210" y="485" on="0"/>
        <pt x="210" y="455" on="1"/>
        <pt x="210" y="426" on="1"/>
        <pt x="482" y="426" on="1"/>
        <pt x="463" y="355" on="1"/>
        <pt x="210" y="355" on="1"/>
        <pt x="210" y="284" on="1"/>
        <pt x="433" y="284" on="1"/>
        <pt x="414" y="213" on="1"/>
        <pt x="210" y="213" on="1"/>
        <pt x="210" y="171" on="1"/>
        <pt x="210" y="59" on="0"/>
        <pt x="398" y="59" on="1"/>
        <pt x="472" y="59" on="0"/>
        <pt x="554" y="78" on="1"/>
        <pt x="554" y="4" on="1"/>
        <pt x="476" y="-10" on="0"/>
        <pt x="392" y="-10" on="1"/>
        <pt x="119" y="-10" on="0"/>
        <pt x="119" y="166" on="1"/>
        <pt x="119" y="213" on="1"/>
      </contour>
    </TTGlyph>
    <TTGlyph name="F" xMin="84" yMin="0" xMax="530" yMax="649">
      <contour>
        <pt x="530" y="581" on="1"/>
        <pt x="181" y="581" on="1"/>
        <pt x="181" y="369" on="1"/>
        <pt x="497" y="369" on="1"/>
        <pt x="497" y="301" on="1"/>
        <pt x="181" y="301" on="1"/>
        <pt x="181" y="0" on="1"/>
        <pt x="84" y="0" on="1"/>
        <pt x="84" y="649" on="1"/>
        <pt x="530" y="649" on="1"/>
      </contour>
    </TTGlyph>
    <TTGlyph name="G" xMin="64" yMin="-10" xMax="602" yMax="659">
      <contour>
        <pt x="602" y="20" on="1"/>
        <pt x="472" y="-10" on="0"/>
        <pt x="363" y="-10" on="1"/>
        <pt x="322" y="-10" on="0"/>
        <pt x="249" y="-3" on="0"/>
        <pt x="165" y="20" on="0"/>
        <pt x="104" y="57" on="0"/>
        <pt x="64" y="123" on="0"/>
        <pt x="64" y="166" on="1"/>
        <pt x="64" y="473" on="1"/>
        <pt x="64" y="530" on="0"/>
        <pt x="123" y="609" on="0"/>
        <pt x="223" y="645" on="0"/>
        <pt x="313" y="659" on="0"/>
        <pt x="363" y="659" on="1"/>
        <pt x="483" y="659" on="0"/>
        <pt x="587" y="643" on="1"/>
        <pt x="587" y="568" on="1"/>
        <pt x="549" y="577" on="0"/>
        <pt x="407" y="592" on="0"/>
        <pt x="365" y="592" on="1"/>
        <pt x="160" y="592" on="0"/>
        <pt x="160" y="474" on="1"/>
        <pt x="160" y="168" on="1"/>
        <pt x="160" y="135" on="0"/>
        <pt x="199" y="88" on="0"/>
        <pt x="266" y="65" on="0"/>
        <pt x="331" y="56" on="0"/>
        <pt x="369" y="56" on="1"/>
        <pt x="436" y="56" on="0"/>
        <pt x="512" y="74" on="1"/>
        <pt x="512" y="301" on="1"/>
        <pt x="360" y="301" on="1"/>
        <pt x="360" y="369" on="1"/>
        <pt x="602" y="369" on="1"/>
      </contour>
    </TTGlyph>
    <TTGlyph name="Gamma" xMin="84" yMin="0" xMax="500" yMax="649">
      <contour>
        <pt x="500" y="581" on="1"/>
        <pt x="181" y="581" on="1"/>
        <pt x="181" y="0" on="1"/>
        <pt x="84" y="0" on="1"/>
        <pt x="84" y="649" on="1"/>
        <pt x="500" y="649" on="1"/>
      </contour>
    </TTGlyph>
    <TTGlyph name="Gbreve" xMin="64" yMin="-10" xMax="602" yMax="845">
      <contour>
        <pt x="602" y="20" on="1"/>
        <pt x="472" y="-10" on="0"/>
        <pt x="363" y="-10" on="1"/>
        <pt x="322" y="-10" on="0"/>
        <pt x="249" y="-3" on="0"/>
        <pt x="165" y="20" on="0"/>
        <pt x="104" y="57" on="0"/>
        <pt x="64" y="123" on="0"/>
        <pt x="64" y="166" on="1"/>
        <pt x="64" y="473" on="1"/>
        <pt x="64" y="530" on="0"/>
        <pt x="123" y="609" on="0"/>
        <pt x="223" y="645" on="0"/>
        <pt x="313" y="659" on="0"/>
        <pt x="363" y="659" on="1"/>
        <pt x="483" y="659" on="0"/>
        <pt x="587" y="643" on="1"/>
        <pt x="587" y="568" on="1"/>
        <pt x="549" y="577" on="0"/>
        <pt x="407" y="592" on="0"/>
        <pt x="365" y="592" on="1"/>
        <pt x="160" y="592" on="0"/>
        <pt x="160" y="474" on="1"/>
        <pt x="160" y="168" on="1"/>
        <pt x="160" y="135" on="0"/>
        <pt x="199" y="88" on="0"/>
        <pt x="266" y="65" on="0"/>
        <pt x="331" y="56" on="0"/>
        <pt x="369" y="56" on="1"/>
        <pt x="436" y="56" on="0"/>
        <pt x="512" y="74" on="1"/>
        <pt x="512" y="301" on="1"/>
        <pt x="360" y="301" on="1"/>
        <pt x="360" y="369" on="1"/>
        <pt x="602" y="369" on="1"/>
      </contour>
      <contour>
        <pt x="387" y="718" on="0"/>
        <pt x="279" y="718" on="0"/>
        <pt x="217" y="787" on="0"/>
        <pt x="215" y="845" on="1"/>
        <pt x="269" y="845" on="1"/>
        <pt x="275" y="777" on="0"/>
        <pt x="391" y="777" on="0"/>
        <pt x="397" y="845" on="1"/>
        <pt x="451" y="845" on="1"/>
        <pt x="449" y="787" on="0"/>
      </contour>
    </TTGlyph>
    <TTGlyph name="Gcircumflex" xMin="64" yMin="-10" xMax="602" yMax="845">
      <contour>
        <pt x="602" y="20" on="1"/>
        <pt x="472" y="-10" on="0"/>
        <pt x="363" y="-10" on="1"/>
        <pt x="322" y="-10" on="0"/>
        <pt x="249" y="-3" on="0"/>
        <pt x="165" y="20" on="0"/>
        <pt x="104" y="57" on="0"/>
        <pt x="64" y="123" on="0"/>
        <pt x="64" y="166" on="1"/>
        <pt x="64" y="473" on="1"/>
        <pt x="64" y="530" on="0"/>
        <pt x="123" y="609" on="0"/>
        <pt x="223" y="645" on="0"/>
        <pt x="313" y="659" on="0"/>
        <pt x="363" y="659" on="1"/>
        <pt x="483" y="659" on="0"/>
        <pt x="587" y="643" on="1"/>
        <pt x="587" y="568" on="1"/>
        <pt x="549" y="577" on="0"/>
        <pt x="407" y="592" on="0"/>
        <pt x="365" y="592" on="1"/>
        <pt x="160" y="592" on="0"/>
        <pt x="160" y="474" on="1"/>
        <pt x="160" y="168" on="1"/>
        <pt x="160" y="135" on="0"/>
        <pt x="199" y="88" on="0"/>
        <pt x="266" y="65" on="0"/>
        <pt x="331" y="56" on="0"/>
        <pt x="369" y="56" on="1"/>
        <pt x="436" y="56" on="0"/>
        <pt x="512" y="74" on="1"/>
        <pt x="512" y="301" on="1"/>
        <pt x="360" y="301" on="1"/>
        <pt x="360" y="369" on="1"/>
        <pt x="602" y="369" on="1"/>
      </contour>
      <contour>
        <pt x="212" y="718" on="1"/>
        <pt x="280" y="845" on="1"/>
        <pt x="387" y="845" on="1"/>
        <pt x="453" y="718" on="1"/>
        <pt x="395" y="718" on="1"/>
        <pt x="333" y="805" on="1"/>
        <pt x="270" y="718" on="1"/>
      </contour>
    </TTGlyph>
    <TTGlyph name="Gcommaaccent" xMin="64" yMin="-190" xMax="602" yMax="659">
      <contour>
        <pt x="602" y="20" on="1"/>
        <pt x="472" y="-10" on="0"/>
        <pt x="363" y="-10" on="1"/>
        <pt x="322" y="-10" on="0"/>
        <pt x="249" y="-3" on="0"/>
        <pt x="165" y="20" on="0"/>
        <pt x="104" y="57" on="0"/>
        <pt x="64" y="123" on="0"/>
        <pt x="64" y="166" on="1"/>
        <pt x="64" y="473" on="1"/>
        <pt x="64" y="530" on="0"/>
        <pt x="123" y="609" on="0"/>
        <pt x="223" y="645" on="0"/>
        <pt x="313" y="659" on="0"/>
        <pt x="363" y="659" on="1"/>
        <pt x="483" y="659" on="0"/>
        <pt x="587" y="643" on="1"/>
        <pt x="587" y="568" on="1"/>
        <pt x="549" y="577" on="0"/>
        <pt x="407" y="592" on="0"/>
        <pt x="365" y="592" on="1"/>
        <pt x="160" y="592" on="0"/>
        <pt x="160" y="474" on="1"/>
        <pt x="160" y="168" on="1"/>
        <pt x="160" y="135" on="0"/>
        <pt x="199" y="88" on="0"/>
        <pt x="266" y="65" on="0"/>
        <pt x="331" y="56" on="0"/>
        <pt x="369" y="56" on="1"/>
        <pt x="436" y="56" on="0"/>
        <pt x="512" y="74" on="1"/>
        <pt x="512" y="301" on="1"/>
        <pt x="360" y="301" on="1"/>
        <pt x="360" y="369" on="1"/>
        <pt x="602" y="369" on="1"/>
      </contour>
      <contour>
        <pt x="403" y="-40" on="1"/>
        <pt x="320" y="-190" on="1"/>
        <pt x="263" y="-190" on="1"/>
        <pt x="309" y="-40" on="1"/>
      </contour>
    </TTGlyph>
    <TTGlyph name="Gdotaccent" xMin="64" yMin="-10" xMax="602" yMax="831">
      <contour>
        <pt x="602" y="20" on="1"/>
        <pt x="472" y="-10" on="0"/>
        <pt x="363" y="-10" on="1"/>
        <pt x="322" y="-10" on="0"/>
        <pt x="249" y="-3" on="0"/>
        <pt x="165" y="20" on="0"/>
        <pt x="104" y="57" on="0"/>
        <pt x="64" y="123" on="0"/>
        <pt x="64" y="166" on="1"/>
        <pt x="64" y="473" on="1"/>
        <pt x="64" y="530" on="0"/>
        <pt x="123" y="609" on="0"/>
        <pt x="223" y="645" on="0"/>
        <pt x="313" y="659" on="0"/>
        <pt x="363" y="659" on="1"/>
        <pt x="483" y="659" on="0"/>
        <pt x="587" y="643" on="1"/>
        <pt x="587" y="568" on="1"/>
        <pt x="549" y="577" on="0"/>
        <pt x="407" y="592" on="0"/>
        <pt x="365" y="592" on="1"/>
        <pt x="160" y="592" on="0"/>
        <pt x="160" y="474" on="1"/>
        <pt x="160" y="168" on="1"/>
        <pt x="160" y="135" on="0"/>
        <pt x="199" y="88" on="0"/>
        <pt x="266" y="65" on="0"/>
        <pt x="331" y="56" on="0"/>
        <pt x="369" y="56" on="1"/>
        <pt x="436" y="56" on="0"/>
        <pt x="512" y="74" on="1"/>
        <pt x="512" y="301" on="1"/>
        <pt x="360" y="301" on="1"/>
        <pt x="360" y="369" on="1"/>
        <pt x="602" y="369" on="1"/>
      </contour>
      <contour>
        <pt x="378" y="733" on="1"/>
        <pt x="288" y="733" on="1"/>
        <pt x="288" y="831" on="1"/>
        <pt x="378" y="831" on="1"/>
      </contour>
    </TTGlyph>
    <TTGlyph name="H" xMin="84" yMin="0" xMax="623" yMax="649">
      <contour>
        <pt x="623" y="0" on="1"/>
        <pt x="526" y="0" on="1"/>
        <pt x="526" y="301" on="1"/>
        <pt x="181" y="301" on="1"/>
        <pt x="181" y="0" on="1"/>
        <pt x="84" y="0" on="1"/>
        <pt x="84" y="649" on="1"/>
        <pt x="181" y="649" on="1"/>
        <pt x="181" y="369" on="1"/>
        <pt x="526" y="369" on="1"/>
        <pt x="526" y="649" on="1"/>
        <pt x="623" y="649" on="1"/>
      </contour>
    </TTGlyph>
    <TTGlyph name="Hbar" xMin="84" yMin="0" xMax="623" yMax="649">
      <contour>
        <pt x="623" y="0" on="1"/>
        <pt x="526" y="0" on="1"/>
        <pt x="526" y="241" on="1"/>
        <pt x="181" y="241" on="1"/>
        <pt x="181" y="0" on="1"/>
        <pt x="84" y="0" on="1"/>
        <pt x="84" y="649" on="1"/>
        <pt x="181" y="649" on="1"/>
        <pt x="181" y="469" on="1"/>
        <pt x="526" y="469" on="1"/>
        <pt x="526" y="649" on="1"/>
        <pt x="623" y="649" on="1"/>
      </contour>
      <contour>
        <pt x="181" y="309" on="1"/>
        <pt x="526" y="309" on="1"/>
        <pt x="526" y="401" on="1"/>
        <pt x="181" y="401" on="1"/>
      </contour>
    </TTGlyph>
    <TTGlyph name="Hcircumflex" xMin="84" yMin="0" xMax="623" yMax="830">
      <contour>
        <pt x="623" y="0" on="1"/>
        <pt x="526" y="0" on="1"/>
        <pt x="526" y="301" on="1"/>
        <pt x="181" y="301" on="1"/>
        <pt x="181" y="0" on="1"/>
        <pt x="84" y="0" on="1"/>
        <pt x="84" y="649" on="1"/>
        <pt x="181" y="649" on="1"/>
        <pt x="181" y="369" on="1"/>
        <pt x="526" y="369" on="1"/>
        <pt x="526" y="649" on="1"/>
        <pt x="623" y="649" on="1"/>
      </contour>
      <contour>
        <pt x="230" y="703" on="1"/>
        <pt x="298" y="830" on="1"/>
        <pt x="405" y="830" on="1"/>
        <pt x="471" y="703" on="1"/>
        <pt x="413" y="703" on="1"/>
        <pt x="351" y="790" on="1"/>
        <pt x="288" y="703" on="1"/>
      </contour>
    </TTGlyph>
    <TTGlyph name="I" xMin="84" yMin="0" xMax="181" yMax="649">
      <contour>
        <pt x="181" y="0" on="1"/>
        <pt x="84" y="0" on="1"/>
        <pt x="84" y="649" on="1"/>
        <pt x="181" y="649" on="1"/>
      </contour>
    </TTGlyph>
    <TTGlyph name="IJ" xMin="84" yMin="-5" xMax="517" yMax="649">
      <contour>
        <pt x="181" y="0" on="1"/>
        <pt x="84" y="0" on="1"/>
        <pt x="84" y="649" on="1"/>
        <pt x="181" y="649" on="1"/>
      </contour>
      <contour>
        <pt x="517" y="143" on="1"/>
        <pt x="517" y="51" on="0"/>
        <pt x="435" y="-5" on="0"/>
        <pt x="337" y="-5" on="1"/>
        <pt x="320" y="-5" on="0"/>
        <pt x="218" y="1" on="1"/>
        <pt x="218" y="66" on="1"/>
        <pt x="222" y="66" on="0"/>
        <pt x="267" y="59" on="0"/>
        <pt x="309" y="55" on="0"/>
        <pt x="325" y="55" on="1"/>
        <pt x="382" y="55" on="0"/>
        <pt x="420" y="84" on="0"/>
        <pt x="420" y="139" on="1"/>
        <pt x="420" y="649" on="1"/>
        <pt x="517" y="649" on="1"/>
      </contour>
    </TTGlyph>
    <TTGlyph name="Iacute" xMin="84" yMin="0" xMax="283" yMax="830">
      <contour>
        <pt x="181" y="0" on="1"/>
        <pt x="84" y="0" on="1"/>
        <pt x="84" y="649" on="1"/>
        <pt x="181" y="649" on="1"/>
      </contour>
      <contour>
        <pt x="283" y="830" on="1"/>
        <pt x="158" y="703" on="1"/>
        <pt x="84" y="703" on="1"/>
        <pt x="174" y="830" on="1"/>
      </contour>
    </TTGlyph>
    <TTGlyph name="Ibreve" xMin="15" yMin="0" xMax="251" yMax="845">
      <contour>
        <pt x="181" y="0" on="1"/>
        <pt x="84" y="0" on="1"/>
        <pt x="84" y="649" on="1"/>
        <pt x="181" y="649" on="1"/>
      </contour>
      <contour>
        <pt x="187" y="718" on="0"/>
        <pt x="79" y="718" on="0"/>
        <pt x="17" y="787" on="0"/>
        <pt x="15" y="845" on="1"/>
        <pt x="69" y="845" on="1"/>
        <pt x="75" y="777" on="0"/>
        <pt x="191" y="777" on="0"/>
        <pt x="197" y="845" on="1"/>
        <pt x="251" y="845" on="1"/>
        <pt x="249" y="787" on="0"/>
      </contour>
    </TTGlyph>
    <TTGlyph name="Icircumflex" xMin="11" yMin="0" xMax="252" yMax="830">
      <contour>
        <pt x="181" y="0" on="1"/>
        <pt x="84" y="0" on="1"/>
        <pt x="84" y="649" on="1"/>
        <pt x="181" y="649" on="1"/>
      </contour>
      <contour>
        <pt x="11" y="703" on="1"/>
        <pt x="79" y="830" on="1"/>
        <pt x="186" y="830" on="1"/>
        <pt x="252" y="703" on="1"/>
        <pt x="194" y="703" on="1"/>
        <pt x="132" y="790" on="1"/>
        <pt x="69" y="703" on="1"/>
      </contour>
    </TTGlyph>
    <TTGlyph name="Idieresis" xMin="4" yMin="0" xMax="264" yMax="809">
      <contour>
        <pt x="181" y="0" on="1"/>
        <pt x="84" y="0" on="1"/>
        <pt x="84" y="649" on="1"/>
        <pt x="181" y="649" on="1"/>
      </contour>
      <contour>
        <pt x="94" y="715" on="1"/>
        <pt x="4" y="715" on="1"/>
        <pt x="4" y="809" on="1"/>
        <pt x="94" y="809" on="1"/>
      </contour>
      <contour>
        <pt x="264" y="715" on="1"/>
        <pt x="174" y="715" on="1"/>
        <pt x="174" y="809" on="1"/>
        <pt x="264" y="809" on="1"/>
      </contour>
    </TTGlyph>
    <TTGlyph name="Idotaccent" xMin="84" yMin="0" xMax="181" yMax="811">
      <contour>
        <pt x="181" y="0" on="1"/>
        <pt x="84" y="0" on="1"/>
        <pt x="84" y="649" on="1"/>
        <pt x="181" y="649" on="1"/>
      </contour>
      <contour>
        <pt x="177" y="713" on="1"/>
        <pt x="87" y="713" on="1"/>
        <pt x="87" y="811" on="1"/>
        <pt x="177" y="811" on="1"/>
      </contour>
    </TTGlyph>
    <TTGlyph name="Igrave" xMin="-26" yMin="0" xMax="181" yMax="830">
      <contour>
        <pt x="181" y="0" on="1"/>
        <pt x="84" y="0" on="1"/>
        <pt x="84" y="649" on="1"/>
        <pt x="181" y="649" on="1"/>
      </contour>
      <contour>
        <pt x="173" y="703" on="1"/>
        <pt x="99" y="703" on="1"/>
        <pt x="-26" y="830" on="1"/>
        <pt x="83" y="830" on="1"/>
      </contour>
    </TTGlyph>
    <TTGlyph name="Imacron" xMin="24" yMin="0" xMax="242" yMax="798">
      <contour>
        <pt x="181" y="0" on="1"/>
        <pt x="84" y="0" on="1"/>
        <pt x="84" y="649" on="1"/>
        <pt x="181" y="649" on="1"/>
      </contour>
      <contour>
        <pt x="242" y="739" on="1"/>
        <pt x="24" y="739" on="1"/>
        <pt x="24" y="798" on="1"/>
        <pt x="242" y="798" on="1"/>
      </contour>
    </TTGlyph>
    <TTGlyph name="Iogonek" xMin="59" yMin="-186" xMax="208" yMax="649">
      <contour>
        <pt x="181" y="0" on="1"/>
        <pt x="138" y="-47" on="0"/>
        <pt x="138" y="-97" on="1"/>
        <pt x="138" y="-130" on="0"/>
        <pt x="177" y="-130" on="1"/>
        <pt x="185" y="-130" on="0"/>
        <pt x="208" y="-123" on="1"/>
        <pt x="208" y="-176" on="1"/>
        <pt x="187" y="-186" on="0"/>
        <pt x="158" y="-186" on="1"/>
        <pt x="108" y="-186" on="0"/>
        <pt x="59" y="-149" on="0"/>
        <pt x="59" y="-106" on="1"/>
        <pt x="59" y="-60" on="0"/>
        <pt x="84" y="0" on="1"/>
        <pt x="84" y="649" on="1"/>
        <pt x="181" y="649" on="1"/>
      </contour>
    </TTGlyph>
    <TTGlyph name="Iota" xMin="84" yMin="0" xMax="181" yMax="649">
      <contour>
        <pt x="181" y="0" on="1"/>
        <pt x="84" y="0" on="1"/>
        <pt x="84" y="649" on="1"/>
        <pt x="181" y="649" on="1"/>
      </contour>
    </TTGlyph>
    <TTGlyph name="Iotadieresis" xMin="2" yMin="0" xMax="262" yMax="809">
      <contour>
        <pt x="181" y="0" on="1"/>
        <pt x="84" y="0" on="1"/>
        <pt x="84" y="649" on="1"/>
        <pt x="181" y="649" on="1"/>
      </contour>
      <contour>
        <pt x="92" y="715" on="1"/>
        <pt x="2" y="715" on="1"/>
        <pt x="2" y="809" on="1"/>
        <pt x="92" y="809" on="1"/>
      </contour>
      <contour>
        <pt x="262" y="715" on="1"/>
        <pt x="172" y="715" on="1"/>
        <pt x="172" y="809" on="1"/>
        <pt x="262" y="809" on="1"/>
      </contour>
    </TTGlyph>
    <TTGlyph name="Iotatonos" xMin="48" yMin="0" xMax="314" yMax="659">
      <contour>
        <pt x="314" y="0" on="1"/>
        <pt x="217" y="0" on="1"/>
        <pt x="217" y="649" on="1"/>
        <pt x="314" y="649" on="1"/>
      </contour>
      <contour>
        <pt x="127" y="489" on="1"/>
        <pt x="77" y="489" on="1"/>
        <pt x="48" y="659" on="1"/>
        <pt x="156" y="659" on="1"/>
      </contour>
    </TTGlyph>
    <TTGlyph name="Itilde" xMin="5" yMin="0" xMax="260" yMax="817">
      <contour>
        <pt x="181" y="0" on="1"/>
        <pt x="84" y="0" on="1"/>
        <pt x="84" y="649" on="1"/>
        <pt x="181" y="649" on="1"/>
      </contour>
      <contour>
        <pt x="70" y="808" on="1"/>
        <pt x="94" y="808" on="0"/>
        <pt x="176" y="774" on="0"/>
        <pt x="195" y="774" on="1"/>
        <pt x="217" y="774" on="0"/>
        <pt x="245" y="795" on="0"/>
        <pt x="260" y="817" on="1"/>
        <pt x="260" y="748" on="1"/>
        <pt x="237" y="709" on="0"/>
        <pt x="195" y="709" on="1"/>
        <pt x="169" y="709" on="0"/>
        <pt x="89" y="745" on="0"/>
        <pt x="70" y="745" on="1"/>
        <pt x="30" y="745" on="0"/>
        <pt x="5" y="706" on="1"/>
        <pt x="5" y="779" on="1"/>
        <pt x="29" y="808" on="0"/>
      </contour>
    </TTGlyph>
    <TTGlyph name="J" xMin="20" yMin="-10" xMax="319" yMax="649">
      <contour>
        <pt x="319" y="649" on="1"/>
        <pt x="319" y="143" on="1"/>
        <pt x="319" y="50" on="0"/>
        <pt x="236" y="-10" on="0"/>
        <pt x="139" y="-10" on="1"/>
        <pt x="57" y="-10" on="0"/>
        <pt x="20" y="1" on="1"/>
        <pt x="20" y="66" on="1"/>
        <pt x="81" y="50" on="0"/>
        <pt x="127" y="50" on="1"/>
        <pt x="183" y="50" on="0"/>
        <pt x="222" y="83" on="0"/>
        <pt x="222" y="139" on="1"/>
        <pt x="222" y="649" on="1"/>
      </contour>
    </TTGlyph>
    <TTGlyph name="Jcircumflex" xMin="20" yMin="-10" xMax="390" yMax="839">
      <contour>
        <pt x="319" y="649" on="1"/>
        <pt x="319" y="143" on="1"/>
        <pt x="319" y="50" on="0"/>
        <pt x="236" y="-10" on="0"/>
        <pt x="139" y="-10" on="1"/>
        <pt x="57" y="-10" on="0"/>
        <pt x="20" y="1" on="1"/>
        <pt x="20" y="66" on="1"/>
        <pt x="81" y="50" on="0"/>
        <pt x="127" y="50" on="1"/>
        <pt x="183" y="50" on="0"/>
        <pt x="222" y="83" on="0"/>
        <pt x="222" y="139" on="1"/>
        <pt x="222" y="649" on="1"/>
      </contour>
      <contour>
        <pt x="149" y="712" on="1"/>
        <pt x="217" y="839" on="1"/>
        <pt x="324" y="839" on="1"/>
        <pt x="390" y="712" on="1"/>
        <pt x="332" y="712" on="1"/>
        <pt x="270" y="799" on="1"/>
        <pt x="207" y="712" on="1"/>
      </contour>
    </TTGlyph>
    <TTGlyph name="K" xMin="84" yMin="0" xMax="619" yMax="649">
      <contour>
        <pt x="619" y="0" on="1"/>
        <pt x="493" y="0" on="1"/>
        <pt x="183" y="345" on="1"/>
        <pt x="473" y="649" on="1"/>
        <pt x="590" y="649" on="1"/>
        <pt x="298" y="349" on="1"/>
      </contour>
      <contour>
        <pt x="181" y="0" on="1"/>
        <pt x="84" y="0" on="1"/>
        <pt x="84" y="649" on="1"/>
        <pt x="181" y="649" on="1"/>
      </contour>
    </TTGlyph>
    <TTGlyph name="K.alt" xMin="84" yMin="0" xMax="619" yMax="649">
      <contour>
        <pt x="619" y="0" on="1"/>
        <pt x="493" y="0" on="1"/>
        <pt x="183" y="345" on="1"/>
        <pt x="473" y="649" on="1"/>
        <pt x="590" y="649" on="1"/>
        <pt x="298" y="349" on="1"/>
      </contour>
      <contour>
        <pt x="181" y="0" on="1"/>
        <pt x="84" y="0" on="1"/>
        <pt x="84" y="649" on="1"/>
        <pt x="181" y="649" on="1"/>
      </contour>
    </TTGlyph>
    <TTGlyph name="Kappa" xMin="84" yMin="0" xMax="619" yMax="649">
      <contour>
        <pt x="619" y="0" on="1"/>
        <pt x="493" y="0" on="1"/>
        <pt x="183" y="345" on="1"/>
        <pt x="473" y="649" on="1"/>
        <pt x="590" y="649" on="1"/>
        <pt x="298" y="349" on="1"/>
      </contour>
      <contour>
        <pt x="181" y="0" on="1"/>
        <pt x="84" y="0" on="1"/>
        <pt x="84" y="649" on="1"/>
        <pt x="181" y="649" on="1"/>
      </contour>
    </TTGlyph>
    <TTGlyph name="Kcommaaccent" xMin="84" yMin="-190" xMax="619" yMax="649">
      <contour>
        <pt x="619" y="0" on="1"/>
        <pt x="493" y="0" on="1"/>
        <pt x="183" y="345" on="1"/>
        <pt x="473" y="649" on="1"/>
        <pt x="590" y="649" on="1"/>
        <pt x="298" y="349" on="1"/>
      </contour>
      <contour>
        <pt x="181" y="0" on="1"/>
        <pt x="84" y="0" on="1"/>
        <pt x="84" y="649" on="1"/>
        <pt x="181" y="649" on="1"/>
      </contour>
      <contour>
        <pt x="391" y="-40" on="1"/>
        <pt x="308" y="-190" on="1"/>
        <pt x="244" y="-190" on="1"/>
        <pt x="290" y="-40" on="1"/>
      </contour>
    </TTGlyph>
    <TTGlyph name="Kcommaaccent.alt" xMin="84" yMin="-190" xMax="619" yMax="649">
      <contour>
        <pt x="619" y="0" on="1"/>
        <pt x="493" y="0" on="1"/>
        <pt x="183" y="345" on="1"/>
        <pt x="473" y="649" on="1"/>
        <pt x="590" y="649" on="1"/>
        <pt x="298" y="349" on="1"/>
      </contour>
      <contour>
        <pt x="181" y="0" on="1"/>
        <pt x="84" y="0" on="1"/>
        <pt x="84" y="649" on="1"/>
        <pt x="181" y="649" on="1"/>
      </contour>
      <contour>
        <pt x="391" y="-40" on="1"/>
        <pt x="308" y="-190" on="1"/>
        <pt x="244" y="-190" on="1"/>
        <pt x="290" y="-40" on="1"/>
      </contour>
    </TTGlyph>
    <TTGlyph name="L" xMin="84" yMin="0" xMax="500" yMax="649">
      <contour>
        <pt x="500" y="0" on="1"/>
        <pt x="84" y="0" on="1"/>
        <pt x="84" y="649" on="1"/>
        <pt x="181" y="649" on="1"/>
        <pt x="181" y="68" on="1"/>
        <pt x="500" y="68" on="1"/>
      </contour>
    </TTGlyph>
    <TTGlyph name="Lacute" xMin="84" yMin="0" xMax="500" yMax="830">
      <contour>
        <pt x="500" y="0" on="1"/>
        <pt x="84" y="0" on="1"/>
        <pt x="84" y="649" on="1"/>
        <pt x="181" y="649" on="1"/>
        <pt x="181" y="68" on="1"/>
        <pt x="500" y="68" on="1"/>
      </contour>
      <contour>
        <pt x="293" y="830" on="1"/>
        <pt x="168" y="703" on="1"/>
        <pt x="94" y="703" on="1"/>
        <pt x="184" y="830" on="1"/>
      </contour>
    </TTGlyph>
    <TTGlyph name="Lambda" xMin="15" yMin="0" xMax="637" yMax="649">
      <contour>
        <pt x="319" y="557" on="1"/>
        <pt x="111" y="0" on="1"/>
        <pt x="15" y="0" on="1"/>
        <pt x="273" y="649" on="1"/>
        <pt x="385" y="649" on="1"/>
        <pt x="637" y="0" on="1"/>
        <pt x="536" y="0" on="1"/>
        <pt x="328" y="557" on="1"/>
      </contour>
    </TTGlyph>
    <TTGlyph name="Lcaron" xMin="84" yMin="0" xMax="500" yMax="649">
      <contour>
        <pt x="500" y="0" on="1"/>
        <pt x="84" y="0" on="1"/>
        <pt x="84" y="649" on="1"/>
        <pt x="181" y="649" on="1"/>
        <pt x="181" y="68" on="1"/>
        <pt x="500" y="68" on="1"/>
      </contour>
      <contour>
        <pt x="389" y="649" on="1"/>
        <pt x="306" y="499" on="1"/>
        <pt x="242" y="499" on="1"/>
        <pt x="288" y="649" on="1"/>
      </contour>
    </TTGlyph>
    <TTGlyph name="Lcommaaccent" xMin="84" yMin="-190" xMax="500" yMax="649">
      <contour>
        <pt x="500" y="0" on="1"/>
        <pt x="84" y="0" on="1"/>
        <pt x="84" y="649" on="1"/>
        <pt x="181" y="649" on="1"/>
        <pt x="181" y="68" on="1"/>
        <pt x="500" y="68" on="1"/>
      </contour>
      <contour>
        <pt x="361" y="-40" on="1"/>
        <pt x="278" y="-190" on="1"/>
        <pt x="214" y="-190" on="1"/>
        <pt x="260" y="-40" on="1"/>
      </contour>
    </TTGlyph>
    <TTGlyph name="Ldot" xMin="84" yMin="0" xMax="500" yMax="649">
      <contour>
        <pt x="500" y="0" on="1"/>
        <pt x="84" y="0" on="1"/>
        <pt x="84" y="649" on="1"/>
        <pt x="181" y="649" on="1"/>
        <pt x="181" y="68" on="1"/>
        <pt x="500" y="68" on="1"/>
      </contour>
      <contour>
        <pt x="330" y="283" on="1"/>
        <pt x="240" y="283" on="1"/>
        <pt x="240" y="381" on="1"/>
        <pt x="330" y="381" on="1"/>
      </contour>
    </TTGlyph>
    <TTGlyph name="Lslash" xMin="20" yMin="0" xMax="520" yMax="649">
      <contour>
        <pt x="312" y="343" on="1"/>
        <pt x="201" y="311" on="1"/>
        <pt x="201" y="68" on="1"/>
        <pt x="520" y="68" on="1"/>
        <pt x="520" y="0" on="1"/>
        <pt x="104" y="0" on="1"/>
        <pt x="104" y="283" on="1"/>
        <pt x="20" y="259" on="1"/>
        <pt x="20" y="330" on="1"/>
        <pt x="104" y="354" on="1"/>
        <pt x="104" y="649" on="1"/>
        <pt x="201" y="649" on="1"/>
        <pt x="201" y="382" on="1"/>
        <pt x="312" y="414" on="1"/>
      </contour>
    </TTGlyph>
    <TTGlyph name="M" xMin="84" yMin="0" xMax="777" yMax="649">
      <contour>
        <pt x="777" y="0" on="1"/>
        <pt x="692" y="0" on="1"/>
        <pt x="692" y="549" on="1"/>
        <pt x="687" y="549" on="1"/>
        <pt x="478" y="0" on="1"/>
        <pt x="391" y="0" on="1"/>
        <pt x="176" y="549" on="1"/>
        <pt x="171" y="549" on="1"/>
        <pt x="171" y="0" on="1"/>
        <pt x="84" y="0" on="1"/>
        <pt x="84" y="649" on="1"/>
        <pt x="229" y="649" on="1"/>
        <pt x="437" y="109" on="1"/>
        <pt x="440" y="108" on="1"/>
        <pt x="637" y="649" on="1"/>
        <pt x="777" y="649" on="1"/>
      </contour>
    </TTGlyph>
    <TTGlyph name="Mu" xMin="84" yMin="0" xMax="777" yMax="649">
      <contour>
        <pt x="777" y="0" on="1"/>
        <pt x="692" y="0" on="1"/>
        <pt x="692" y="549" on="1"/>
        <pt x="687" y="549" on="1"/>
        <pt x="478" y="0" on="1"/>
        <pt x="391" y="0" on="1"/>
        <pt x="176" y="549" on="1"/>
        <pt x="171" y="549" on="1"/>
        <pt x="171" y="0" on="1"/>
        <pt x="84" y="0" on="1"/>
        <pt x="84" y="649" on="1"/>
        <pt x="229" y="649" on="1"/>
        <pt x="437" y="109" on="1"/>
        <pt x="440" y="108" on="1"/>
        <pt x="637" y="649" on="1"/>
        <pt x="777" y="649" on="1"/>
      </contour>
    </TTGlyph>
    <TTGlyph name="N" xMin="84" yMin="0" xMax="639" yMax="649">
      <contour>
        <pt x="639" y="0" on="1"/>
        <pt x="522" y="0" on="1"/>
        <pt x="169" y="545" on="1"/>
        <pt x="169" y="0" on="1"/>
        <pt x="84" y="0" on="1"/>
        <pt x="84" y="649" on="1"/>
        <pt x="201" y="649" on="1"/>
        <pt x="554" y="113" on="1"/>
        <pt x="554" y="649" on="1"/>
        <pt x="639" y="649" on="1"/>
      </contour>
    </TTGlyph>
    <TTGlyph name="Nacute" xMin="84" yMin="0" xMax="639" yMax="830">
      <contour>
        <pt x="639" y="0" on="1"/>
        <pt x="522" y="0" on="1"/>
        <pt x="169" y="545" on="1"/>
        <pt x="169" y="0" on="1"/>
        <pt x="84" y="0" on="1"/>
        <pt x="84" y="649" on="1"/>
        <pt x="201" y="649" on="1"/>
        <pt x="554" y="113" on="1"/>
        <pt x="554" y="649" on="1"/>
        <pt x="639" y="649" on="1"/>
      </contour>
      <contour>
        <pt x="479" y="830" on="1"/>
        <pt x="354" y="703" on="1"/>
        <pt x="280" y="703" on="1"/>
        <pt x="370" y="830" on="1"/>
      </contour>
    </TTGlyph>
    <TTGlyph name="Ncaron" xMin="84" yMin="0" xMax="639" yMax="830">
      <contour>
        <pt x="639" y="0" on="1"/>
        <pt x="522" y="0" on="1"/>
        <pt x="169" y="545" on="1"/>
        <pt x="169" y="0" on="1"/>
        <pt x="84" y="0" on="1"/>
        <pt x="84" y="649" on="1"/>
        <pt x="201" y="649" on="1"/>
        <pt x="554" y="113" on="1"/>
        <pt x="554" y="649" on="1"/>
        <pt x="639" y="649" on="1"/>
      </contour>
      <contour>
        <pt x="326" y="703" on="1"/>
        <pt x="258" y="830" on="1"/>
        <pt x="316" y="830" on="1"/>
        <pt x="379" y="743" on="1"/>
        <pt x="441" y="830" on="1"/>
        <pt x="499" y="830" on="1"/>
        <pt x="433" y="703" on="1"/>
      </contour>
    </TTGlyph>
    <TTGlyph name="Ncommaaccent" xMin="84" yMin="-190" xMax="639" yMax="649">
      <contour>
        <pt x="639" y="0" on="1"/>
        <pt x="522" y="0" on="1"/>
        <pt x="169" y="545" on="1"/>
        <pt x="169" y="0" on="1"/>
        <pt x="84" y="0" on="1"/>
        <pt x="84" y="649" on="1"/>
        <pt x="201" y="649" on="1"/>
        <pt x="554" y="113" on="1"/>
        <pt x="554" y="649" on="1"/>
        <pt x="639" y="649" on="1"/>
      </contour>
      <contour>
        <pt x="434" y="-40" on="1"/>
        <pt x="351" y="-190" on="1"/>
        <pt x="287" y="-190" on="1"/>
        <pt x="333" y="-40" on="1"/>
      </contour>
    </TTGlyph>
    <TTGlyph name="Ntilde" xMin="84" yMin="0" xMax="639" yMax="802">
      <contour>
        <pt x="639" y="0" on="1"/>
        <pt x="522" y="0" on="1"/>
        <pt x="169" y="545" on="1"/>
        <pt x="169" y="0" on="1"/>
        <pt x="84" y="0" on="1"/>
        <pt x="84" y="649" on="1"/>
        <pt x="201" y="649" on="1"/>
        <pt x="554" y="113" on="1"/>
        <pt x="554" y="649" on="1"/>
        <pt x="639" y="649" on="1"/>
      </contour>
      <contour>
        <pt x="299" y="793" on="1"/>
        <pt x="323" y="793" on="0"/>
        <pt x="405" y="759" on="0"/>
        <pt x="424" y="759" on="1"/>
        <pt x="446" y="759" on="0"/>
        <pt x="474" y="780" on="0"/>
        <pt x="489" y="802" on="1"/>
        <pt x="489" y="733" on="1"/>
        <pt x="466" y="694" on="0"/>
        <pt x="424" y="694" on="1"/>
        <pt x="398" y="694" on="0"/>
        <pt x="318" y="730" on="0"/>
        <pt x="299" y="730" on="1"/>
        <pt x="259" y="730" on="0"/>
        <pt x="234" y="691" on="1"/>
        <pt x="234" y="764" on="1"/>
        <pt x="258" y="793" on="0"/>
      </contour>
    </TTGlyph>
    <TTGlyph name="Nu" xMin="84" yMin="0" xMax="639" yMax="649">
      <contour>
        <pt x="639" y="0" on="1"/>
        <pt x="522" y="0" on="1"/>
        <pt x="169" y="545" on="1"/>
        <pt x="169" y="0" on="1"/>
        <pt x="84" y="0" on="1"/>
        <pt x="84" y="649" on="1"/>
        <pt x="201" y="649" on="1"/>
        <pt x="554" y="113" on="1"/>
        <pt x="554" y="649" on="1"/>
        <pt x="639" y="649" on="1"/>
      </contour>
    </TTGlyph>
    <TTGlyph name="O" xMin="66" yMin="-10" xMax="613" yMax="659">
      <contour>
        <pt x="613" y="474" on="1"/>
        <pt x="613" y="166" on="1"/>
        <pt x="613" y="113" on="0"/>
        <pt x="562" y="39" on="0"/>
        <pt x="474" y="4" on="0"/>
        <pt x="388" y="-10" on="0"/>
        <pt x="338" y="-10" on="1"/>
        <pt x="66" y="-10" on="0"/>
        <pt x="66" y="166" on="1"/>
        <pt x="66" y="473" on="1"/>
        <pt x="66" y="659" on="0"/>
        <pt x="338" y="659" on="1"/>
        <pt x="613" y="659" on="0"/>
      </contour>
      <contour>
        <pt x="519" y="167" on="1"/>
        <pt x="519" y="476" on="1"/>
        <pt x="519" y="596" on="0"/>
        <pt x="339" y="596" on="1"/>
        <pt x="301" y="596" on="0"/>
        <pt x="243" y="587" on="0"/>
        <pt x="189" y="562" on="0"/>
        <pt x="159" y="513" on="0"/>
        <pt x="159" y="476" on="1"/>
        <pt x="159" y="167" on="1"/>
        <pt x="159" y="55" on="0"/>
        <pt x="340" y="55" on="1"/>
        <pt x="519" y="55" on="0"/>
      </contour>
    </TTGlyph>
    <TTGlyph name="OE" xMin="84" yMin="0" xMax="934" yMax="649">
      <contour>
        <pt x="488" y="66" on="1"/>
        <pt x="488" y="582" on="1"/>
        <pt x="358" y="582" on="1"/>
        <pt x="320" y="582" on="0"/>
        <pt x="262" y="573" on="0"/>
        <pt x="207" y="550" on="0"/>
        <pt x="177" y="501" on="0"/>
        <pt x="177" y="464" on="1"/>
        <pt x="177" y="178" on="1"/>
        <pt x="177" y="66" on="0"/>
        <pt x="362" y="66" on="1"/>
      </contour>
      <contour>
        <pt x="934" y="0" on="1"/>
        <pt x="356" y="0" on="1"/>
        <pt x="84" y="0" on="0"/>
        <pt x="84" y="176" on="1"/>
        <pt x="84" y="463" on="1"/>
        <pt x="84" y="649" on="0"/>
        <pt x="356" y="649" on="1"/>
        <pt x="924" y="649" on="1"/>
        <pt x="924" y="581" on="1"/>
        <pt x="585" y="581" on="1"/>
        <pt x="585" y="369" on="1"/>
        <pt x="891" y="369" on="1"/>
        <pt x="891" y="301" on="1"/>
        <pt x="585" y="301" on="1"/>
        <pt x="585" y="68" on="1"/>
        <pt x="934" y="68" on="1"/>
      </contour>
    </TTGlyph>
    <TTGlyph name="Oacute" xMin="66" yMin="-10" xMax="613" yMax="830">
      <contour>
        <pt x="613" y="474" on="1"/>
        <pt x="613" y="166" on="1"/>
        <pt x="613" y="113" on="0"/>
        <pt x="562" y="39" on="0"/>
        <pt x="474" y="4" on="0"/>
        <pt x="388" y="-10" on="0"/>
        <pt x="338" y="-10" on="1"/>
        <pt x="66" y="-10" on="0"/>
        <pt x="66" y="166" on="1"/>
        <pt x="66" y="473" on="1"/>
        <pt x="66" y="659" on="0"/>
        <pt x="338" y="659" on="1"/>
        <pt x="613" y="659" on="0"/>
      </contour>
      <contour>
        <pt x="519" y="167" on="1"/>
        <pt x="519" y="476" on="1"/>
        <pt x="519" y="596" on="0"/>
        <pt x="339" y="596" on="1"/>
        <pt x="301" y="596" on="0"/>
        <pt x="243" y="587" on="0"/>
        <pt x="189" y="562" on="0"/>
        <pt x="159" y="513" on="0"/>
        <pt x="159" y="476" on="1"/>
        <pt x="159" y="167" on="1"/>
        <pt x="159" y="55" on="0"/>
        <pt x="340" y="55" on="1"/>
        <pt x="519" y="55" on="0"/>
      </contour>
      <contour>
        <pt x="469" y="830" on="1"/>
        <pt x="344" y="703" on="1"/>
        <pt x="270" y="703" on="1"/>
        <pt x="360" y="830" on="1"/>
      </contour>
    </TTGlyph>
    <TTGlyph name="Obreve" xMin="66" yMin="-10" xMax="613" yMax="845">
      <contour>
        <pt x="613" y="474" on="1"/>
        <pt x="613" y="166" on="1"/>
        <pt x="613" y="113" on="0"/>
        <pt x="562" y="39" on="0"/>
        <pt x="474" y="4" on="0"/>
        <pt x="388" y="-10" on="0"/>
        <pt x="338" y="-10" on="1"/>
        <pt x="66" y="-10" on="0"/>
        <pt x="66" y="166" on="1"/>
        <pt x="66" y="473" on="1"/>
        <pt x="66" y="659" on="0"/>
        <pt x="338" y="659" on="1"/>
        <pt x="613" y="659" on="0"/>
      </contour>
      <contour>
        <pt x="519" y="167" on="1"/>
        <pt x="519" y="476" on="1"/>
        <pt x="519" y="596" on="0"/>
        <pt x="339" y="596" on="1"/>
        <pt x="301" y="596" on="0"/>
        <pt x="243" y="587" on="0"/>
        <pt x="189" y="562" on="0"/>
        <pt x="159" y="513" on="0"/>
        <pt x="159" y="476" on="1"/>
        <pt x="159" y="167" on="1"/>
        <pt x="159" y="55" on="0"/>
        <pt x="340" y="55" on="1"/>
        <pt x="519" y="55" on="0"/>
      </contour>
      <contour>
        <pt x="393" y="718" on="0"/>
        <pt x="285" y="718" on="0"/>
        <pt x="223" y="787" on="0"/>
        <pt x="221" y="845" on="1"/>
        <pt x="275" y="845" on="1"/>
        <pt x="281" y="777" on="0"/>
        <pt x="397" y="777" on="0"/>
        <pt x="403" y="845" on="1"/>
        <pt x="457" y="845" on="1"/>
        <pt x="455" y="787" on="0"/>
      </contour>
    </TTGlyph>
    <TTGlyph name="Ocircumflex" xMin="66" yMin="-10" xMax="613" yMax="830">
      <contour>
        <pt x="613" y="474" on="1"/>
        <pt x="613" y="166" on="1"/>
        <pt x="613" y="113" on="0"/>
        <pt x="562" y="39" on="0"/>
        <pt x="474" y="4" on="0"/>
        <pt x="388" y="-10" on="0"/>
        <pt x="338" y="-10" on="1"/>
        <pt x="66" y="-10" on="0"/>
        <pt x="66" y="166" on="1"/>
        <pt x="66" y="473" on="1"/>
        <pt x="66" y="659" on="0"/>
        <pt x="338" y="659" on="1"/>
        <pt x="613" y="659" on="0"/>
      </contour>
      <contour>
        <pt x="519" y="167" on="1"/>
        <pt x="519" y="476" on="1"/>
        <pt x="519" y="596" on="0"/>
        <pt x="339" y="596" on="1"/>
        <pt x="301" y="596" on="0"/>
        <pt x="243" y="587" on="0"/>
        <pt x="189" y="562" on="0"/>
        <pt x="159" y="513" on="0"/>
        <pt x="159" y="476" on="1"/>
        <pt x="159" y="167" on="1"/>
        <pt x="159" y="55" on="0"/>
        <pt x="340" y="55" on="1"/>
        <pt x="519" y="55" on="0"/>
      </contour>
      <contour>
        <pt x="220" y="703" on="1"/>
        <pt x="288" y="830" on="1"/>
        <pt x="395" y="830" on="1"/>
        <pt x="461" y="703" on="1"/>
        <pt x="403" y="703" on="1"/>
        <pt x="341" y="790" on="1"/>
        <pt x="278" y="703" on="1"/>
      </contour>
    </TTGlyph>
    <TTGlyph name="Odieresis" xMin="66" yMin="-10" xMax="613" yMax="809">
      <contour>
        <pt x="613" y="474" on="1"/>
        <pt x="613" y="166" on="1"/>
        <pt x="613" y="113" on="0"/>
        <pt x="562" y="39" on="0"/>
        <pt x="474" y="4" on="0"/>
        <pt x="388" y="-10" on="0"/>
        <pt x="338" y="-10" on="1"/>
        <pt x="66" y="-10" on="0"/>
        <pt x="66" y="166" on="1"/>
        <pt x="66" y="473" on="1"/>
        <pt x="66" y="659" on="0"/>
        <pt x="338" y="659" on="1"/>
        <pt x="613" y="659" on="0"/>
      </contour>
      <contour>
        <pt x="519" y="167" on="1"/>
        <pt x="519" y="476" on="1"/>
        <pt x="519" y="596" on="0"/>
        <pt x="339" y="596" on="1"/>
        <pt x="301" y="596" on="0"/>
        <pt x="243" y="587" on="0"/>
        <pt x="189" y="562" on="0"/>
        <pt x="159" y="513" on="0"/>
        <pt x="159" y="476" on="1"/>
        <pt x="159" y="167" on="1"/>
        <pt x="159" y="55" on="0"/>
        <pt x="340" y="55" on="1"/>
        <pt x="519" y="55" on="0"/>
      </contour>
      <contour>
        <pt x="290" y="715" on="1"/>
        <pt x="200" y="715" on="1"/>
        <pt x="200" y="809" on="1"/>
        <pt x="290" y="809" on="1"/>
      </contour>
      <contour>
        <pt x="460" y="715" on="1"/>
        <pt x="370" y="715" on="1"/>
        <pt x="370" y="809" on="1"/>
        <pt x="460" y="809" on="1"/>
      </contour>
    </TTGlyph>
    <TTGlyph name="Ograve" xMin="66" yMin="-10" xMax="613" yMax="830">
      <contour>
        <pt x="613" y="474" on="1"/>
        <pt x="613" y="166" on="1"/>
        <pt x="613" y="113" on="0"/>
        <pt x="562" y="39" on="0"/>
        <pt x="474" y="4" on="0"/>
        <pt x="388" y="-10" on="0"/>
        <pt x="338" y="-10" on="1"/>
        <pt x="66" y="-10" on="0"/>
        <pt x="66" y="166" on="1"/>
        <pt x="66" y="473" on="1"/>
        <pt x="66" y="659" on="0"/>
        <pt x="338" y="659" on="1"/>
        <pt x="613" y="659" on="0"/>
      </contour>
      <contour>
        <pt x="519" y="167" on="1"/>
        <pt x="519" y="476" on="1"/>
        <pt x="519" y="596" on="0"/>
        <pt x="339" y="596" on="1"/>
        <pt x="301" y="596" on="0"/>
        <pt x="243" y="587" on="0"/>
        <pt x="189" y="562" on="0"/>
        <pt x="159" y="513" on="0"/>
        <pt x="159" y="476" on="1"/>
        <pt x="159" y="167" on="1"/>
        <pt x="159" y="55" on="0"/>
        <pt x="340" y="55" on="1"/>
        <pt x="519" y="55" on="0"/>
      </contour>
      <contour>
        <pt x="369" y="703" on="1"/>
        <pt x="295" y="703" on="1"/>
        <pt x="170" y="830" on="1"/>
        <pt x="279" y="830" on="1"/>
      </contour>
    </TTGlyph>
    <TTGlyph name="Ohungarumlaut" xMin="66" yMin="-10" xMax="613" yMax="831">
      <contour>
        <pt x="613" y="474" on="1"/>
        <pt x="613" y="166" on="1"/>
        <pt x="613" y="113" on="0"/>
        <pt x="562" y="39" on="0"/>
        <pt x="474" y="4" on="0"/>
        <pt x="388" y="-10" on="0"/>
        <pt x="338" y="-10" on="1"/>
        <pt x="66" y="-10" on="0"/>
        <pt x="66" y="166" on="1"/>
        <pt x="66" y="473" on="1"/>
        <pt x="66" y="659" on="0"/>
        <pt x="338" y="659" on="1"/>
        <pt x="613" y="659" on="0"/>
      </contour>
      <contour>
        <pt x="519" y="167" on="1"/>
        <pt x="519" y="476" on="1"/>
        <pt x="519" y="596" on="0"/>
        <pt x="339" y="596" on="1"/>
        <pt x="301" y="596" on="0"/>
        <pt x="243" y="587" on="0"/>
        <pt x="189" y="562" on="0"/>
        <pt x="159" y="513" on="0"/>
        <pt x="159" y="476" on="1"/>
        <pt x="159" y="167" on="1"/>
        <pt x="159" y="55" on="0"/>
        <pt x="340" y="55" on="1"/>
        <pt x="519" y="55" on="0"/>
      </contour>
      <contour>
        <pt x="284" y="703" on="1"/>
        <pt x="208" y="703" on="1"/>
        <pt x="278" y="831" on="1"/>
        <pt x="354" y="831" on="1"/>
      </contour>
      <contour>
        <pt x="411" y="703" on="1"/>
        <pt x="335" y="703" on="1"/>
        <pt x="405" y="831" on="1"/>
        <pt x="481" y="831" on="1"/>
      </contour>
    </TTGlyph>
    <TTGlyph name="Omacron" xMin="66" yMin="-10" xMax="613" yMax="798">
      <contour>
        <pt x="613" y="474" on="1"/>
        <pt x="613" y="166" on="1"/>
        <pt x="613" y="113" on="0"/>
        <pt x="562" y="39" on="0"/>
        <pt x="474" y="4" on="0"/>
        <pt x="388" y="-10" on="0"/>
        <pt x="338" y="-10" on="1"/>
        <pt x="66" y="-10" on="0"/>
        <pt x="66" y="166" on="1"/>
        <pt x="66" y="473" on="1"/>
        <pt x="66" y="659" on="0"/>
        <pt x="338" y="659" on="1"/>
        <pt x="613" y="659" on="0"/>
      </contour>
      <contour>
        <pt x="519" y="167" on="1"/>
        <pt x="519" y="476" on="1"/>
        <pt x="519" y="596" on="0"/>
        <pt x="339" y="596" on="1"/>
        <pt x="301" y="596" on="0"/>
        <pt x="243" y="587" on="0"/>
        <pt x="189" y="562" on="0"/>
        <pt x="159" y="513" on="0"/>
        <pt x="159" y="476" on="1"/>
        <pt x="159" y="167" on="1"/>
        <pt x="159" y="55" on="0"/>
        <pt x="340" y="55" on="1"/>
        <pt x="519" y="55" on="0"/>
      </contour>
      <contour>
        <pt x="441" y="739" on="1"/>
        <pt x="223" y="739" on="1"/>
        <pt x="223" y="798" on="1"/>
        <pt x="441" y="798" on="1"/>
      </contour>
    </TTGlyph>
    <TTGlyph name="Omega" xMin="66" yMin="0" xMax="636" yMax="659">
      <contour>
        <pt x="536" y="596" on="0"/>
        <pt x="166" y="596" on="0"/>
        <pt x="166" y="476" on="1"/>
        <pt x="166" y="247" on="1"/>
        <pt x="166" y="186" on="0"/>
        <pt x="230" y="92" on="0"/>
        <pt x="281" y="64" on="1"/>
        <pt x="281" y="0" on="1"/>
        <pt x="66" y="0" on="1"/>
        <pt x="66" y="68" on="1"/>
        <pt x="171" y="68" on="1"/>
        <pt x="131" y="91" on="0"/>
        <pt x="73" y="183" on="0"/>
        <pt x="73" y="236" on="1"/>
        <pt x="73" y="474" on="1"/>
        <pt x="73" y="659" on="0"/>
        <pt x="629" y="659" on="0"/>
        <pt x="629" y="474" on="1"/>
        <pt x="629" y="236" on="1"/>
        <pt x="629" y="183" on="0"/>
        <pt x="571" y="91" on="0"/>
        <pt x="531" y="68" on="1"/>
        <pt x="636" y="68" on="1"/>
        <pt x="636" y="0" on="1"/>
        <pt x="421" y="0" on="1"/>
        <pt x="421" y="64" on="1"/>
        <pt x="472" y="92" on="0"/>
        <pt x="536" y="186" on="0"/>
        <pt x="536" y="247" on="1"/>
        <pt x="536" y="476" on="1"/>
      </contour>
    </TTGlyph>
    <TTGlyph name="Omegatonos" xMin="5" yMin="0" xMax="731" yMax="659">
      <contour>
        <pt x="631" y="596" on="0"/>
        <pt x="261" y="596" on="0"/>
        <pt x="261" y="476" on="1"/>
        <pt x="261" y="247" on="1"/>
        <pt x="261" y="186" on="0"/>
        <pt x="325" y="92" on="0"/>
        <pt x="376" y="64" on="1"/>
        <pt x="376" y="0" on="1"/>
        <pt x="161" y="0" on="1"/>
        <pt x="161" y="68" on="1"/>
        <pt x="266" y="68" on="1"/>
        <pt x="226" y="91" on="0"/>
        <pt x="168" y="183" on="0"/>
        <pt x="168" y="236" on="1"/>
        <pt x="168" y="474" on="1"/>
        <pt x="168" y="659" on="0"/>
        <pt x="724" y="659" on="0"/>
        <pt x="724" y="474" on="1"/>
        <pt x="724" y="236" on="1"/>
        <pt x="724" y="183" on="0"/>
        <pt x="666" y="91" on="0"/>
        <pt x="626" y="68" on="1"/>
        <pt x="731" y="68" on="1"/>
        <pt x="731" y="0" on="1"/>
        <pt x="516" y="0" on="1"/>
        <pt x="516" y="64" on="1"/>
        <pt x="567" y="92" on="0"/>
        <pt x="631" y="186" on="0"/>
        <pt x="631" y="247" on="1"/>
        <pt x="631" y="476" on="1"/>
      </contour>
      <contour>
        <pt x="84" y="488" on="1"/>
        <pt x="34" y="488" on="1"/>
        <pt x="5" y="658" on="1"/>
        <pt x="113" y="658" on="1"/>
      </contour>
    </TTGlyph>
    <TTGlyph name="Omicron" xMin="66" yMin="-10" xMax="613" yMax="659">
      <contour>
        <pt x="613" y="474" on="1"/>
        <pt x="613" y="166" on="1"/>
        <pt x="613" y="113" on="0"/>
        <pt x="562" y="39" on="0"/>
        <pt x="474" y="4" on="0"/>
        <pt x="388" y="-10" on="0"/>
        <pt x="338" y="-10" on="1"/>
        <pt x="66" y="-10" on="0"/>
        <pt x="66" y="166" on="1"/>
        <pt x="66" y="473" on="1"/>
        <pt x="66" y="659" on="0"/>
        <pt x="338" y="659" on="1"/>
        <pt x="613" y="659" on="0"/>
      </contour>
      <contour>
        <pt x="519" y="167" on="1"/>
        <pt x="519" y="476" on="1"/>
        <pt x="519" y="596" on="0"/>
        <pt x="339" y="596" on="1"/>
        <pt x="301" y="596" on="0"/>
        <pt x="243" y="587" on="0"/>
        <pt x="189" y="562" on="0"/>
        <pt x="159" y="513" on="0"/>
        <pt x="159" y="476" on="1"/>
        <pt x="159" y="167" on="1"/>
        <pt x="159" y="55" on="0"/>
        <pt x="340" y="55" on="1"/>
        <pt x="519" y="55" on="0"/>
      </contour>
    </TTGlyph>
    <TTGlyph name="Omicrontonos" xMin="28" yMin="-10" xMax="724" yMax="659">
      <contour>
        <pt x="724" y="474" on="1"/>
        <pt x="724" y="166" on="1"/>
        <pt x="724" y="113" on="0"/>
        <pt x="673" y="39" on="0"/>
        <pt x="585" y="4" on="0"/>
        <pt x="499" y="-10" on="0"/>
        <pt x="449" y="-10" on="1"/>
        <pt x="177" y="-10" on="0"/>
        <pt x="177" y="166" on="1"/>
        <pt x="177" y="473" on="1"/>
        <pt x="177" y="659" on="0"/>
        <pt x="449" y="659" on="1"/>
        <pt x="724" y="659" on="0"/>
      </contour>
      <contour>
        <pt x="630" y="167" on="1"/>
        <pt x="630" y="476" on="1"/>
        <pt x="630" y="596" on="0"/>
        <pt x="450" y="596" on="1"/>
        <pt x="412" y="596" on="0"/>
        <pt x="354" y="587" on="0"/>
        <pt x="300" y="562" on="0"/>
        <pt x="270" y="513" on="0"/>
        <pt x="270" y="476" on="1"/>
        <pt x="270" y="167" on="1"/>
        <pt x="270" y="55" on="0"/>
        <pt x="451" y="55" on="1"/>
        <pt x="630" y="55" on="0"/>
      </contour>
      <contour>
        <pt x="107" y="489" on="1"/>
        <pt x="57" y="489" on="1"/>
        <pt x="28" y="659" on="1"/>
        <pt x="136" y="659" on="1"/>
      </contour>
    </TTGlyph>
    <TTGlyph name="Oslash" xMin="66" yMin="-10" xMax="613" yMax="659">
      <contour>
        <pt x="613" y="474" on="1"/>
        <pt x="613" y="166" on="1"/>
        <pt x="613" y="113" on="0"/>
        <pt x="562" y="39" on="0"/>
        <pt x="474" y="4" on="0"/>
        <pt x="388" y="-10" on="0"/>
        <pt x="338" y="-10" on="1"/>
        <pt x="66" y="-10" on="0"/>
        <pt x="66" y="166" on="1"/>
        <pt x="66" y="473" on="1"/>
        <pt x="66" y="659" on="0"/>
        <pt x="338" y="659" on="1"/>
        <pt x="613" y="659" on="0"/>
      </contour>
      <contour>
        <pt x="159" y="167" on="1"/>
        <pt x="159" y="148" on="0"/>
        <pt x="161" y="140" on="1"/>
        <pt x="475" y="566" on="1"/>
        <pt x="431" y="596" on="0"/>
        <pt x="339" y="596" on="1"/>
        <pt x="301" y="596" on="0"/>
        <pt x="243" y="587" on="0"/>
        <pt x="189" y="562" on="0"/>
        <pt x="159" y="513" on="0"/>
        <pt x="159" y="476" on="1"/>
      </contour>
      <contour>
        <pt x="519" y="167" on="1"/>
        <pt x="519" y="476" on="1"/>
        <pt x="519" y="492" on="0"/>
        <pt x="516" y="507" on="1"/>
        <pt x="203" y="83" on="1"/>
        <pt x="246" y="55" on="0"/>
        <pt x="340" y="55" on="1"/>
        <pt x="519" y="55" on="0"/>
      </contour>
    </TTGlyph>
    <TTGlyph name="Otilde" xMin="66" yMin="-10" xMax="613" yMax="802">
      <contour>
        <pt x="613" y="474" on="1"/>
        <pt x="613" y="166" on="1"/>
        <pt x="613" y="113" on="0"/>
        <pt x="562" y="39" on="0"/>
        <pt x="474" y="4" on="0"/>
        <pt x="388" y="-10" on="0"/>
        <pt x="338" y="-10" on="1"/>
        <pt x="66" y="-10" on="0"/>
        <pt x="66" y="166" on="1"/>
        <pt x="66" y="473" on="1"/>
        <pt x="66" y="659" on="0"/>
        <pt x="338" y="659" on="1"/>
        <pt x="613" y="659" on="0"/>
      </contour>
      <contour>
        <pt x="519" y="167" on="1"/>
        <pt x="519" y="476" on="1"/>
        <pt x="519" y="596" on="0"/>
        <pt x="339" y="596" on="1"/>
        <pt x="301" y="596" on="0"/>
        <pt x="243" y="587" on="0"/>
        <pt x="189" y="562" on="0"/>
        <pt x="159" y="513" on="0"/>
        <pt x="159" y="476" on="1"/>
        <pt x="159" y="167" on="1"/>
        <pt x="159" y="55" on="0"/>
        <pt x="340" y="55" on="1"/>
        <pt x="519" y="55" on="0"/>
      </contour>
      <contour>
        <pt x="245" y="793" on="1"/>
        <pt x="269" y="793" on="0"/>
        <pt x="351" y="759" on="0"/>
        <pt x="370" y="759" on="1"/>
        <pt x="392" y="759" on="0"/>
        <pt x="420" y="780" on="0"/>
        <pt x="435" y="802" on="1"/>
        <pt x="435" y="733" on="1"/>
        <pt x="412" y="694" on="0"/>
        <pt x="370" y="694" on="1"/>
        <pt x="344" y="694" on="0"/>
        <pt x="264" y="730" on="0"/>
        <pt x="245" y="730" on="1"/>
        <pt x="205" y="730" on="0"/>
        <pt x="180" y="691" on="1"/>
        <pt x="180" y="764" on="1"/>
        <pt x="204" y="793" on="0"/>
      </contour>
    </TTGlyph>
    <TTGlyph name="P" xMin="84" yMin="0" xMax="525" yMax="649">
      <contour>
        <pt x="525" y="521" on="1"/>
        <pt x="525" y="386" on="1"/>
        <pt x="525" y="303" on="0"/>
        <pt x="396" y="234" on="0"/>
        <pt x="278" y="234" on="1"/>
        <pt x="181" y="234" on="1"/>
        <pt x="181" y="0" on="1"/>
        <pt x="84" y="0" on="1"/>
        <pt x="84" y="649" on="1"/>
        <pt x="296" y="649" on="1"/>
        <pt x="336" y="649" on="0"/>
        <pt x="394" y="645" on="0"/>
        <pt x="459" y="630" on="0"/>
        <pt x="498" y="603" on="0"/>
        <pt x="525" y="555" on="0"/>
      </contour>
      <contour>
        <pt x="430" y="391" on="1"/>
        <pt x="430" y="509" on="1"/>
        <pt x="430" y="536" on="0"/>
        <pt x="402" y="571" on="0"/>
        <pt x="350" y="585" on="0"/>
        <pt x="315" y="588" on="0"/>
        <pt x="289" y="588" on="1"/>
        <pt x="180" y="588" on="1"/>
        <pt x="180" y="295" on="1"/>
        <pt x="291" y="295" on="1"/>
        <pt x="349" y="295" on="0"/>
        <pt x="430" y="338" on="0"/>
      </contour>
    </TTGlyph>
    <TTGlyph name="Phi" xMin="66" yMin="0" xMax="653" yMax="649">
      <contour>
        <pt x="410" y="0" on="1"/>
        <pt x="313" y="0" on="1"/>
        <pt x="313" y="61" on="1"/>
        <pt x="247" y="61" on="0"/>
        <pt x="142" y="91" on="0"/>
        <pt x="66" y="173" on="0"/>
        <pt x="66" y="236" on="1"/>
        <pt x="66" y="403" on="1"/>
        <pt x="66" y="500" on="0"/>
        <pt x="208" y="587" on="0"/>
        <pt x="313" y="587" on="1"/>
        <pt x="313" y="649" on="1"/>
        <pt x="410" y="649" on="1"/>
        <pt x="410" y="587" on="1"/>
        <pt x="458" y="587" on="0"/>
        <pt x="540" y="568" on="0"/>
        <pt x="612" y="527" on="0"/>
        <pt x="653" y="454" on="0"/>
        <pt x="653" y="404" on="1"/>
        <pt x="653" y="236" on="1"/>
        <pt x="653" y="175" on="0"/>
        <pt x="577" y="93" on="0"/>
        <pt x="473" y="62" on="0"/>
        <pt x="410" y="62" on="1"/>
      </contour>
      <contour>
        <pt x="163" y="406" on="1"/>
        <pt x="163" y="237" on="1"/>
        <pt x="163" y="181" on="0"/>
        <pt x="245" y="127" on="0"/>
        <pt x="313" y="127" on="1"/>
        <pt x="313" y="524" on="1"/>
        <pt x="163" y="524" on="0"/>
      </contour>
      <contour>
        <pt x="555" y="237" on="1"/>
        <pt x="555" y="406" on="1"/>
        <pt x="555" y="465" on="0"/>
        <pt x="473" y="524" on="0"/>
        <pt x="410" y="524" on="1"/>
        <pt x="410" y="127" on="1"/>
        <pt x="475" y="127" on="0"/>
        <pt x="555" y="182" on="0"/>
      </contour>
    </TTGlyph>
    <TTGlyph name="Pi" xMin="84" yMin="0" xMax="603" yMax="649">
      <contour>
        <pt x="603" y="0" on="1"/>
        <pt x="506" y="0" on="1"/>
        <pt x="506" y="582" on="1"/>
        <pt x="181" y="582" on="1"/>
        <pt x="181" y="0" on="1"/>
        <pt x="84" y="0" on="1"/>
        <pt x="84" y="649" on="1"/>
        <pt x="603" y="649" on="1"/>
      </contour>
    </TTGlyph>
    <TTGlyph name="Psi" xMin="64" yMin="0" xMax="631" yMax="649">
      <contour>
        <pt x="397" y="0" on="1"/>
        <pt x="300" y="0" on="1"/>
        <pt x="300" y="231" on="1"/>
        <pt x="64" y="246" on="0"/>
        <pt x="64" y="406" on="1"/>
        <pt x="64" y="649" on="1"/>
        <pt x="157" y="649" on="1"/>
        <pt x="157" y="407" on="1"/>
        <pt x="157" y="311" on="0"/>
        <pt x="300" y="297" on="1"/>
        <pt x="300" y="649" on="1"/>
        <pt x="397" y="649" on="1"/>
        <pt x="397" y="297" on="1"/>
        <pt x="538" y="311" on="0"/>
        <pt x="538" y="407" on="1"/>
        <pt x="538" y="649" on="1"/>
        <pt x="631" y="649" on="1"/>
        <pt x="631" y="406" on="1"/>
        <pt x="631" y="249" on="0"/>
        <pt x="397" y="232" on="1"/>
      </contour>
    </TTGlyph>
    <TTGlyph name="Q" xMin="64" yMin="0" xMax="682" yMax="659">
      <contour>
        <pt x="682" y="0" on="1"/>
        <pt x="337" y="0" on="1"/>
        <pt x="64" y="0" on="0"/>
        <pt x="64" y="176" on="1"/>
        <pt x="64" y="473" on="1"/>
        <pt x="64" y="659" on="0"/>
        <pt x="337" y="659" on="1"/>
        <pt x="611" y="659" on="0"/>
        <pt x="611" y="474" on="1"/>
        <pt x="611" y="206" on="1"/>
        <pt x="611" y="113" on="0"/>
        <pt x="522" y="55" on="1"/>
        <pt x="682" y="55" on="1"/>
      </contour>
      <contour>
        <pt x="518" y="177" on="1"/>
        <pt x="518" y="476" on="1"/>
        <pt x="518" y="596" on="0"/>
        <pt x="338" y="596" on="1"/>
        <pt x="300" y="596" on="0"/>
        <pt x="241" y="587" on="0"/>
        <pt x="187" y="562" on="0"/>
        <pt x="157" y="513" on="0"/>
        <pt x="157" y="476" on="1"/>
        <pt x="157" y="177" on="1"/>
        <pt x="157" y="65" on="0"/>
        <pt x="339" y="65" on="1"/>
        <pt x="518" y="65" on="0"/>
      </contour>
    </TTGlyph>
    <TTGlyph name="Q.alt" xMin="66" yMin="-124" xMax="678" yMax="659">
      <contour>
        <pt x="613" y="474" on="1"/>
        <pt x="613" y="166" on="1"/>
        <pt x="613" y="113" on="0"/>
        <pt x="562" y="39" on="0"/>
        <pt x="474" y="4" on="0"/>
        <pt x="388" y="-10" on="0"/>
        <pt x="338" y="-10" on="1"/>
        <pt x="66" y="-10" on="0"/>
        <pt x="66" y="166" on="1"/>
        <pt x="66" y="473" on="1"/>
        <pt x="66" y="659" on="0"/>
        <pt x="338" y="659" on="1"/>
        <pt x="613" y="659" on="0"/>
      </contour>
      <contour>
        <pt x="519" y="167" on="1"/>
        <pt x="519" y="476" on="1"/>
        <pt x="519" y="596" on="0"/>
        <pt x="339" y="596" on="1"/>
        <pt x="301" y="596" on="0"/>
        <pt x="243" y="587" on="0"/>
        <pt x="189" y="562" on="0"/>
        <pt x="159" y="513" on="0"/>
        <pt x="159" y="476" on="1"/>
        <pt x="159" y="167" on="1"/>
        <pt x="159" y="55" on="0"/>
        <pt x="340" y="55" on="1"/>
        <pt x="519" y="55" on="0"/>
      </contour>
      <contour>
        <pt x="312" y="-124" on="1"/>
        <pt x="312" y="-55" on="1"/>
        <pt x="678" y="-55" on="1"/>
        <pt x="678" y="-124" on="1"/>
      </contour>
    </TTGlyph>
    <TTGlyph name="R" xMin="84" yMin="0" xMax="580" yMax="649">
      <contour>
        <pt x="580" y="0" on="1"/>
        <pt x="461" y="0" on="1"/>
        <pt x="275" y="277" on="1"/>
        <pt x="181" y="277" on="1"/>
        <pt x="181" y="0" on="1"/>
        <pt x="84" y="0" on="1"/>
        <pt x="84" y="649" on="1"/>
        <pt x="312" y="649" on="1"/>
        <pt x="434" y="649" on="0"/>
        <pt x="540" y="600" on="0"/>
        <pt x="540" y="522" on="1"/>
        <pt x="540" y="410" on="1"/>
        <pt x="540" y="350" on="0"/>
        <pt x="442" y="289" on="0"/>
        <pt x="372" y="289" on="1"/>
      </contour>
      <contour>
        <pt x="443" y="422" on="1"/>
        <pt x="443" y="512" on="1"/>
        <pt x="443" y="585" on="0"/>
        <pt x="317" y="585" on="1"/>
        <pt x="181" y="585" on="1"/>
        <pt x="181" y="341" on="1"/>
        <pt x="308" y="341" on="1"/>
        <pt x="377" y="341" on="0"/>
        <pt x="443" y="375" on="0"/>
      </contour>
    </TTGlyph>
    <TTGlyph name="Racute" xMin="84" yMin="0" xMax="580" yMax="830">
      <contour>
        <pt x="580" y="0" on="1"/>
        <pt x="461" y="0" on="1"/>
        <pt x="275" y="277" on="1"/>
        <pt x="181" y="277" on="1"/>
        <pt x="181" y="0" on="1"/>
        <pt x="84" y="0" on="1"/>
        <pt x="84" y="649" on="1"/>
        <pt x="312" y="649" on="1"/>
        <pt x="434" y="649" on="0"/>
        <pt x="540" y="600" on="0"/>
        <pt x="540" y="522" on="1"/>
        <pt x="540" y="410" on="1"/>
        <pt x="540" y="350" on="0"/>
        <pt x="442" y="289" on="0"/>
        <pt x="372" y="289" on="1"/>
      </contour>
      <contour>
        <pt x="443" y="422" on="1"/>
        <pt x="443" y="512" on="1"/>
        <pt x="443" y="585" on="0"/>
        <pt x="317" y="585" on="1"/>
        <pt x="181" y="585" on="1"/>
        <pt x="181" y="341" on="1"/>
        <pt x="308" y="341" on="1"/>
        <pt x="377" y="341" on="0"/>
        <pt x="443" y="375" on="0"/>
      </contour>
      <contour>
        <pt x="415" y="830" on="1"/>
        <pt x="290" y="703" on="1"/>
        <pt x="216" y="703" on="1"/>
        <pt x="306" y="830" on="1"/>
      </contour>
    </TTGlyph>
    <TTGlyph name="Rcaron" xMin="84" yMin="0" xMax="580" yMax="830">
      <contour>
        <pt x="580" y="0" on="1"/>
        <pt x="461" y="0" on="1"/>
        <pt x="275" y="277" on="1"/>
        <pt x="181" y="277" on="1"/>
        <pt x="181" y="0" on="1"/>
        <pt x="84" y="0" on="1"/>
        <pt x="84" y="649" on="1"/>
        <pt x="312" y="649" on="1"/>
        <pt x="434" y="649" on="0"/>
        <pt x="540" y="600" on="0"/>
        <pt x="540" y="522" on="1"/>
        <pt x="540" y="410" on="1"/>
        <pt x="540" y="350" on="0"/>
        <pt x="442" y="289" on="0"/>
        <pt x="372" y="289" on="1"/>
      </contour>
      <contour>
        <pt x="443" y="422" on="1"/>
        <pt x="443" y="512" on="1"/>
        <pt x="443" y="585" on="0"/>
        <pt x="317" y="585" on="1"/>
        <pt x="181" y="585" on="1"/>
        <pt x="181" y="341" on="1"/>
        <pt x="308" y="341" on="1"/>
        <pt x="377" y="341" on="0"/>
        <pt x="443" y="375" on="0"/>
      </contour>
      <contour>
        <pt x="240" y="703" on="1"/>
        <pt x="172" y="830" on="1"/>
        <pt x="230" y="830" on="1"/>
        <pt x="293" y="743" on="1"/>
        <pt x="355" y="830" on="1"/>
        <pt x="413" y="830" on="1"/>
        <pt x="347" y="703" on="1"/>
      </contour>
    </TTGlyph>
    <TTGlyph name="Rcommaaccent" xMin="84" yMin="-190" xMax="580" yMax="649">
      <contour>
        <pt x="580" y="0" on="1"/>
        <pt x="461" y="0" on="1"/>
        <pt x="275" y="277" on="1"/>
        <pt x="181" y="277" on="1"/>
        <pt x="181" y="0" on="1"/>
        <pt x="84" y="0" on="1"/>
        <pt x="84" y="649" on="1"/>
        <pt x="312" y="649" on="1"/>
        <pt x="434" y="649" on="0"/>
        <pt x="540" y="600" on="0"/>
        <pt x="540" y="522" on="1"/>
        <pt x="540" y="410" on="1"/>
        <pt x="540" y="350" on="0"/>
        <pt x="442" y="289" on="0"/>
        <pt x="372" y="289" on="1"/>
      </contour>
      <contour>
        <pt x="443" y="422" on="1"/>
        <pt x="443" y="512" on="1"/>
        <pt x="443" y="585" on="0"/>
        <pt x="317" y="585" on="1"/>
        <pt x="181" y="585" on="1"/>
        <pt x="181" y="341" on="1"/>
        <pt x="308" y="341" on="1"/>
        <pt x="377" y="341" on="0"/>
        <pt x="443" y="375" on="0"/>
      </contour>
      <contour>
        <pt x="389" y="-40" on="1"/>
        <pt x="306" y="-190" on="1"/>
        <pt x="242" y="-190" on="1"/>
        <pt x="288" y="-40" on="1"/>
      </contour>
    </TTGlyph>
    <TTGlyph name="Rho" xMin="84" yMin="0" xMax="525" yMax="649">
      <contour>
        <pt x="525" y="521" on="1"/>
        <pt x="525" y="388" on="1"/>
        <pt x="525" y="304" on="0"/>
        <pt x="397" y="234" on="0"/>
        <pt x="278" y="234" on="1"/>
        <pt x="181" y="234" on="1"/>
        <pt x="181" y="0" on="1"/>
        <pt x="84" y="0" on="1"/>
        <pt x="84" y="649" on="1"/>
        <pt x="296" y="649" on="1"/>
        <pt x="336" y="649" on="0"/>
        <pt x="394" y="645" on="0"/>
        <pt x="459" y="630" on="0"/>
        <pt x="498" y="603" on="0"/>
        <pt x="525" y="555" on="0"/>
      </contour>
      <contour>
        <pt x="430" y="391" on="1"/>
        <pt x="430" y="509" on="1"/>
        <pt x="430" y="536" on="0"/>
        <pt x="402" y="571" on="0"/>
        <pt x="350" y="585" on="0"/>
        <pt x="315" y="588" on="0"/>
        <pt x="289" y="588" on="1"/>
        <pt x="180" y="588" on="1"/>
        <pt x="180" y="295" on="1"/>
        <pt x="291" y="295" on="1"/>
        <pt x="349" y="295" on="0"/>
        <pt x="430" y="338" on="0"/>
      </contour>
    </TTGlyph>
    <TTGlyph name="S" xMin="60" yMin="-10" xMax="514" yMax="659">
      <contour>
        <pt x="514" y="220" on="1"/>
        <pt x="514" y="173" on="1"/>
        <pt x="514" y="69" on="0"/>
        <pt x="396" y="-10" on="0"/>
        <pt x="271" y="-10" on="1"/>
        <pt x="191" y="-10" on="0"/>
        <pt x="73" y="6" on="1"/>
        <pt x="73" y="87" on="1"/>
        <pt x="191" y="62" on="0"/>
        <pt x="277" y="62" on="1"/>
        <pt x="346" y="62" on="0"/>
        <pt x="419" y="93" on="0"/>
        <pt x="419" y="140" on="1"/>
        <pt x="419" y="224" on="1"/>
        <pt x="419" y="265" on="0"/>
        <pt x="372" y="300" on="0"/>
        <pt x="311" y="300" on="1"/>
        <pt x="235" y="300" on="1"/>
        <pt x="137" y="300" on="0"/>
        <pt x="60" y="379" on="0"/>
        <pt x="60" y="456" on="1"/>
        <pt x="60" y="508" on="1"/>
        <pt x="60" y="585" on="0"/>
        <pt x="169" y="659" on="0"/>
        <pt x="315" y="659" on="1"/>
        <pt x="385" y="659" on="0"/>
        <pt x="482" y="648" on="1"/>
        <pt x="482" y="575" on="1"/>
        <pt x="371" y="592" on="0"/>
        <pt x="308" y="592" on="1"/>
        <pt x="215" y="592" on="0"/>
        <pt x="154" y="555" on="0"/>
        <pt x="154" y="511" on="1"/>
        <pt x="154" y="437" on="1"/>
        <pt x="154" y="403" on="0"/>
        <pt x="202" y="372" on="0"/>
        <pt x="263" y="372" on="1"/>
        <pt x="341" y="372" on="1"/>
        <pt x="442" y="372" on="0"/>
        <pt x="514" y="299" on="0"/>
      </contour>
    </TTGlyph>
    <TTGlyph name="Sacute" xMin="60" yMin="-10" xMax="514" yMax="830">
      <contour>
        <pt x="514" y="220" on="1"/>
        <pt x="514" y="173" on="1"/>
        <pt x="514" y="69" on="0"/>
        <pt x="396" y="-10" on="0"/>
        <pt x="271" y="-10" on="1"/>
        <pt x="191" y="-10" on="0"/>
        <pt x="73" y="6" on="1"/>
        <pt x="73" y="87" on="1"/>
        <pt x="191" y="62" on="0"/>
        <pt x="277" y="62" on="1"/>
        <pt x="346" y="62" on="0"/>
        <pt x="419" y="93" on="0"/>
        <pt x="419" y="140" on="1"/>
        <pt x="419" y="224" on="1"/>
        <pt x="419" y="265" on="0"/>
        <pt x="372" y="300" on="0"/>
        <pt x="311" y="300" on="1"/>
        <pt x="235" y="300" on="1"/>
        <pt x="137" y="300" on="0"/>
        <pt x="60" y="379" on="0"/>
        <pt x="60" y="456" on="1"/>
        <pt x="60" y="508" on="1"/>
        <pt x="60" y="585" on="0"/>
        <pt x="169" y="659" on="0"/>
        <pt x="315" y="659" on="1"/>
        <pt x="385" y="659" on="0"/>
        <pt x="482" y="648" on="1"/>
        <pt x="482" y="575" on="1"/>
        <pt x="371" y="592" on="0"/>
        <pt x="308" y="592" on="1"/>
        <pt x="215" y="592" on="0"/>
        <pt x="154" y="555" on="0"/>
        <pt x="154" y="511" on="1"/>
        <pt x="154" y="437" on="1"/>
        <pt x="154" y="403" on="0"/>
        <pt x="202" y="372" on="0"/>
        <pt x="263" y="372" on="1"/>
        <pt x="341" y="372" on="1"/>
        <pt x="442" y="372" on="0"/>
        <pt x="514" y="299" on="0"/>
      </contour>
      <contour>
        <pt x="431" y="830" on="1"/>
        <pt x="306" y="703" on="1"/>
        <pt x="232" y="703" on="1"/>
        <pt x="322" y="830" on="1"/>
      </contour>
    </TTGlyph>
    <TTGlyph name="Scaron" xMin="60" yMin="-10" xMax="514" yMax="830">
      <contour>
        <pt x="514" y="220" on="1"/>
        <pt x="514" y="173" on="1"/>
        <pt x="514" y="69" on="0"/>
        <pt x="396" y="-10" on="0"/>
        <pt x="271" y="-10" on="1"/>
        <pt x="191" y="-10" on="0"/>
        <pt x="73" y="6" on="1"/>
        <pt x="73" y="87" on="1"/>
        <pt x="191" y="62" on="0"/>
        <pt x="277" y="62" on="1"/>
        <pt x="346" y="62" on="0"/>
        <pt x="419" y="93" on="0"/>
        <pt x="419" y="140" on="1"/>
        <pt x="419" y="224" on="1"/>
        <pt x="419" y="265" on="0"/>
        <pt x="372" y="300" on="0"/>
        <pt x="311" y="300" on="1"/>
        <pt x="235" y="300" on="1"/>
        <pt x="137" y="300" on="0"/>
        <pt x="60" y="379" on="0"/>
        <pt x="60" y="456" on="1"/>
        <pt x="60" y="508" on="1"/>
        <pt x="60" y="585" on="0"/>
        <pt x="169" y="659" on="0"/>
        <pt x="315" y="659" on="1"/>
        <pt x="385" y="659" on="0"/>
        <pt x="482" y="648" on="1"/>
        <pt x="482" y="575" on="1"/>
        <pt x="371" y="592" on="0"/>
        <pt x="308" y="592" on="1"/>
        <pt x="215" y="592" on="0"/>
        <pt x="154" y="555" on="0"/>
        <pt x="154" y="511" on="1"/>
        <pt x="154" y="437" on="1"/>
        <pt x="154" y="403" on="0"/>
        <pt x="202" y="372" on="0"/>
        <pt x="263" y="372" on="1"/>
        <pt x="341" y="372" on="1"/>
        <pt x="442" y="372" on="0"/>
        <pt x="514" y="299" on="0"/>
      </contour>
      <contour>
        <pt x="218" y="703" on="1"/>
        <pt x="150" y="830" on="1"/>
        <pt x="208" y="830" on="1"/>
        <pt x="271" y="743" on="1"/>
        <pt x="333" y="830" on="1"/>
        <pt x="391" y="830" on="1"/>
        <pt x="325" y="703" on="1"/>
      </contour>
    </TTGlyph>
    <TTGlyph name="Scedilla" xMin="60" yMin="-220" xMax="514" yMax="659">
      <contour>
        <pt x="514" y="220" on="1"/>
        <pt x="514" y="173" on="1"/>
        <pt x="514" y="77" on="0"/>
        <pt x="414" y="-4" on="0"/>
        <pt x="309" y="-9" on="1"/>
        <pt x="288" y="-52" on="1"/>
        <pt x="325" y="-53" on="0"/>
        <pt x="381" y="-92" on="0"/>
        <pt x="381" y="-130" on="1"/>
        <pt x="381" y="-174" on="0"/>
        <pt x="313" y="-220" on="0"/>
        <pt x="268" y="-220" on="1"/>
        <pt x="219" y="-220" on="0"/>
        <pt x="187" y="-201" on="1"/>
        <pt x="208" y="-156" on="1"/>
        <pt x="238" y="-173" on="0"/>
        <pt x="266" y="-173" on="1"/>
        <pt x="313" y="-173" on="0"/>
        <pt x="313" y="-133" on="1"/>
        <pt x="313" y="-114" on="0"/>
        <pt x="269" y="-92" on="0"/>
        <pt x="235" y="-92" on="1"/>
        <pt x="202" y="-92" on="1"/>
        <pt x="226" y="-51" on="0"/>
        <pt x="246" y="-10" on="1"/>
        <pt x="175" y="-8" on="0"/>
        <pt x="73" y="6" on="1"/>
        <pt x="73" y="87" on="1"/>
        <pt x="191" y="62" on="0"/>
        <pt x="277" y="62" on="1"/>
        <pt x="346" y="62" on="0"/>
        <pt x="419" y="93" on="0"/>
        <pt x="419" y="140" on="1"/>
        <pt x="419" y="224" on="1"/>
        <pt x="419" y="265" on="0"/>
        <pt x="372" y="300" on="0"/>
        <pt x="311" y="300" on="1"/>
        <pt x="235" y="300" on="1"/>
        <pt x="137" y="300" on="0"/>
        <pt x="60" y="379" on="0"/>
        <pt x="60" y="456" on="1"/>
        <pt x="60" y="508" on="1"/>
        <pt x="60" y="585" on="0"/>
        <pt x="169" y="659" on="0"/>
        <pt x="315" y="659" on="1"/>
        <pt x="385" y="659" on="0"/>
        <pt x="482" y="648" on="1"/>
        <pt x="482" y="575" on="1"/>
        <pt x="371" y="592" on="0"/>
        <pt x="308" y="592" on="1"/>
        <pt x="215" y="592" on="0"/>
        <pt x="154" y="555" on="0"/>
        <pt x="154" y="511" on="1"/>
        <pt x="154" y="437" on="1"/>
        <pt x="154" y="403" on="0"/>
        <pt x="202" y="372" on="0"/>
        <pt x="263" y="372" on="1"/>
        <pt x="341" y="372" on="1"/>
        <pt x="442" y="372" on="0"/>
        <pt x="514" y="299" on="0"/>
      </contour>
    </TTGlyph>
    <TTGlyph name="Scircumflex" xMin="60" yMin="-10" xMax="514" yMax="830">
      <contour>
        <pt x="514" y="220" on="1"/>
        <pt x="514" y="173" on="1"/>
        <pt x="514" y="69" on="0"/>
        <pt x="396" y="-10" on="0"/>
        <pt x="271" y="-10" on="1"/>
        <pt x="191" y="-10" on="0"/>
        <pt x="73" y="6" on="1"/>
        <pt x="73" y="87" on="1"/>
        <pt x="191" y="62" on="0"/>
        <pt x="277" y="62" on="1"/>
        <pt x="346" y="62" on="0"/>
        <pt x="419" y="93" on="0"/>
        <pt x="419" y="140" on="1"/>
        <pt x="419" y="224" on="1"/>
        <pt x="419" y="265" on="0"/>
        <pt x="372" y="300" on="0"/>
        <pt x="311" y="300" on="1"/>
        <pt x="235" y="300" on="1"/>
        <pt x="137" y="300" on="0"/>
        <pt x="60" y="379" on="0"/>
        <pt x="60" y="456" on="1"/>
        <pt x="60" y="508" on="1"/>
        <pt x="60" y="585" on="0"/>
        <pt x="169" y="659" on="0"/>
        <pt x="315" y="659" on="1"/>
        <pt x="385" y="659" on="0"/>
        <pt x="482" y="648" on="1"/>
        <pt x="482" y="575" on="1"/>
        <pt x="371" y="592" on="0"/>
        <pt x="308" y="592" on="1"/>
        <pt x="215" y="592" on="0"/>
        <pt x="154" y="555" on="0"/>
        <pt x="154" y="511" on="1"/>
        <pt x="154" y="437" on="1"/>
        <pt x="154" y="403" on="0"/>
        <pt x="202" y="372" on="0"/>
        <pt x="263" y="372" on="1"/>
        <pt x="341" y="372" on="1"/>
        <pt x="442" y="372" on="0"/>
        <pt x="514" y="299" on="0"/>
      </contour>
      <contour>
        <pt x="173" y="703" on="1"/>
        <pt x="241" y="830" on="1"/>
        <pt x="348" y="830" on="1"/>
        <pt x="414" y="703" on="1"/>
        <pt x="356" y="703" on="1"/>
        <pt x="294" y="790" on="1"/>
        <pt x="231" y="703" on="1"/>
      </contour>
    </TTGlyph>
    <TTGlyph name="Scommaaccent" xMin="60" yMin="-190" xMax="514" yMax="659">
      <contour>
        <pt x="514" y="220" on="1"/>
        <pt x="514" y="173" on="1"/>
        <pt x="514" y="69" on="0"/>
        <pt x="396" y="-10" on="0"/>
        <pt x="271" y="-10" on="1"/>
        <pt x="191" y="-10" on="0"/>
        <pt x="73" y="6" on="1"/>
        <pt x="73" y="87" on="1"/>
        <pt x="191" y="62" on="0"/>
        <pt x="277" y="62" on="1"/>
        <pt x="346" y="62" on="0"/>
        <pt x="419" y="93" on="0"/>
        <pt x="419" y="140" on="1"/>
        <pt x="419" y="224" on="1"/>
        <pt x="419" y="265" on="0"/>
        <pt x="372" y="300" on="0"/>
        <pt x="311" y="300" on="1"/>
        <pt x="235" y="300" on="1"/>
        <pt x="137" y="300" on="0"/>
        <pt x="60" y="379" on="0"/>
        <pt x="60" y="456" on="1"/>
        <pt x="60" y="508" on="1"/>
        <pt x="60" y="585" on="0"/>
        <pt x="169" y="659" on="0"/>
        <pt x="315" y="659" on="1"/>
        <pt x="385" y="659" on="0"/>
        <pt x="482" y="648" on="1"/>
        <pt x="482" y="575" on="1"/>
        <pt x="371" y="592" on="0"/>
        <pt x="308" y="592" on="1"/>
        <pt x="215" y="592" on="0"/>
        <pt x="154" y="555" on="0"/>
        <pt x="154" y="511" on="1"/>
        <pt x="154" y="437" on="1"/>
        <pt x="154" y="403" on="0"/>
        <pt x="202" y="372" on="0"/>
        <pt x="263" y="372" on="1"/>
        <pt x="341" y="372" on="1"/>
        <pt x="442" y="372" on="0"/>
        <pt x="514" y="299" on="0"/>
      </contour>
      <contour>
        <pt x="356" y="-40" on="1"/>
        <pt x="273" y="-190" on="1"/>
        <pt x="209" y="-190" on="1"/>
        <pt x="255" y="-40" on="1"/>
      </contour>
    </TTGlyph>
    <TTGlyph name="Sigma" xMin="54" yMin="0" xMax="530" yMax="649">
      <contour>
        <pt x="520" y="649" on="1"/>
        <pt x="520" y="581" on="1"/>
        <pt x="144" y="581" on="1"/>
        <pt x="387" y="376" on="1"/>
        <pt x="387" y="298" on="1"/>
        <pt x="142" y="68" on="1"/>
        <pt x="530" y="68" on="1"/>
        <pt x="530" y="0" on="1"/>
        <pt x="54" y="0" on="1"/>
        <pt x="54" y="90" on="1"/>
        <pt x="305" y="336" on="1"/>
        <pt x="54" y="551" on="1"/>
        <pt x="54" y="649" on="1"/>
      </contour>
    </TTGlyph>
    <TTGlyph name="T" xMin="24" yMin="0" xMax="561" yMax="649">
      <contour>
        <pt x="561" y="581" on="1"/>
        <pt x="342" y="581" on="1"/>
        <pt x="342" y="0" on="1"/>
        <pt x="244" y="0" on="1"/>
        <pt x="244" y="581" on="1"/>
        <pt x="24" y="581" on="1"/>
        <pt x="24" y="649" on="1"/>
        <pt x="561" y="649" on="1"/>
      </contour>
    </TTGlyph>
    <TTGlyph name="Tau" xMin="24" yMin="0" xMax="561" yMax="649">
      <contour>
        <pt x="561" y="581" on="1"/>
        <pt x="342" y="581" on="1"/>
        <pt x="342" y="0" on="1"/>
        <pt x="244" y="0" on="1"/>
        <pt x="244" y="581" on="1"/>
        <pt x="24" y="581" on="1"/>
        <pt x="24" y="649" on="1"/>
        <pt x="561" y="649" on="1"/>
      </contour>
    </TTGlyph>
    <TTGlyph name="Tbar" xMin="24" yMin="0" xMax="561" yMax="649">
      <contour>
        <pt x="561" y="581" on="1"/>
        <pt x="342" y="581" on="1"/>
        <pt x="342" y="369" on="1"/>
        <pt x="442" y="369" on="1"/>
        <pt x="442" y="301" on="1"/>
        <pt x="342" y="301" on="1"/>
        <pt x="342" y="0" on="1"/>
        <pt x="244" y="0" on="1"/>
        <pt x="244" y="301" on="1"/>
        <pt x="144" y="301" on="1"/>
        <pt x="144" y="369" on="1"/>
        <pt x="244" y="369" on="1"/>
        <pt x="244" y="581" on="1"/>
        <pt x="24" y="581" on="1"/>
        <pt x="24" y="649" on="1"/>
        <pt x="561" y="649" on="1"/>
      </contour>
    </TTGlyph>
    <TTGlyph name="Tcaron" xMin="24" yMin="0" xMax="561" yMax="830">
      <contour>
        <pt x="561" y="581" on="1"/>
        <pt x="342" y="581" on="1"/>
        <pt x="342" y="0" on="1"/>
        <pt x="244" y="0" on="1"/>
        <pt x="244" y="581" on="1"/>
        <pt x="24" y="581" on="1"/>
        <pt x="24" y="649" on="1"/>
        <pt x="561" y="649" on="1"/>
      </contour>
      <contour>
        <pt x="241" y="703" on="1"/>
        <pt x="173" y="830" on="1"/>
        <pt x="231" y="830" on="1"/>
        <pt x="294" y="743" on="1"/>
        <pt x="356" y="830" on="1"/>
        <pt x="414" y="830" on="1"/>
        <pt x="348" y="703" on="1"/>
      </contour>
    </TTGlyph>
    <TTGlyph name="Tcommaaccent" xMin="24" yMin="-190" xMax="561" yMax="649">
      <contour>
        <pt x="561" y="581" on="1"/>
        <pt x="342" y="581" on="1"/>
        <pt x="342" y="0" on="1"/>
        <pt x="244" y="0" on="1"/>
        <pt x="244" y="581" on="1"/>
        <pt x="24" y="581" on="1"/>
        <pt x="24" y="649" on="1"/>
        <pt x="561" y="649" on="1"/>
      </contour>
      <contour>
        <pt x="350" y="-40" on="1"/>
        <pt x="267" y="-190" on="1"/>
        <pt x="203" y="-190" on="1"/>
        <pt x="249" y="-40" on="1"/>
      </contour>
    </TTGlyph>
    <TTGlyph name="Theta" xMin="66" yMin="-10" xMax="613" yMax="659">
      <contour>
        <pt x="214" y="294" on="1"/>
        <pt x="214" y="354" on="1"/>
        <pt x="463" y="354" on="1"/>
        <pt x="463" y="294" on="1"/>
      </contour>
      <contour>
        <pt x="613" y="474" on="1"/>
        <pt x="613" y="166" on="1"/>
        <pt x="613" y="113" on="0"/>
        <pt x="562" y="39" on="0"/>
        <pt x="474" y="4" on="0"/>
        <pt x="388" y="-10" on="0"/>
        <pt x="338" y="-10" on="1"/>
        <pt x="66" y="-10" on="0"/>
        <pt x="66" y="166" on="1"/>
        <pt x="66" y="473" on="1"/>
        <pt x="66" y="659" on="0"/>
        <pt x="338" y="659" on="1"/>
        <pt x="613" y="659" on="0"/>
      </contour>
      <contour>
        <pt x="519" y="167" on="1"/>
        <pt x="519" y="476" on="1"/>
        <pt x="519" y="596" on="0"/>
        <pt x="339" y="596" on="1"/>
        <pt x="301" y="596" on="0"/>
        <pt x="243" y="587" on="0"/>
        <pt x="189" y="562" on="0"/>
        <pt x="159" y="513" on="0"/>
        <pt x="159" y="476" on="1"/>
        <pt x="159" y="167" on="1"/>
        <pt x="159" y="55" on="0"/>
        <pt x="340" y="55" on="1"/>
        <pt x="519" y="55" on="0"/>
      </contour>
    </TTGlyph>
    <TTGlyph name="Thorn" xMin="84" yMin="0" xMax="525" yMax="649">
      <contour>
        <pt x="181" y="473" on="1"/>
        <pt x="181" y="180" on="1"/>
        <pt x="291" y="180" on="1"/>
        <pt x="349" y="180" on="0"/>
        <pt x="430" y="223" on="0"/>
        <pt x="430" y="276" on="1"/>
        <pt x="430" y="394" on="1"/>
        <pt x="430" y="421" on="0"/>
        <pt x="402" y="456" on="0"/>
        <pt x="350" y="470" on="0"/>
        <pt x="315" y="473" on="0"/>
        <pt x="289" y="473" on="1"/>
      </contour>
      <contour>
        <pt x="181" y="0" on="1"/>
        <pt x="84" y="0" on="1"/>
        <pt x="84" y="649" on="1"/>
        <pt x="181" y="649" on="1"/>
        <pt x="181" y="534" on="1"/>
        <pt x="296" y="534" on="1"/>
        <pt x="336" y="534" on="0"/>
        <pt x="394" y="530" on="0"/>
        <pt x="459" y="515" on="0"/>
        <pt x="498" y="488" on="0"/>
        <pt x="525" y="440" on="0"/>
        <pt x="525" y="406" on="1"/>
        <pt x="525" y="271" on="1"/>
        <pt x="525" y="188" on="0"/>
        <pt x="396" y="119" on="0"/>
        <pt x="278" y="119" on="1"/>
        <pt x="181" y="119" on="1"/>
      </contour>
    </TTGlyph>
    <TTGlyph name="U" xMin="84" yMin="-10" xMax="591" yMax="649">
      <contour>
        <pt x="591" y="649" on="1"/>
        <pt x="591" y="166" on="1"/>
        <pt x="591" y="-10" on="0"/>
        <pt x="337" y="-10" on="1"/>
        <pt x="286" y="-10" on="0"/>
        <pt x="206" y="3" on="0"/>
        <pt x="128" y="38" on="0"/>
        <pt x="84" y="112" on="0"/>
        <pt x="84" y="166" on="1"/>
        <pt x="84" y="649" on="1"/>
        <pt x="177" y="649" on="1"/>
        <pt x="177" y="167" on="1"/>
        <pt x="177" y="103" on="0"/>
        <pt x="263" y="55" on="0"/>
        <pt x="415" y="55" on="0"/>
        <pt x="498" y="103" on="0"/>
        <pt x="498" y="167" on="1"/>
        <pt x="498" y="649" on="1"/>
      </contour>
    </TTGlyph>
    <TTGlyph name="Uacute" xMin="84" yMin="-10" xMax="591" yMax="830">
      <contour>
        <pt x="591" y="649" on="1"/>
        <pt x="591" y="166" on="1"/>
        <pt x="591" y="-10" on="0"/>
        <pt x="337" y="-10" on="1"/>
        <pt x="286" y="-10" on="0"/>
        <pt x="206" y="3" on="0"/>
        <pt x="128" y="38" on="0"/>
        <pt x="84" y="112" on="0"/>
        <pt x="84" y="166" on="1"/>
        <pt x="84" y="649" on="1"/>
        <pt x="177" y="649" on="1"/>
        <pt x="177" y="167" on="1"/>
        <pt x="177" y="103" on="0"/>
        <pt x="263" y="55" on="0"/>
        <pt x="415" y="55" on="0"/>
        <pt x="498" y="103" on="0"/>
        <pt x="498" y="167" on="1"/>
        <pt x="498" y="649" on="1"/>
      </contour>
      <contour>
        <pt x="460" y="830" on="1"/>
        <pt x="335" y="703" on="1"/>
        <pt x="261" y="703" on="1"/>
        <pt x="351" y="830" on="1"/>
      </contour>
    </TTGlyph>
    <TTGlyph name="Ubreve" xMin="84" yMin="-10" xMax="591" yMax="845">
      <contour>
        <pt x="591" y="649" on="1"/>
        <pt x="591" y="166" on="1"/>
        <pt x="591" y="-10" on="0"/>
        <pt x="337" y="-10" on="1"/>
        <pt x="286" y="-10" on="0"/>
        <pt x="206" y="3" on="0"/>
        <pt x="128" y="38" on="0"/>
        <pt x="84" y="112" on="0"/>
        <pt x="84" y="166" on="1"/>
        <pt x="84" y="649" on="1"/>
        <pt x="177" y="649" on="1"/>
        <pt x="177" y="167" on="1"/>
        <pt x="177" y="103" on="0"/>
        <pt x="263" y="55" on="0"/>
        <pt x="415" y="55" on="0"/>
        <pt x="498" y="103" on="0"/>
        <pt x="498" y="167" on="1"/>
        <pt x="498" y="649" on="1"/>
      </contour>
      <contour>
        <pt x="392" y="718" on="0"/>
        <pt x="284" y="718" on="0"/>
        <pt x="222" y="787" on="0"/>
        <pt x="220" y="845" on="1"/>
        <pt x="274" y="845" on="1"/>
        <pt x="280" y="777" on="0"/>
        <pt x="396" y="777" on="0"/>
        <pt x="402" y="845" on="1"/>
        <pt x="456" y="845" on="1"/>
        <pt x="454" y="787" on="0"/>
      </contour>
    </TTGlyph>
    <TTGlyph name="Ucircumflex" xMin="84" yMin="-10" xMax="591" yMax="830">
      <contour>
        <pt x="591" y="649" on="1"/>
        <pt x="591" y="166" on="1"/>
        <pt x="591" y="-10" on="0"/>
        <pt x="337" y="-10" on="1"/>
        <pt x="286" y="-10" on="0"/>
        <pt x="206" y="3" on="0"/>
        <pt x="128" y="38" on="0"/>
        <pt x="84" y="112" on="0"/>
        <pt x="84" y="166" on="1"/>
        <pt x="84" y="649" on="1"/>
        <pt x="177" y="649" on="1"/>
        <pt x="177" y="167" on="1"/>
        <pt x="177" y="103" on="0"/>
        <pt x="263" y="55" on="0"/>
        <pt x="415" y="55" on="0"/>
        <pt x="498" y="103" on="0"/>
        <pt x="498" y="167" on="1"/>
        <pt x="498" y="649" on="1"/>
      </contour>
      <contour>
        <pt x="211" y="703" on="1"/>
        <pt x="279" y="830" on="1"/>
        <pt x="386" y="830" on="1"/>
        <pt x="452" y="703" on="1"/>
        <pt x="394" y="703" on="1"/>
        <pt x="332" y="790" on="1"/>
        <pt x="269" y="703" on="1"/>
      </contour>
    </TTGlyph>
    <TTGlyph name="Udieresis" xMin="84" yMin="-10" xMax="591" yMax="809">
      <contour>
        <pt x="591" y="649" on="1"/>
        <pt x="591" y="166" on="1"/>
        <pt x="591" y="-10" on="0"/>
        <pt x="337" y="-10" on="1"/>
        <pt x="286" y="-10" on="0"/>
        <pt x="206" y="3" on="0"/>
        <pt x="128" y="38" on="0"/>
        <pt x="84" y="112" on="0"/>
        <pt x="84" y="166" on="1"/>
        <pt x="84" y="649" on="1"/>
        <pt x="177" y="649" on="1"/>
        <pt x="177" y="167" on="1"/>
        <pt x="177" y="103" on="0"/>
        <pt x="263" y="55" on="0"/>
        <pt x="415" y="55" on="0"/>
        <pt x="498" y="103" on="0"/>
        <pt x="498" y="167" on="1"/>
        <pt x="498" y="649" on="1"/>
      </contour>
      <contour>
        <pt x="291" y="715" on="1"/>
        <pt x="201" y="715" on="1"/>
        <pt x="201" y="809" on="1"/>
        <pt x="291" y="809" on="1"/>
      </contour>
      <contour>
        <pt x="461" y="715" on="1"/>
        <pt x="371" y="715" on="1"/>
        <pt x="371" y="809" on="1"/>
        <pt x="461" y="809" on="1"/>
      </contour>
    </TTGlyph>
    <TTGlyph name="Ugrave" xMin="84" yMin="-10" xMax="591" yMax="830">
      <contour>
        <pt x="591" y="649" on="1"/>
        <pt x="591" y="166" on="1"/>
        <pt x="591" y="-10" on="0"/>
        <pt x="337" y="-10" on="1"/>
        <pt x="286" y="-10" on="0"/>
        <pt x="206" y="3" on="0"/>
        <pt x="128" y="38" on="0"/>
        <pt x="84" y="112" on="0"/>
        <pt x="84" y="166" on="1"/>
        <pt x="84" y="649" on="1"/>
        <pt x="177" y="649" on="1"/>
        <pt x="177" y="167" on="1"/>
        <pt x="177" y="103" on="0"/>
        <pt x="263" y="55" on="0"/>
        <pt x="415" y="55" on="0"/>
        <pt x="498" y="103" on="0"/>
        <pt x="498" y="167" on="1"/>
        <pt x="498" y="649" on="1"/>
      </contour>
      <contour>
        <pt x="400" y="703" on="1"/>
        <pt x="326" y="703" on="1"/>
        <pt x="201" y="830" on="1"/>
        <pt x="310" y="830" on="1"/>
      </contour>
    </TTGlyph>
    <TTGlyph name="Uhungarumlaut" xMin="84" yMin="-10" xMax="591" yMax="831">
      <contour>
        <pt x="591" y="649" on="1"/>
        <pt x="591" y="166" on="1"/>
        <pt x="591" y="-10" on="0"/>
        <pt x="337" y="-10" on="1"/>
        <pt x="286" y="-10" on="0"/>
        <pt x="206" y="3" on="0"/>
        <pt x="128" y="38" on="0"/>
        <pt x="84" y="112" on="0"/>
        <pt x="84" y="166" on="1"/>
        <pt x="84" y="649" on="1"/>
        <pt x="177" y="649" on="1"/>
        <pt x="177" y="167" on="1"/>
        <pt x="177" y="103" on="0"/>
        <pt x="263" y="55" on="0"/>
        <pt x="415" y="55" on="0"/>
        <pt x="498" y="103" on="0"/>
        <pt x="498" y="167" on="1"/>
        <pt x="498" y="649" on="1"/>
      </contour>
      <contour>
        <pt x="285" y="703" on="1"/>
        <pt x="209" y="703" on="1"/>
        <pt x="279" y="831" on="1"/>
        <pt x="355" y="831" on="1"/>
      </contour>
      <contour>
        <pt x="412" y="703" on="1"/>
        <pt x="336" y="703" on="1"/>
        <pt x="406" y="831" on="1"/>
        <pt x="482" y="831" on="1"/>
      </contour>
    </TTGlyph>
    <TTGlyph name="Umacron" xMin="84" yMin="-10" xMax="591" yMax="798">
      <contour>
        <pt x="591" y="649" on="1"/>
        <pt x="591" y="166" on="1"/>
        <pt x="591" y="-10" on="0"/>
        <pt x="337" y="-10" on="1"/>
        <pt x="286" y="-10" on="0"/>
        <pt x="206" y="3" on="0"/>
        <pt x="128" y="38" on="0"/>
        <pt x="84" y="112" on="0"/>
        <pt x="84" y="166" on="1"/>
        <pt x="84" y="649" on="1"/>
        <pt x="177" y="649" on="1"/>
        <pt x="177" y="167" on="1"/>
        <pt x="177" y="103" on="0"/>
        <pt x="263" y="55" on="0"/>
        <pt x="415" y="55" on="0"/>
        <pt x="498" y="103" on="0"/>
        <pt x="498" y="167" on="1"/>
        <pt x="498" y="649" on="1"/>
      </contour>
      <contour>
        <pt x="443" y="739" on="1"/>
        <pt x="225" y="739" on="1"/>
        <pt x="225" y="798" on="1"/>
        <pt x="443" y="798" on="1"/>
      </contour>
    </TTGlyph>
    <TTGlyph name="Uogonek" xMin="84" yMin="-186" xMax="591" yMax="649">
      <contour>
        <pt x="379" y="-186" on="1"/>
        <pt x="330" y="-186" on="0"/>
        <pt x="280" y="-149" on="0"/>
        <pt x="280" y="-106" on="1"/>
        <pt x="280" y="-60" on="0"/>
        <pt x="310" y="-9" on="1"/>
        <pt x="84" y="-1" on="0"/>
        <pt x="84" y="166" on="1"/>
        <pt x="84" y="649" on="1"/>
        <pt x="177" y="649" on="1"/>
        <pt x="177" y="167" on="1"/>
        <pt x="177" y="103" on="0"/>
        <pt x="263" y="55" on="0"/>
        <pt x="415" y="55" on="0"/>
        <pt x="498" y="103" on="0"/>
        <pt x="498" y="167" on="1"/>
        <pt x="498" y="649" on="1"/>
        <pt x="591" y="649" on="1"/>
        <pt x="591" y="166" on="1"/>
        <pt x="591" y="8" on="0"/>
        <pt x="385" y="-8" on="1"/>
        <pt x="359" y="-53" on="0"/>
        <pt x="359" y="-97" on="1"/>
        <pt x="359" y="-130" on="0"/>
        <pt x="398" y="-130" on="1"/>
        <pt x="406" y="-130" on="0"/>
        <pt x="429" y="-123" on="1"/>
        <pt x="429" y="-176" on="1"/>
        <pt x="408" y="-186" on="0"/>
      </contour>
    </TTGlyph>
    <TTGlyph name="Upsilon" xMin="8" yMin="0" xMax="576" yMax="649">
      <contour>
        <pt x="576" y="649" on="1"/>
        <pt x="340" y="265" on="1"/>
        <pt x="340" y="0" on="1"/>
        <pt x="243" y="0" on="1"/>
        <pt x="243" y="262" on="1"/>
        <pt x="8" y="649" on="1"/>
        <pt x="119" y="649" on="1"/>
        <pt x="292" y="344" on="1"/>
        <pt x="465" y="649" on="1"/>
      </contour>
    </TTGlyph>
    <TTGlyph name="Upsilondieresis" xMin="8" yMin="0" xMax="576" yMax="789">
      <contour>
        <pt x="576" y="649" on="1"/>
        <pt x="340" y="265" on="1"/>
        <pt x="340" y="0" on="1"/>
        <pt x="243" y="0" on="1"/>
        <pt x="243" y="262" on="1"/>
        <pt x="8" y="649" on="1"/>
        <pt x="119" y="649" on="1"/>
        <pt x="292" y="344" on="1"/>
        <pt x="465" y="649" on="1"/>
      </contour>
      <contour>
        <pt x="254" y="695" on="1"/>
        <pt x="164" y="695" on="1"/>
        <pt x="164" y="789" on="1"/>
        <pt x="254" y="789" on="1"/>
      </contour>
      <contour>
        <pt x="424" y="695" on="1"/>
        <pt x="334" y="695" on="1"/>
        <pt x="334" y="789" on="1"/>
        <pt x="424" y="789" on="1"/>
      </contour>
    </TTGlyph>
    <TTGlyph name="Upsilontonos" xMin="48" yMin="0" xMax="777" yMax="659">
      <contour>
        <pt x="777" y="649" on="1"/>
        <pt x="541" y="265" on="1"/>
        <pt x="541" y="0" on="1"/>
        <pt x="444" y="0" on="1"/>
        <pt x="444" y="262" on="1"/>
        <pt x="209" y="649" on="1"/>
        <pt x="320" y="649" on="1"/>
        <pt x="493" y="344" on="1"/>
        <pt x="666" y="649" on="1"/>
      </contour>
      <contour>
        <pt x="127" y="489" on="1"/>
        <pt x="77" y="489" on="1"/>
        <pt x="48" y="659" on="1"/>
        <pt x="156" y="659" on="1"/>
      </contour>
    </TTGlyph>
    <TTGlyph name="Uring" xMin="84" yMin="-10" xMax="591" yMax="917">
      <contour>
        <pt x="591" y="649" on="1"/>
        <pt x="591" y="166" on="1"/>
        <pt x="591" y="-10" on="0"/>
        <pt x="337" y="-10" on="1"/>
        <pt x="286" y="-10" on="0"/>
        <pt x="206" y="3" on="0"/>
        <pt x="128" y="38" on="0"/>
        <pt x="84" y="112" on="0"/>
        <pt x="84" y="166" on="1"/>
        <pt x="84" y="649" on="1"/>
        <pt x="177" y="649" on="1"/>
        <pt x="177" y="167" on="1"/>
        <pt x="177" y="103" on="0"/>
        <pt x="263" y="55" on="0"/>
        <pt x="415" y="55" on="0"/>
        <pt x="498" y="103" on="0"/>
        <pt x="498" y="167" on="1"/>
        <pt x="498" y="649" on="1"/>
      </contour>
      <contour>
        <pt x="478" y="813" on="1"/>
        <pt x="478" y="801" on="1"/>
        <pt x="478" y="767" on="0"/>
        <pt x="461" y="726" on="0"/>
        <pt x="420" y="708" on="0"/>
        <pt x="380" y="703" on="0"/>
        <pt x="308" y="703" on="0"/>
        <pt x="269" y="708" on="0"/>
        <pt x="228" y="726" on="0"/>
        <pt x="211" y="767" on="0"/>
        <pt x="211" y="801" on="1"/>
        <pt x="211" y="813" on="1"/>
        <pt x="211" y="849" on="0"/>
        <pt x="228" y="893" on="0"/>
        <pt x="269" y="912" on="0"/>
        <pt x="308" y="917" on="0"/>
        <pt x="344" y="917" on="1"/>
        <pt x="372" y="917" on="0"/>
        <pt x="406" y="914" on="0"/>
        <pt x="444" y="903" on="0"/>
        <pt x="464" y="882" on="0"/>
        <pt x="478" y="842" on="0"/>
      </contour>
      <contour>
        <pt x="415" y="794" on="1"/>
        <pt x="415" y="821" on="1"/>
        <pt x="415" y="857" on="0"/>
        <pt x="385" y="875" on="0"/>
        <pt x="303" y="875" on="0"/>
        <pt x="274" y="857" on="0"/>
        <pt x="274" y="821" on="1"/>
        <pt x="274" y="794" on="1"/>
        <pt x="274" y="761" on="0"/>
        <pt x="303" y="745" on="0"/>
        <pt x="385" y="745" on="0"/>
        <pt x="415" y="761" on="0"/>
      </contour>
    </TTGlyph>
    <TTGlyph name="Utilde" xMin="84" yMin="-10" xMax="591" yMax="817">
      <contour>
        <pt x="591" y="649" on="1"/>
        <pt x="591" y="166" on="1"/>
        <pt x="591" y="-10" on="0"/>
        <pt x="337" y="-10" on="1"/>
        <pt x="286" y="-10" on="0"/>
        <pt x="206" y="3" on="0"/>
        <pt x="128" y="38" on="0"/>
        <pt x="84" y="112" on="0"/>
        <pt x="84" y="166" on="1"/>
        <pt x="84" y="649" on="1"/>
        <pt x="177" y="649" on="1"/>
        <pt x="177" y="167" on="1"/>
        <pt x="177" y="103" on="0"/>
        <pt x="263" y="55" on="0"/>
        <pt x="415" y="55" on="0"/>
        <pt x="498" y="103" on="0"/>
        <pt x="498" y="167" on="1"/>
        <pt x="498" y="649" on="1"/>
      </contour>
      <contour>
        <pt x="275" y="808" on="1"/>
        <pt x="299" y="808" on="0"/>
        <pt x="381" y="774" on="0"/>
        <pt x="400" y="774" on="1"/>
        <pt x="422" y="774" on="0"/>
        <pt x="450" y="795" on="0"/>
        <pt x="465" y="817" on="1"/>
        <pt x="465" y="748" on="1"/>
        <pt x="442" y="709" on="0"/>
        <pt x="400" y="709" on="1"/>
        <pt x="374" y="709" on="0"/>
        <pt x="294" y="745" on="0"/>
        <pt x="275" y="745" on="1"/>
        <pt x="235" y="745" on="0"/>
        <pt x="210" y="706" on="1"/>
        <pt x="210" y="779" on="1"/>
        <pt x="234" y="808" on="0"/>
      </contour>
    </TTGlyph>
    <TTGlyph name="V" xMin="15" yMin="0" xMax="637" yMax="649">
      <contour>
        <pt x="637" y="649" on="1"/>
        <pt x="379" y="0" on="1"/>
        <pt x="267" y="0" on="1"/>
        <pt x="15" y="649" on="1"/>
        <pt x="116" y="649" on="1"/>
        <pt x="324" y="92" on="1"/>
        <pt x="333" y="92" on="1"/>
        <pt x="541" y="649" on="1"/>
      </contour>
    </TTGlyph>
    <TTGlyph name="W" xMin="8" yMin="0" xMax="960" yMax="649">
      <contour>
        <pt x="960" y="649" on="1"/>
        <pt x="751" y="0" on="1"/>
        <pt x="638" y="0" on="1"/>
        <pt x="483" y="540" on="1"/>
        <pt x="324" y="0" on="1"/>
        <pt x="211" y="0" on="1"/>
        <pt x="8" y="649" on="1"/>
        <pt x="111" y="649" on="1"/>
        <pt x="272" y="92" on="1"/>
        <pt x="274" y="92" on="1"/>
        <pt x="435" y="649" on="1"/>
        <pt x="538" y="649" on="1"/>
        <pt x="699" y="92" on="1"/>
        <pt x="701" y="92" on="1"/>
        <pt x="862" y="649" on="1"/>
      </contour>
    </TTGlyph>
    <TTGlyph name="Wacute" xMin="8" yMin="0" xMax="960" yMax="830">
      <contour>
        <pt x="960" y="649" on="1"/>
        <pt x="751" y="0" on="1"/>
        <pt x="638" y="0" on="1"/>
        <pt x="483" y="540" on="1"/>
        <pt x="324" y="0" on="1"/>
        <pt x="211" y="0" on="1"/>
        <pt x="8" y="649" on="1"/>
        <pt x="111" y="649" on="1"/>
        <pt x="272" y="92" on="1"/>
        <pt x="274" y="92" on="1"/>
        <pt x="435" y="649" on="1"/>
        <pt x="538" y="649" on="1"/>
        <pt x="699" y="92" on="1"/>
        <pt x="701" y="92" on="1"/>
        <pt x="862" y="649" on="1"/>
      </contour>
      <contour>
        <pt x="629" y="830" on="1"/>
        <pt x="504" y="703" on="1"/>
        <pt x="430" y="703" on="1"/>
        <pt x="520" y="830" on="1"/>
      </contour>
    </TTGlyph>
    <TTGlyph name="Wcircumflex" xMin="8" yMin="0" xMax="960" yMax="830">
      <contour>
        <pt x="960" y="649" on="1"/>
        <pt x="751" y="0" on="1"/>
        <pt x="638" y="0" on="1"/>
        <pt x="483" y="540" on="1"/>
        <pt x="324" y="0" on="1"/>
        <pt x="211" y="0" on="1"/>
        <pt x="8" y="649" on="1"/>
        <pt x="111" y="649" on="1"/>
        <pt x="272" y="92" on="1"/>
        <pt x="274" y="92" on="1"/>
        <pt x="435" y="649" on="1"/>
        <pt x="538" y="649" on="1"/>
        <pt x="699" y="92" on="1"/>
        <pt x="701" y="92" on="1"/>
        <pt x="862" y="649" on="1"/>
      </contour>
      <contour>
        <pt x="365" y="703" on="1"/>
        <pt x="433" y="830" on="1"/>
        <pt x="540" y="830" on="1"/>
        <pt x="606" y="703" on="1"/>
        <pt x="548" y="703" on="1"/>
        <pt x="486" y="790" on="1"/>
        <pt x="423" y="703" on="1"/>
      </contour>
    </TTGlyph>
    <TTGlyph name="Wdieresis" xMin="8" yMin="0" xMax="960" yMax="829">
      <contour>
        <pt x="960" y="649" on="1"/>
        <pt x="751" y="0" on="1"/>
        <pt x="638" y="0" on="1"/>
        <pt x="483" y="540" on="1"/>
        <pt x="324" y="0" on="1"/>
        <pt x="211" y="0" on="1"/>
        <pt x="8" y="649" on="1"/>
        <pt x="111" y="649" on="1"/>
        <pt x="272" y="92" on="1"/>
        <pt x="274" y="92" on="1"/>
        <pt x="435" y="649" on="1"/>
        <pt x="538" y="649" on="1"/>
        <pt x="699" y="92" on="1"/>
        <pt x="701" y="92" on="1"/>
        <pt x="862" y="649" on="1"/>
      </contour>
      <contour>
        <pt x="443" y="735" on="1"/>
        <pt x="353" y="735" on="1"/>
        <pt x="353" y="829" on="1"/>
        <pt x="443" y="829" on="1"/>
      </contour>
      <contour>
        <pt x="613" y="735" on="1"/>
        <pt x="523" y="735" on="1"/>
        <pt x="523" y="829" on="1"/>
        <pt x="613" y="829" on="1"/>
      </contour>
    </TTGlyph>
    <TTGlyph name="Wgrave" xMin="8" yMin="0" xMax="960" yMax="830">
      <contour>
        <pt x="960" y="649" on="1"/>
        <pt x="751" y="0" on="1"/>
        <pt x="638" y="0" on="1"/>
        <pt x="483" y="540" on="1"/>
        <pt x="324" y="0" on="1"/>
        <pt x="211" y="0" on="1"/>
        <pt x="8" y="649" on="1"/>
        <pt x="111" y="649" on="1"/>
        <pt x="272" y="92" on="1"/>
        <pt x="274" y="92" on="1"/>
        <pt x="435" y="649" on="1"/>
        <pt x="538" y="649" on="1"/>
        <pt x="699" y="92" on="1"/>
        <pt x="701" y="92" on="1"/>
        <pt x="862" y="649" on="1"/>
      </contour>
      <contour>
        <pt x="523" y="703" on="1"/>
        <pt x="449" y="703" on="1"/>
        <pt x="324" y="830" on="1"/>
        <pt x="433" y="830" on="1"/>
      </contour>
    </TTGlyph>
    <TTGlyph name="X" xMin="8" yMin="0" xMax="596" yMax="649">
      <contour>
        <pt x="596" y="0" on="1"/>
        <pt x="485" y="0" on="1"/>
        <pt x="302" y="264" on="1"/>
        <pt x="119" y="0" on="1"/>
        <pt x="8" y="0" on="1"/>
        <pt x="247" y="331" on="1"/>
        <pt x="18" y="649" on="1"/>
        <pt x="129" y="649" on="1"/>
        <pt x="302" y="398" on="1"/>
        <pt x="475" y="649" on="1"/>
        <pt x="586" y="649" on="1"/>
        <pt x="357" y="331" on="1"/>
      </contour>
    </TTGlyph>
    <TTGlyph name="Xi" xMin="50" yMin="0" xMax="580" yMax="649">
      <contour>
        <pt x="50" y="0" on="1"/>
        <pt x="50" y="72" on="1"/>
        <pt x="580" y="72" on="1"/>
        <pt x="580" y="0" on="1"/>
      </contour>
      <contour>
        <pt x="50" y="577" on="1"/>
        <pt x="50" y="649" on="1"/>
        <pt x="580" y="649" on="1"/>
        <pt x="580" y="577" on="1"/>
      </contour>
      <contour>
        <pt x="120" y="299" on="1"/>
        <pt x="120" y="371" on="1"/>
        <pt x="510" y="371" on="1"/>
        <pt x="510" y="299" on="1"/>
      </contour>
    </TTGlyph>
    <TTGlyph name="Y" xMin="8" yMin="0" xMax="576" yMax="649">
      <contour>
        <pt x="576" y="649" on="1"/>
        <pt x="340" y="265" on="1"/>
        <pt x="340" y="0" on="1"/>
        <pt x="243" y="0" on="1"/>
        <pt x="243" y="262" on="1"/>
        <pt x="8" y="649" on="1"/>
        <pt x="119" y="649" on="1"/>
        <pt x="292" y="344" on="1"/>
        <pt x="465" y="649" on="1"/>
      </contour>
    </TTGlyph>
    <TTGlyph name="Yacute" xMin="8" yMin="0" xMax="576" yMax="830">
      <contour>
        <pt x="576" y="649" on="1"/>
        <pt x="340" y="265" on="1"/>
        <pt x="340" y="0" on="1"/>
        <pt x="243" y="0" on="1"/>
        <pt x="243" y="262" on="1"/>
        <pt x="8" y="649" on="1"/>
        <pt x="119" y="649" on="1"/>
        <pt x="292" y="344" on="1"/>
        <pt x="465" y="649" on="1"/>
      </contour>
      <contour>
        <pt x="419" y="830" on="1"/>
        <pt x="294" y="703" on="1"/>
        <pt x="220" y="703" on="1"/>
        <pt x="310" y="830" on="1"/>
      </contour>
    </TTGlyph>
    <TTGlyph name="Ycircumflex" xMin="8" yMin="0" xMax="576" yMax="830">
      <contour>
        <pt x="576" y="649" on="1"/>
        <pt x="340" y="265" on="1"/>
        <pt x="340" y="0" on="1"/>
        <pt x="243" y="0" on="1"/>
        <pt x="243" y="262" on="1"/>
        <pt x="8" y="649" on="1"/>
        <pt x="119" y="649" on="1"/>
        <pt x="292" y="344" on="1"/>
        <pt x="465" y="649" on="1"/>
      </contour>
      <contour>
        <pt x="172" y="703" on="1"/>
        <pt x="240" y="830" on="1"/>
        <pt x="347" y="830" on="1"/>
        <pt x="413" y="703" on="1"/>
        <pt x="355" y="703" on="1"/>
        <pt x="293" y="790" on="1"/>
        <pt x="230" y="703" on="1"/>
      </contour>
    </TTGlyph>
    <TTGlyph name="Ydieresis" xMin="8" yMin="0" xMax="576" yMax="809">
      <contour>
        <pt x="576" y="649" on="1"/>
        <pt x="340" y="265" on="1"/>
        <pt x="340" y="0" on="1"/>
        <pt x="243" y="0" on="1"/>
        <pt x="243" y="262" on="1"/>
        <pt x="8" y="649" on="1"/>
        <pt x="119" y="649" on="1"/>
        <pt x="292" y="344" on="1"/>
        <pt x="465" y="649" on="1"/>
      </contour>
      <contour>
        <pt x="250" y="715" on="1"/>
        <pt x="160" y="715" on="1"/>
        <pt x="160" y="809" on="1"/>
        <pt x="250" y="809" on="1"/>
      </contour>
      <contour>
        <pt x="420" y="715" on="1"/>
        <pt x="330" y="715" on="1"/>
        <pt x="330" y="809" on="1"/>
        <pt x="420" y="809" on="1"/>
      </contour>
    </TTGlyph>
    <TTGlyph name="Ygrave" xMin="8" yMin="0" xMax="576" yMax="830">
      <contour>
        <pt x="576" y="649" on="1"/>
        <pt x="340" y="265" on="1"/>
        <pt x="340" y="0" on="1"/>
        <pt x="243" y="0" on="1"/>
        <pt x="243" y="262" on="1"/>
        <pt x="8" y="649" on="1"/>
        <pt x="119" y="649" on="1"/>
        <pt x="292" y="344" on="1"/>
        <pt x="465" y="649" on="1"/>
      </contour>
      <contour>
        <pt x="359" y="703" on="1"/>
        <pt x="285" y="703" on="1"/>
        <pt x="160" y="830" on="1"/>
        <pt x="269" y="830" on="1"/>
      </contour>
    </TTGlyph>
    <TTGlyph name="Z" xMin="40" yMin="0" xMax="540" yMax="649">
      <contour>
        <pt x="540" y="0" on="1"/>
        <pt x="40" y="0" on="1"/>
        <pt x="40" y="68" on="1"/>
        <pt x="422" y="581" on="1"/>
        <pt x="50" y="581" on="1"/>
        <pt x="50" y="649" on="1"/>
        <pt x="534" y="649" on="1"/>
        <pt x="534" y="581" on="1"/>
        <pt x="152" y="68" on="1"/>
        <pt x="540" y="68" on="1"/>
      </contour>
    </TTGlyph>
    <TTGlyph name="Zacute" xMin="40" yMin="0" xMax="540" yMax="830">
      <contour>
        <pt x="540" y="0" on="1"/>
        <pt x="40" y="0" on="1"/>
        <pt x="40" y="68" on="1"/>
        <pt x="422" y="581" on="1"/>
        <pt x="50" y="581" on="1"/>
        <pt x="50" y="649" on="1"/>
        <pt x="534" y="649" on="1"/>
        <pt x="534" y="581" on="1"/>
        <pt x="152" y="68" on="1"/>
        <pt x="540" y="68" on="1"/>
      </contour>
      <contour>
        <pt x="412" y="830" on="1"/>
        <pt x="287" y="703" on="1"/>
        <pt x="213" y="703" on="1"/>
        <pt x="303" y="830" on="1"/>
      </contour>
    </TTGlyph>
    <TTGlyph name="Zcaron" xMin="40" yMin="0" xMax="540" yMax="830">
      <contour>
        <pt x="540" y="0" on="1"/>
        <pt x="40" y="0" on="1"/>
        <pt x="40" y="68" on="1"/>
        <pt x="422" y="581" on="1"/>
        <pt x="50" y="581" on="1"/>
        <pt x="50" y="649" on="1"/>
        <pt x="534" y="649" on="1"/>
        <pt x="534" y="581" on="1"/>
        <pt x="152" y="68" on="1"/>
        <pt x="540" y="68" on="1"/>
      </contour>
      <contour>
        <pt x="228" y="703" on="1"/>
        <pt x="160" y="830" on="1"/>
        <pt x="218" y="830" on="1"/>
        <pt x="281" y="743" on="1"/>
        <pt x="343" y="830" on="1"/>
        <pt x="401" y="830" on="1"/>
        <pt x="335" y="703" on="1"/>
      </contour>
    </TTGlyph>
    <TTGlyph name="Zdotaccent" xMin="40" yMin="0" xMax="540" yMax="830">
      <contour>
        <pt x="540" y="0" on="1"/>
        <pt x="40" y="0" on="1"/>
        <pt x="40" y="68" on="1"/>
        <pt x="422" y="581" on="1"/>
        <pt x="50" y="581" on="1"/>
        <pt x="50" y="649" on="1"/>
        <pt x="534" y="649" on="1"/>
        <pt x="534" y="581" on="1"/>
        <pt x="152" y="68" on="1"/>
        <pt x="540" y="68" on="1"/>
      </contour>
      <contour>
        <pt x="327" y="732" on="1"/>
        <pt x="237" y="732" on="1"/>
        <pt x="237" y="830" on="1"/>
        <pt x="327" y="830" on="1"/>
      </contour>
    </TTGlyph>
    <TTGlyph name="Zeta" xMin="40" yMin="0" xMax="540" yMax="649">
      <contour>
        <pt x="540" y="0" on="1"/>
        <pt x="40" y="0" on="1"/>
        <pt x="40" y="68" on="1"/>
        <pt x="422" y="581" on="1"/>
        <pt x="50" y="581" on="1"/>
        <pt x="50" y="649" on="1"/>
        <pt x="534" y="649" on="1"/>
        <pt x="534" y="581" on="1"/>
        <pt x="152" y="68" on="1"/>
        <pt x="540" y="68" on="1"/>
      </contour>
    </TTGlyph>
    <TTGlyph name="a" xMin="50" yMin="-10" xMax="460" yMax="494">
      <contour>
        <pt x="460" y="0" on="1"/>
        <pt x="373" y="0" on="1"/>
        <pt x="373" y="46" on="1"/>
        <pt x="362" y="-10" on="0"/>
        <pt x="227" y="-10" on="1"/>
        <pt x="127" y="-10" on="0"/>
        <pt x="50" y="51" on="0"/>
        <pt x="50" y="144" on="1"/>
        <pt x="50" y="225" on="0"/>
        <pt x="122" y="286" on="0"/>
        <pt x="225" y="286" on="1"/>
        <pt x="370" y="286" on="1"/>
        <pt x="370" y="363" on="1"/>
        <pt x="370" y="403" on="0"/>
        <pt x="321" y="431" on="0"/>
        <pt x="253" y="431" on="1"/>
        <pt x="179" y="431" on="0"/>
        <pt x="87" y="419" on="1"/>
        <pt x="87" y="485" on="1"/>
        <pt x="186" y="494" on="0"/>
        <pt x="266" y="494" on="1"/>
        <pt x="388" y="494" on="0"/>
        <pt x="460" y="435" on="0"/>
        <pt x="460" y="342" on="1"/>
      </contour>
      <contour>
        <pt x="370" y="98" on="1"/>
        <pt x="370" y="230" on="1"/>
        <pt x="231" y="230" on="1"/>
        <pt x="169" y="230" on="0"/>
        <pt x="138" y="198" on="0"/>
        <pt x="138" y="141" on="1"/>
        <pt x="138" y="90" on="0"/>
        <pt x="171" y="49" on="0"/>
        <pt x="224" y="49" on="1"/>
        <pt x="242" y="49" on="1"/>
        <pt x="268" y="49" on="0"/>
        <pt x="303" y="51" on="0"/>
        <pt x="347" y="60" on="0"/>
        <pt x="370" y="81" on="0"/>
      </contour>
    </TTGlyph>
    <TTGlyph name="a.smcp" xMin="15" yMin="0" xMax="557" yMax="484">
      <contour>
        <pt x="183" y="181" on="1"/>
        <pt x="384" y="181" on="1"/>
        <pt x="288" y="413" on="1"/>
        <pt x="279" y="413" on="1"/>
      </contour>
      <contour>
        <pt x="411" y="117" on="1"/>
        <pt x="156" y="117" on="1"/>
        <pt x="108" y="0" on="1"/>
        <pt x="15" y="0" on="1"/>
        <pt x="233" y="484" on="1"/>
        <pt x="345" y="484" on="1"/>
        <pt x="557" y="0" on="1"/>
        <pt x="459" y="0" on="1"/>
      </contour>
    </TTGlyph>
    <TTGlyph name="aacute" xMin="50" yMin="-10" xMax="460" yMax="680">
      <contour>
        <pt x="460" y="0" on="1"/>
        <pt x="373" y="0" on="1"/>
        <pt x="373" y="46" on="1"/>
        <pt x="362" y="-10" on="0"/>
        <pt x="227" y="-10" on="1"/>
        <pt x="127" y="-10" on="0"/>
        <pt x="50" y="51" on="0"/>
        <pt x="50" y="144" on="1"/>
        <pt x="50" y="225" on="0"/>
        <pt x="122" y="286" on="0"/>
        <pt x="225" y="286" on="1"/>
        <pt x="370" y="286" on="1"/>
        <pt x="370" y="363" on="1"/>
        <pt x="370" y="403" on="0"/>
        <pt x="321" y="431" on="0"/>
        <pt x="253" y="431" on="1"/>
        <pt x="179" y="431" on="0"/>
        <pt x="87" y="419" on="1"/>
        <pt x="87" y="485" on="1"/>
        <pt x="186" y="494" on="0"/>
        <pt x="266" y="494" on="1"/>
        <pt x="388" y="494" on="0"/>
        <pt x="460" y="435" on="0"/>
        <pt x="460" y="342" on="1"/>
      </contour>
      <contour>
        <pt x="370" y="98" on="1"/>
        <pt x="370" y="230" on="1"/>
        <pt x="231" y="230" on="1"/>
        <pt x="169" y="230" on="0"/>
        <pt x="138" y="198" on="0"/>
        <pt x="138" y="141" on="1"/>
        <pt x="138" y="90" on="0"/>
        <pt x="171" y="49" on="0"/>
        <pt x="224" y="49" on="1"/>
        <pt x="242" y="49" on="1"/>
        <pt x="268" y="49" on="0"/>
        <pt x="303" y="51" on="0"/>
        <pt x="347" y="60" on="0"/>
        <pt x="370" y="81" on="0"/>
      </contour>
      <contour>
        <pt x="389" y="680" on="1"/>
        <pt x="264" y="553" on="1"/>
        <pt x="190" y="553" on="1"/>
        <pt x="280" y="680" on="1"/>
      </contour>
    </TTGlyph>
    <TTGlyph name="aacute.smcp" xMin="15" yMin="0" xMax="557" yMax="680">
      <contour>
        <pt x="183" y="181" on="1"/>
        <pt x="384" y="181" on="1"/>
        <pt x="288" y="413" on="1"/>
        <pt x="279" y="413" on="1"/>
      </contour>
      <contour>
        <pt x="411" y="117" on="1"/>
        <pt x="156" y="117" on="1"/>
        <pt x="108" y="0" on="1"/>
        <pt x="15" y="0" on="1"/>
        <pt x="233" y="484" on="1"/>
        <pt x="345" y="484" on="1"/>
        <pt x="557" y="0" on="1"/>
        <pt x="459" y="0" on="1"/>
      </contour>
      <contour>
        <pt x="451" y="680" on="1"/>
        <pt x="326" y="553" on="1"/>
        <pt x="252" y="553" on="1"/>
        <pt x="342" y="680" on="1"/>
      </contour>
    </TTGlyph>
    <TTGlyph name="abreve" xMin="50" yMin="-10" xMax="460" yMax="680">
      <contour>
        <pt x="460" y="0" on="1"/>
        <pt x="373" y="0" on="1"/>
        <pt x="373" y="46" on="1"/>
        <pt x="362" y="-10" on="0"/>
        <pt x="227" y="-10" on="1"/>
        <pt x="127" y="-10" on="0"/>
        <pt x="50" y="51" on="0"/>
        <pt x="50" y="144" on="1"/>
        <pt x="50" y="225" on="0"/>
        <pt x="122" y="286" on="0"/>
        <pt x="225" y="286" on="1"/>
        <pt x="370" y="286" on="1"/>
        <pt x="370" y="363" on="1"/>
        <pt x="370" y="403" on="0"/>
        <pt x="321" y="431" on="0"/>
        <pt x="253" y="431" on="1"/>
        <pt x="179" y="431" on="0"/>
        <pt x="87" y="419" on="1"/>
        <pt x="87" y="485" on="1"/>
        <pt x="186" y="494" on="0"/>
        <pt x="266" y="494" on="1"/>
        <pt x="388" y="494" on="0"/>
        <pt x="460" y="435" on="0"/>
        <pt x="460" y="342" on="1"/>
      </contour>
      <contour>
        <pt x="370" y="98" on="1"/>
        <pt x="370" y="230" on="1"/>
        <pt x="231" y="230" on="1"/>
        <pt x="169" y="230" on="0"/>
        <pt x="138" y="198" on="0"/>
        <pt x="138" y="141" on="1"/>
        <pt x="138" y="90" on="0"/>
        <pt x="171" y="49" on="0"/>
        <pt x="224" y="49" on="1"/>
        <pt x="242" y="49" on="1"/>
        <pt x="268" y="49" on="0"/>
        <pt x="303" y="51" on="0"/>
        <pt x="347" y="60" on="0"/>
        <pt x="370" y="81" on="0"/>
      </contour>
      <contour>
        <pt x="319" y="553" on="0"/>
        <pt x="211" y="553" on="0"/>
        <pt x="149" y="622" on="0"/>
        <pt x="147" y="680" on="1"/>
        <pt x="201" y="680" on="1"/>
        <pt x="207" y="612" on="0"/>
        <pt x="323" y="612" on="0"/>
        <pt x="329" y="680" on="1"/>
        <pt x="383" y="680" on="1"/>
        <pt x="381" y="622" on="0"/>
      </contour>
    </TTGlyph>
    <TTGlyph name="abreve.smcp" xMin="15" yMin="0" xMax="557" yMax="680">
      <contour>
        <pt x="183" y="181" on="1"/>
        <pt x="384" y="181" on="1"/>
        <pt x="288" y="413" on="1"/>
        <pt x="279" y="413" on="1"/>
      </contour>
      <contour>
        <pt x="411" y="117" on="1"/>
        <pt x="156" y="117" on="1"/>
        <pt x="108" y="0" on="1"/>
        <pt x="15" y="0" on="1"/>
        <pt x="233" y="484" on="1"/>
        <pt x="345" y="484" on="1"/>
        <pt x="557" y="0" on="1"/>
        <pt x="459" y="0" on="1"/>
      </contour>
      <contour>
        <pt x="345" y="553" on="0"/>
        <pt x="237" y="553" on="0"/>
        <pt x="175" y="622" on="0"/>
        <pt x="173" y="680" on="1"/>
        <pt x="227" y="680" on="1"/>
        <pt x="233" y="612" on="0"/>
        <pt x="349" y="612" on="0"/>
        <pt x="355" y="680" on="1"/>
        <pt x="409" y="680" on="1"/>
        <pt x="407" y="622" on="0"/>
      </contour>
    </TTGlyph>
    <TTGlyph name="acircumflex" xMin="50" yMin="-10" xMax="460" yMax="680">
      <contour>
        <pt x="460" y="0" on="1"/>
        <pt x="373" y="0" on="1"/>
        <pt x="373" y="46" on="1"/>
        <pt x="362" y="-10" on="0"/>
        <pt x="227" y="-10" on="1"/>
        <pt x="127" y="-10" on="0"/>
        <pt x="50" y="51" on="0"/>
        <pt x="50" y="144" on="1"/>
        <pt x="50" y="225" on="0"/>
        <pt x="122" y="286" on="0"/>
        <pt x="225" y="286" on="1"/>
        <pt x="370" y="286" on="1"/>
        <pt x="370" y="363" on="1"/>
        <pt x="370" y="403" on="0"/>
        <pt x="321" y="431" on="0"/>
        <pt x="253" y="431" on="1"/>
        <pt x="179" y="431" on="0"/>
        <pt x="87" y="419" on="1"/>
        <pt x="87" y="485" on="1"/>
        <pt x="186" y="494" on="0"/>
        <pt x="266" y="494" on="1"/>
        <pt x="388" y="494" on="0"/>
        <pt x="460" y="435" on="0"/>
        <pt x="460" y="342" on="1"/>
      </contour>
      <contour>
        <pt x="370" y="98" on="1"/>
        <pt x="370" y="230" on="1"/>
        <pt x="231" y="230" on="1"/>
        <pt x="169" y="230" on="0"/>
        <pt x="138" y="198" on="0"/>
        <pt x="138" y="141" on="1"/>
        <pt x="138" y="90" on="0"/>
        <pt x="171" y="49" on="0"/>
        <pt x="224" y="49" on="1"/>
        <pt x="242" y="49" on="1"/>
        <pt x="268" y="49" on="0"/>
        <pt x="303" y="51" on="0"/>
        <pt x="347" y="60" on="0"/>
        <pt x="370" y="81" on="0"/>
      </contour>
      <contour>
        <pt x="140" y="553" on="1"/>
        <pt x="208" y="680" on="1"/>
        <pt x="315" y="680" on="1"/>
        <pt x="381" y="553" on="1"/>
        <pt x="323" y="553" on="1"/>
        <pt x="261" y="640" on="1"/>
        <pt x="198" y="553" on="1"/>
      </contour>
    </TTGlyph>
    <TTGlyph name="acircumflex.smcp" xMin="15" yMin="0" xMax="557" yMax="680">
      <contour>
        <pt x="183" y="181" on="1"/>
        <pt x="384" y="181" on="1"/>
        <pt x="288" y="413" on="1"/>
        <pt x="279" y="413" on="1"/>
      </contour>
      <contour>
        <pt x="411" y="117" on="1"/>
        <pt x="156" y="117" on="1"/>
        <pt x="108" y="0" on="1"/>
        <pt x="15" y="0" on="1"/>
        <pt x="233" y="484" on="1"/>
        <pt x="345" y="484" on="1"/>
        <pt x="557" y="0" on="1"/>
        <pt x="459" y="0" on="1"/>
      </contour>
      <contour>
        <pt x="171" y="553" on="1"/>
        <pt x="239" y="680" on="1"/>
        <pt x="346" y="680" on="1"/>
        <pt x="412" y="553" on="1"/>
        <pt x="354" y="553" on="1"/>
        <pt x="292" y="640" on="1"/>
        <pt x="229" y="553" on="1"/>
      </contour>
    </TTGlyph>
    <TTGlyph name="acute" xMin="20" yMin="553" xMax="219" yMax="680">
      <contour>
        <pt x="219" y="680" on="1"/>
        <pt x="94" y="553" on="1"/>
        <pt x="20" y="553" on="1"/>
        <pt x="110" y="680" on="1"/>
      </contour>
    </TTGlyph>
    <TTGlyph name="acute.cap" xMin="20" yMin="743" xMax="219" yMax="870">
      <contour>
        <pt x="219" y="870" on="1"/>
        <pt x="94" y="743" on="1"/>
        <pt x="20" y="743" on="1"/>
        <pt x="110" y="870" on="1"/>
      </contour>
    </TTGlyph>
    <TTGlyph name="adieresis" xMin="50" yMin="-10" xMax="460" yMax="659">
      <contour>
        <pt x="460" y="0" on="1"/>
        <pt x="373" y="0" on="1"/>
        <pt x="373" y="46" on="1"/>
        <pt x="362" y="-10" on="0"/>
        <pt x="227" y="-10" on="1"/>
        <pt x="127" y="-10" on="0"/>
        <pt x="50" y="51" on="0"/>
        <pt x="50" y="144" on="1"/>
        <pt x="50" y="225" on="0"/>
        <pt x="122" y="286" on="0"/>
        <pt x="225" y="286" on="1"/>
        <pt x="370" y="286" on="1"/>
        <pt x="370" y="363" on="1"/>
        <pt x="370" y="403" on="0"/>
        <pt x="321" y="431" on="0"/>
        <pt x="253" y="431" on="1"/>
        <pt x="179" y="431" on="0"/>
        <pt x="87" y="419" on="1"/>
        <pt x="87" y="485" on="1"/>
        <pt x="186" y="494" on="0"/>
        <pt x="266" y="494" on="1"/>
        <pt x="388" y="494" on="0"/>
        <pt x="460" y="435" on="0"/>
        <pt x="460" y="342" on="1"/>
      </contour>
      <contour>
        <pt x="370" y="98" on="1"/>
        <pt x="370" y="230" on="1"/>
        <pt x="231" y="230" on="1"/>
        <pt x="169" y="230" on="0"/>
        <pt x="138" y="198" on="0"/>
        <pt x="138" y="141" on="1"/>
        <pt x="138" y="90" on="0"/>
        <pt x="171" y="49" on="0"/>
        <pt x="224" y="49" on="1"/>
        <pt x="242" y="49" on="1"/>
        <pt x="268" y="49" on="0"/>
        <pt x="303" y="51" on="0"/>
        <pt x="347" y="60" on="0"/>
        <pt x="370" y="81" on="0"/>
      </contour>
      <contour>
        <pt x="220" y="565" on="1"/>
        <pt x="130" y="565" on="1"/>
        <pt x="130" y="659" on="1"/>
        <pt x="220" y="659" on="1"/>
      </contour>
      <contour>
        <pt x="390" y="565" on="1"/>
        <pt x="300" y="565" on="1"/>
        <pt x="300" y="659" on="1"/>
        <pt x="390" y="659" on="1"/>
      </contour>
    </TTGlyph>
    <TTGlyph name="adieresis.smcp" xMin="15" yMin="0" xMax="557" yMax="659">
      <contour>
        <pt x="183" y="181" on="1"/>
        <pt x="384" y="181" on="1"/>
        <pt x="288" y="413" on="1"/>
        <pt x="279" y="413" on="1"/>
      </contour>
      <contour>
        <pt x="411" y="117" on="1"/>
        <pt x="156" y="117" on="1"/>
        <pt x="108" y="0" on="1"/>
        <pt x="15" y="0" on="1"/>
        <pt x="233" y="484" on="1"/>
        <pt x="345" y="484" on="1"/>
        <pt x="557" y="0" on="1"/>
        <pt x="459" y="0" on="1"/>
      </contour>
      <contour>
        <pt x="251" y="565" on="1"/>
        <pt x="161" y="565" on="1"/>
        <pt x="161" y="659" on="1"/>
        <pt x="251" y="659" on="1"/>
      </contour>
      <contour>
        <pt x="421" y="565" on="1"/>
        <pt x="331" y="565" on="1"/>
        <pt x="331" y="659" on="1"/>
        <pt x="421" y="659" on="1"/>
      </contour>
    </TTGlyph>
    <TTGlyph name="ae" xMin="50" yMin="-10" xMax="781" yMax="494">
      <contour>
        <pt x="781" y="222" on="1"/>
        <pt x="466" y="222" on="1"/>
        <pt x="466" y="149" on="1"/>
        <pt x="466" y="98" on="0"/>
        <pt x="533" y="55" on="0"/>
        <pt x="604" y="55" on="1"/>
        <pt x="668" y="55" on="0"/>
        <pt x="762" y="79" on="1"/>
        <pt x="762" y="10" on="1"/>
        <pt x="671" y="-10" on="0"/>
        <pt x="589" y="-10" on="1"/>
        <pt x="462" y="-10" on="0"/>
        <pt x="408" y="47" on="1"/>
        <pt x="394" y="-10" on="0"/>
        <pt x="230" y="-10" on="1"/>
        <pt x="125" y="-10" on="0"/>
        <pt x="50" y="49" on="0"/>
        <pt x="50" y="140" on="1"/>
        <pt x="50" y="224" on="0"/>
        <pt x="121" y="286" on="0"/>
        <pt x="225" y="286" on="1"/>
        <pt x="375" y="286" on="1"/>
        <pt x="375" y="361" on="1"/>
        <pt x="375" y="399" on="0"/>
        <pt x="324" y="431" on="0"/>
        <pt x="261" y="431" on="1"/>
        <pt x="151" y="431" on="0"/>
        <pt x="87" y="414" on="1"/>
        <pt x="87" y="480" on="1"/>
        <pt x="162" y="494" on="0"/>
        <pt x="273" y="494" on="1"/>
        <pt x="392" y="494" on="0"/>
        <pt x="431" y="459" on="1"/>
        <pt x="480" y="494" on="0"/>
        <pt x="688" y="494" on="0"/>
        <pt x="781" y="422" on="0"/>
        <pt x="781" y="329" on="1"/>
      </contour>
      <contour>
        <pt x="691" y="281" on="1"/>
        <pt x="691" y="357" on="1"/>
        <pt x="691" y="402" on="0"/>
        <pt x="642" y="434" on="0"/>
        <pt x="580" y="434" on="1"/>
        <pt x="521" y="434" on="0"/>
        <pt x="466" y="402" on="0"/>
        <pt x="466" y="357" on="1"/>
        <pt x="466" y="281" on="1"/>
      </contour>
      <contour>
        <pt x="375" y="109" on="1"/>
        <pt x="375" y="230" on="1"/>
        <pt x="231" y="230" on="1"/>
        <pt x="169" y="230" on="0"/>
        <pt x="138" y="198" on="0"/>
        <pt x="138" y="141" on="1"/>
        <pt x="138" y="87" on="0"/>
        <pt x="171" y="47" on="0"/>
        <pt x="234" y="47" on="1"/>
        <pt x="262" y="47" on="0"/>
        <pt x="292" y="48" on="0"/>
        <pt x="336" y="55" on="0"/>
        <pt x="358" y="67" on="0"/>
        <pt x="375" y="91" on="0"/>
      </contour>
    </TTGlyph>
    <TTGlyph name="ae.smcp" xMin="8" yMin="0" xMax="803" yMax="484">
      <contour>
        <pt x="417" y="181" on="1"/>
        <pt x="417" y="418" on="1"/>
        <pt x="380" y="418" on="1"/>
        <pt x="226" y="181" on="1"/>
      </contour>
      <contour>
        <pt x="803" y="0" on="1"/>
        <pt x="417" y="0" on="1"/>
        <pt x="417" y="117" on="1"/>
        <pt x="184" y="117" on="1"/>
        <pt x="108" y="0" on="1"/>
        <pt x="8" y="0" on="1"/>
        <pt x="333" y="484" on="1"/>
        <pt x="793" y="484" on="1"/>
        <pt x="793" y="418" on="1"/>
        <pt x="507" y="418" on="1"/>
        <pt x="507" y="286" on="1"/>
        <pt x="760" y="286" on="1"/>
        <pt x="760" y="220" on="1"/>
        <pt x="507" y="220" on="1"/>
        <pt x="507" y="66" on="1"/>
        <pt x="803" y="66" on="1"/>
      </contour>
    </TTGlyph>
    <TTGlyph name="afii10017" xMin="15" yMin="0" xMax="637" yMax="649">
      <contour>
        <pt x="637" y="0" on="1"/>
        <pt x="536" y="0" on="1"/>
        <pt x="462" y="197" on="1"/>
        <pt x="184" y="197" on="1"/>
        <pt x="111" y="0" on="1"/>
        <pt x="15" y="0" on="1"/>
        <pt x="273" y="649" on="1"/>
        <pt x="385" y="649" on="1"/>
      </contour>
      <contour>
        <pt x="438" y="264" on="1"/>
        <pt x="328" y="557" on="1"/>
        <pt x="319" y="557" on="1"/>
        <pt x="209" y="264" on="1"/>
      </contour>
    </TTGlyph>
    <TTGlyph name="afii10018" xMin="84" yMin="0" xMax="525" yMax="649">
      <contour>
        <pt x="525" y="237" on="1"/>
        <pt x="525" y="141" on="1"/>
        <pt x="525" y="0" on="0"/>
        <pt x="296" y="0" on="1"/>
        <pt x="84" y="0" on="1"/>
        <pt x="84" y="649" on="1"/>
        <pt x="440" y="649" on="1"/>
        <pt x="440" y="580" on="1"/>
        <pt x="181" y="580" on="1"/>
        <pt x="181" y="369" on="1"/>
        <pt x="278" y="369" on="1"/>
        <pt x="327" y="369" on="0"/>
        <pt x="394" y="364" on="0"/>
        <pt x="461" y="348" on="0"/>
        <pt x="501" y="320" on="0"/>
        <pt x="525" y="271" on="0"/>
      </contour>
      <contour>
        <pt x="430" y="145" on="1"/>
        <pt x="430" y="226" on="1"/>
        <pt x="430" y="269" on="0"/>
        <pt x="365" y="303" on="0"/>
        <pt x="291" y="303" on="1"/>
        <pt x="180" y="303" on="1"/>
        <pt x="180" y="66" on="1"/>
        <pt x="289" y="66" on="1"/>
        <pt x="315" y="66" on="0"/>
        <pt x="350" y="69" on="0"/>
        <pt x="402" y="83" on="0"/>
        <pt x="430" y="118" on="0"/>
      </contour>
    </TTGlyph>
    <TTGlyph name="afii10019" xMin="84" yMin="0" xMax="553" yMax="649">
      <contour>
        <pt x="553" y="238" on="1"/>
        <pt x="553" y="129" on="1"/>
        <pt x="553" y="58" on="0"/>
        <pt x="445" y="0" on="0"/>
        <pt x="323" y="0" on="1"/>
        <pt x="84" y="0" on="1"/>
        <pt x="84" y="649" on="1"/>
        <pt x="316" y="649" on="1"/>
        <pt x="400" y="649" on="0"/>
        <pt x="495" y="615" on="0"/>
        <pt x="524" y="565" on="0"/>
        <pt x="524" y="526" on="1"/>
        <pt x="524" y="439" on="1"/>
        <pt x="524" y="399" on="0"/>
        <pt x="479" y="357" on="0"/>
        <pt x="435" y="347" on="1"/>
        <pt x="435" y="343" on="1"/>
        <pt x="487" y="334" on="0"/>
        <pt x="553" y="280" on="0"/>
      </contour>
      <contour>
        <pt x="433" y="442" on="1"/>
        <pt x="433" y="518" on="1"/>
        <pt x="433" y="555" on="0"/>
        <pt x="379" y="585" on="0"/>
        <pt x="316" y="585" on="1"/>
        <pt x="181" y="585" on="1"/>
        <pt x="181" y="365" on="1"/>
        <pt x="319" y="365" on="1"/>
        <pt x="381" y="365" on="0"/>
        <pt x="433" y="402" on="0"/>
      </contour>
      <contour>
        <pt x="456" y="133" on="1"/>
        <pt x="456" y="231" on="1"/>
        <pt x="456" y="257" on="0"/>
        <pt x="435" y="288" on="0"/>
        <pt x="390" y="301" on="0"/>
        <pt x="355" y="304" on="0"/>
        <pt x="323" y="304" on="1"/>
        <pt x="181" y="304" on="1"/>
        <pt x="181" y="67" on="1"/>
        <pt x="323" y="67" on="1"/>
        <pt x="396" y="67" on="0"/>
        <pt x="456" y="97" on="0"/>
      </contour>
    </TTGlyph>
    <TTGlyph name="afii10020" xMin="84" yMin="0" xMax="460" yMax="649">
      <contour>
        <pt x="460" y="581" on="1"/>
        <pt x="181" y="581" on="1"/>
        <pt x="181" y="0" on="1"/>
        <pt x="84" y="0" on="1"/>
        <pt x="84" y="649" on="1"/>
        <pt x="460" y="649" on="1"/>
      </contour>
    </TTGlyph>
    <TTGlyph name="afii10021" xMin="20" yMin="-166" xMax="632" yMax="649">
      <contour>
        <pt x="162" y="649" on="1"/>
        <pt x="568" y="649" on="1"/>
        <pt x="568" y="74" on="1"/>
        <pt x="632" y="74" on="1"/>
        <pt x="632" y="-166" on="1"/>
        <pt x="548" y="-166" on="1"/>
        <pt x="548" y="0" on="1"/>
        <pt x="105" y="0" on="1"/>
        <pt x="105" y="-166" on="1"/>
        <pt x="20" y="-166" on="1"/>
        <pt x="20" y="74" on="1"/>
        <pt x="76" y="74" on="1"/>
        <pt x="121" y="142" on="0"/>
        <pt x="162" y="353" on="0"/>
        <pt x="162" y="544" on="1"/>
      </contour>
      <contour>
        <pt x="473" y="574" on="1"/>
        <pt x="253" y="574" on="1"/>
        <pt x="253" y="528" on="1"/>
        <pt x="253" y="386" on="0"/>
        <pt x="207" y="135" on="0"/>
        <pt x="173" y="74" on="1"/>
        <pt x="473" y="74" on="1"/>
      </contour>
    </TTGlyph>
    <TTGlyph name="afii10022" xMin="84" yMin="0" xMax="530" yMax="649">
      <contour>
        <pt x="530" y="0" on="1"/>
        <pt x="84" y="0" on="1"/>
        <pt x="84" y="649" on="1"/>
        <pt x="520" y="649" on="1"/>
        <pt x="520" y="581" on="1"/>
        <pt x="181" y="581" on="1"/>
        <pt x="181" y="369" on="1"/>
        <pt x="487" y="369" on="1"/>
        <pt x="487" y="301" on="1"/>
        <pt x="181" y="301" on="1"/>
        <pt x="181" y="68" on="1"/>
        <pt x="530" y="68" on="1"/>
      </contour>
    </TTGlyph>
    <TTGlyph name="afii10023" xMin="84" yMin="0" xMax="530" yMax="815">
      <contour>
        <pt x="530" y="0" on="1"/>
        <pt x="84" y="0" on="1"/>
        <pt x="84" y="649" on="1"/>
        <pt x="520" y="649" on="1"/>
        <pt x="520" y="581" on="1"/>
        <pt x="181" y="581" on="1"/>
        <pt x="181" y="369" on="1"/>
        <pt x="487" y="369" on="1"/>
        <pt x="487" y="301" on="1"/>
        <pt x="181" y="301" on="1"/>
        <pt x="181" y="68" on="1"/>
        <pt x="530" y="68" on="1"/>
      </contour>
      <contour>
        <pt x="267" y="721" on="1"/>
        <pt x="177" y="721" on="1"/>
        <pt x="177" y="815" on="1"/>
        <pt x="267" y="815" on="1"/>
      </contour>
      <contour>
        <pt x="437" y="721" on="1"/>
        <pt x="347" y="721" on="1"/>
        <pt x="347" y="815" on="1"/>
        <pt x="437" y="815" on="1"/>
      </contour>
    </TTGlyph>
    <TTGlyph name="afii10024" xMin="-6" yMin="0" xMax="959" yMax="649">
      <contour>
        <pt x="428" y="368" on="1"/>
        <pt x="428" y="649" on="1"/>
        <pt x="525" y="649" on="1"/>
        <pt x="525" y="368" on="1"/>
        <pt x="568" y="368" on="0"/>
        <pt x="598" y="385" on="0"/>
        <pt x="618" y="417" on="1"/>
        <pt x="707" y="556" on="1"/>
        <pt x="748" y="619" on="0"/>
        <pt x="799" y="649" on="0"/>
        <pt x="870" y="649" on="1"/>
        <pt x="915" y="649" on="1"/>
        <pt x="915" y="581" on="1"/>
        <pt x="864" y="581" on="1"/>
        <pt x="839" y="581" on="0"/>
        <pt x="800" y="548" on="0"/>
        <pt x="777" y="510" on="1"/>
        <pt x="714" y="406" on="1"/>
        <pt x="695" y="373" on="0"/>
        <pt x="658" y="340" on="0"/>
        <pt x="630" y="333" on="1"/>
        <pt x="667" y="324" on="0"/>
        <pt x="777" y="202" on="1"/>
        <pt x="959" y="0" on="1"/>
        <pt x="844" y="0" on="1"/>
        <pt x="660" y="202" on="1"/>
        <pt x="601" y="266" on="0"/>
        <pt x="548" y="301" on="0"/>
        <pt x="525" y="301" on="1"/>
        <pt x="525" y="0" on="1"/>
        <pt x="428" y="0" on="1"/>
        <pt x="428" y="301" on="1"/>
        <pt x="405" y="301" on="0"/>
        <pt x="352" y="266" on="0"/>
        <pt x="293" y="202" on="1"/>
        <pt x="109" y="0" on="1"/>
        <pt x="-6" y="0" on="1"/>
        <pt x="176" y="202" on="1"/>
        <pt x="286" y="324" on="0"/>
        <pt x="323" y="333" on="1"/>
        <pt x="295" y="340" on="0"/>
        <pt x="258" y="373" on="0"/>
        <pt x="239" y="406" on="1"/>
        <pt x="176" y="510" on="1"/>
        <pt x="153" y="548" on="0"/>
        <pt x="114" y="581" on="0"/>
        <pt x="89" y="581" on="1"/>
        <pt x="38" y="581" on="1"/>
        <pt x="38" y="649" on="1"/>
        <pt x="83" y="649" on="1"/>
        <pt x="154" y="649" on="0"/>
        <pt x="205" y="619" on="0"/>
        <pt x="246" y="556" on="1"/>
        <pt x="335" y="417" on="1"/>
        <pt x="355" y="385" on="0"/>
        <pt x="385" y="368" on="0"/>
      </contour>
    </TTGlyph>
    <TTGlyph name="afii10025" xMin="54" yMin="-10" xMax="500" yMax="656">
      <contour>
        <pt x="500" y="259" on="1"/>
        <pt x="500" y="129" on="1"/>
        <pt x="500" y="93" on="0"/>
        <pt x="469" y="40" on="0"/>
        <pt x="425" y="11" on="0"/>
        <pt x="357" y="-6" on="0"/>
        <pt x="300" y="-10" on="0"/>
        <pt x="263" y="-10" on="1"/>
        <pt x="162" y="-10" on="0"/>
        <pt x="54" y="9" on="1"/>
        <pt x="54" y="83" on="1"/>
        <pt x="175" y="58" on="0"/>
        <pt x="253" y="58" on="1"/>
        <pt x="283" y="58" on="0"/>
        <pt x="322" y="61" on="0"/>
        <pt x="377" y="74" on="0"/>
        <pt x="406" y="107" on="0"/>
        <pt x="406" y="133" on="1"/>
        <pt x="406" y="242" on="1"/>
        <pt x="406" y="304" on="0"/>
        <pt x="272" y="304" on="1"/>
        <pt x="137" y="304" on="1"/>
        <pt x="137" y="366" on="1"/>
        <pt x="255" y="366" on="1"/>
        <pt x="390" y="366" on="0"/>
        <pt x="390" y="430" on="1"/>
        <pt x="390" y="539" on="1"/>
        <pt x="390" y="591" on="0"/>
        <pt x="260" y="591" on="1"/>
        <pt x="217" y="591" on="0"/>
        <pt x="69" y="580" on="0"/>
        <pt x="67" y="580" on="1"/>
        <pt x="67" y="648" on="1"/>
        <pt x="189" y="656" on="0"/>
        <pt x="259" y="656" on="1"/>
        <pt x="368" y="656" on="0"/>
        <pt x="481" y="608" on="0"/>
        <pt x="481" y="547" on="1"/>
        <pt x="481" y="426" on="1"/>
        <pt x="481" y="393" on="0"/>
        <pt x="429" y="354" on="0"/>
        <pt x="392" y="348" on="1"/>
        <pt x="392" y="344" on="1"/>
        <pt x="415" y="340" on="0"/>
        <pt x="447" y="331" on="0"/>
        <pt x="482" y="313" on="0"/>
        <pt x="500" y="281" on="0"/>
      </contour>
    </TTGlyph>
    <TTGlyph name="afii10026" xMin="85" yMin="0" xMax="640" yMax="649">
      <contour>
        <pt x="202" y="0" on="1"/>
        <pt x="85" y="0" on="1"/>
        <pt x="85" y="649" on="1"/>
        <pt x="174" y="649" on="1"/>
        <pt x="174" y="113" on="1"/>
        <pt x="523" y="649" on="1"/>
        <pt x="640" y="649" on="1"/>
        <pt x="640" y="0" on="1"/>
        <pt x="551" y="0" on="1"/>
        <pt x="551" y="545" on="1"/>
      </contour>
    </TTGlyph>
    <TTGlyph name="afii10027" xMin="85" yMin="0" xMax="640" yMax="830">
      <contour>
        <pt x="202" y="0" on="1"/>
        <pt x="85" y="0" on="1"/>
        <pt x="85" y="649" on="1"/>
        <pt x="174" y="649" on="1"/>
        <pt x="174" y="113" on="1"/>
        <pt x="523" y="649" on="1"/>
        <pt x="640" y="649" on="1"/>
        <pt x="640" y="0" on="1"/>
        <pt x="551" y="0" on="1"/>
        <pt x="551" y="545" on="1"/>
      </contour>
      <contour>
        <pt x="492" y="830" on="1"/>
        <pt x="488" y="774" on="0"/>
        <pt x="409" y="703" on="0"/>
        <pt x="354" y="703" on="1"/>
        <pt x="298" y="703" on="0"/>
        <pt x="219" y="774" on="0"/>
        <pt x="216" y="830" on="1"/>
        <pt x="302" y="830" on="1"/>
        <pt x="316" y="791" on="0"/>
        <pt x="342" y="763" on="0"/>
        <pt x="375" y="763" on="1"/>
        <pt x="403" y="763" on="0"/>
        <pt x="436" y="794" on="0"/>
        <pt x="447" y="830" on="1"/>
      </contour>
    </TTGlyph>
    <TTGlyph name="afii10028" xMin="84" yMin="0" xMax="616" yMax="649">
      <contour>
        <pt x="182" y="0" on="1"/>
        <pt x="84" y="0" on="1"/>
        <pt x="84" y="649" on="1"/>
        <pt x="182" y="649" on="1"/>
        <pt x="182" y="368" on="1"/>
        <pt x="220" y="368" on="0"/>
        <pt x="256" y="387" on="0"/>
        <pt x="275" y="417" on="1"/>
        <pt x="364" y="556" on="1"/>
        <pt x="405" y="619" on="0"/>
        <pt x="456" y="649" on="0"/>
        <pt x="527" y="649" on="1"/>
        <pt x="572" y="649" on="1"/>
        <pt x="572" y="581" on="1"/>
        <pt x="521" y="581" on="1"/>
        <pt x="496" y="581" on="0"/>
        <pt x="457" y="548" on="0"/>
        <pt x="434" y="510" on="1"/>
        <pt x="371" y="406" on="1"/>
        <pt x="352" y="373" on="0"/>
        <pt x="315" y="340" on="0"/>
        <pt x="287" y="333" on="1"/>
        <pt x="324" y="324" on="0"/>
        <pt x="434" y="202" on="1"/>
        <pt x="616" y="0" on="1"/>
        <pt x="492" y="0" on="1"/>
        <pt x="313" y="202" on="1"/>
        <pt x="256" y="267" on="0"/>
        <pt x="205" y="301" on="0"/>
        <pt x="182" y="301" on="1"/>
      </contour>
    </TTGlyph>
    <TTGlyph name="afii10029" xMin="4" yMin="0" xMax="616" yMax="649">
      <contour>
        <pt x="114" y="121" on="1"/>
        <pt x="114" y="649" on="1"/>
        <pt x="616" y="649" on="1"/>
        <pt x="616" y="0" on="1"/>
        <pt x="519" y="0" on="1"/>
        <pt x="519" y="577" on="1"/>
        <pt x="211" y="577" on="1"/>
        <pt x="211" y="98" on="1"/>
        <pt x="211" y="45" on="0"/>
        <pt x="152" y="0" on="0"/>
        <pt x="93" y="0" on="1"/>
        <pt x="4" y="0" on="1"/>
        <pt x="4" y="68" on="1"/>
        <pt x="59" y="68" on="1"/>
        <pt x="91" y="68" on="0"/>
        <pt x="114" y="89" on="0"/>
      </contour>
    </TTGlyph>
    <TTGlyph name="afii10030" xMin="84" yMin="0" xMax="777" yMax="649">
      <contour>
        <pt x="777" y="0" on="1"/>
        <pt x="692" y="0" on="1"/>
        <pt x="692" y="549" on="1"/>
        <pt x="687" y="549" on="1"/>
        <pt x="478" y="0" on="1"/>
        <pt x="391" y="0" on="1"/>
        <pt x="176" y="549" on="1"/>
        <pt x="171" y="549" on="1"/>
        <pt x="171" y="0" on="1"/>
        <pt x="84" y="0" on="1"/>
        <pt x="84" y="649" on="1"/>
        <pt x="229" y="649" on="1"/>
        <pt x="437" y="109" on="1"/>
        <pt x="440" y="108" on="1"/>
        <pt x="637" y="649" on="1"/>
        <pt x="777" y="649" on="1"/>
      </contour>
    </TTGlyph>
    <TTGlyph name="afii10031" xMin="84" yMin="0" xMax="623" yMax="649">
      <contour>
        <pt x="623" y="0" on="1"/>
        <pt x="526" y="0" on="1"/>
        <pt x="526" y="301" on="1"/>
        <pt x="181" y="301" on="1"/>
        <pt x="181" y="0" on="1"/>
        <pt x="84" y="0" on="1"/>
        <pt x="84" y="649" on="1"/>
        <pt x="181" y="649" on="1"/>
        <pt x="181" y="369" on="1"/>
        <pt x="526" y="369" on="1"/>
        <pt x="526" y="649" on="1"/>
        <pt x="623" y="649" on="1"/>
      </contour>
    </TTGlyph>
    <TTGlyph name="afii10032" xMin="66" yMin="-10" xMax="613" yMax="659">
      <contour>
        <pt x="613" y="474" on="1"/>
        <pt x="613" y="166" on="1"/>
        <pt x="613" y="113" on="0"/>
        <pt x="562" y="39" on="0"/>
        <pt x="474" y="4" on="0"/>
        <pt x="388" y="-10" on="0"/>
        <pt x="338" y="-10" on="1"/>
        <pt x="66" y="-10" on="0"/>
        <pt x="66" y="166" on="1"/>
        <pt x="66" y="473" on="1"/>
        <pt x="66" y="659" on="0"/>
        <pt x="338" y="659" on="1"/>
        <pt x="613" y="659" on="0"/>
      </contour>
      <contour>
        <pt x="519" y="167" on="1"/>
        <pt x="519" y="476" on="1"/>
        <pt x="519" y="596" on="0"/>
        <pt x="339" y="596" on="1"/>
        <pt x="301" y="596" on="0"/>
        <pt x="243" y="587" on="0"/>
        <pt x="189" y="562" on="0"/>
        <pt x="159" y="513" on="0"/>
        <pt x="159" y="476" on="1"/>
        <pt x="159" y="167" on="1"/>
        <pt x="159" y="55" on="0"/>
        <pt x="340" y="55" on="1"/>
        <pt x="519" y="55" on="0"/>
      </contour>
    </TTGlyph>
    <TTGlyph name="afii10033" xMin="84" yMin="0" xMax="603" yMax="649">
      <contour>
        <pt x="603" y="0" on="1"/>
        <pt x="506" y="0" on="1"/>
        <pt x="506" y="582" on="1"/>
        <pt x="181" y="582" on="1"/>
        <pt x="181" y="0" on="1"/>
        <pt x="84" y="0" on="1"/>
        <pt x="84" y="649" on="1"/>
        <pt x="603" y="649" on="1"/>
      </contour>
    </TTGlyph>
    <TTGlyph name="afii10034" xMin="84" yMin="0" xMax="525" yMax="649">
      <contour>
        <pt x="525" y="521" on="1"/>
        <pt x="525" y="386" on="1"/>
        <pt x="525" y="303" on="0"/>
        <pt x="396" y="234" on="0"/>
        <pt x="278" y="234" on="1"/>
        <pt x="181" y="234" on="1"/>
        <pt x="181" y="0" on="1"/>
        <pt x="84" y="0" on="1"/>
        <pt x="84" y="649" on="1"/>
        <pt x="296" y="649" on="1"/>
        <pt x="336" y="649" on="0"/>
        <pt x="394" y="645" on="0"/>
        <pt x="459" y="630" on="0"/>
        <pt x="498" y="603" on="0"/>
        <pt x="525" y="555" on="0"/>
      </contour>
      <contour>
        <pt x="430" y="391" on="1"/>
        <pt x="430" y="509" on="1"/>
        <pt x="430" y="536" on="0"/>
        <pt x="402" y="571" on="0"/>
        <pt x="350" y="585" on="0"/>
        <pt x="315" y="588" on="0"/>
        <pt x="289" y="588" on="1"/>
        <pt x="180" y="588" on="1"/>
        <pt x="180" y="295" on="1"/>
        <pt x="291" y="295" on="1"/>
        <pt x="349" y="295" on="0"/>
        <pt x="430" y="338" on="0"/>
      </contour>
    </TTGlyph>
    <TTGlyph name="afii10035" xMin="64" yMin="-10" xMax="519" yMax="660">
      <contour>
        <pt x="519" y="9" on="1"/>
        <pt x="432" y="-10" on="0"/>
        <pt x="337" y="-10" on="1"/>
        <pt x="64" y="-10" on="0"/>
        <pt x="64" y="166" on="1"/>
        <pt x="64" y="474" on="1"/>
        <pt x="64" y="660" on="0"/>
        <pt x="337" y="660" on="1"/>
        <pt x="428" y="660" on="0"/>
        <pt x="515" y="641" on="1"/>
        <pt x="515" y="569" on="1"/>
        <pt x="419" y="593" on="0"/>
        <pt x="339" y="593" on="1"/>
        <pt x="301" y="593" on="0"/>
        <pt x="243" y="584" on="0"/>
        <pt x="187" y="561" on="0"/>
        <pt x="157" y="512" on="0"/>
        <pt x="157" y="475" on="1"/>
        <pt x="157" y="171" on="1"/>
        <pt x="157" y="59" on="0"/>
        <pt x="343" y="59" on="1"/>
        <pt x="423" y="59" on="0"/>
        <pt x="519" y="83" on="1"/>
      </contour>
    </TTGlyph>
    <TTGlyph name="afii10036" xMin="24" yMin="0" xMax="561" yMax="649">
      <contour>
        <pt x="561" y="581" on="1"/>
        <pt x="342" y="581" on="1"/>
        <pt x="342" y="0" on="1"/>
        <pt x="244" y="0" on="1"/>
        <pt x="244" y="581" on="1"/>
        <pt x="24" y="581" on="1"/>
        <pt x="24" y="649" on="1"/>
        <pt x="561" y="649" on="1"/>
      </contour>
    </TTGlyph>
    <TTGlyph name="afii10037" xMin="6" yMin="-10" xMax="531" yMax="649">
      <contour>
        <pt x="531" y="649" on="1"/>
        <pt x="300" y="115" on="1"/>
        <pt x="274" y="53" on="0"/>
        <pt x="196" y="-10" on="0"/>
        <pt x="126" y="-10" on="1"/>
        <pt x="88" y="-10" on="0"/>
        <pt x="42" y="0" on="1"/>
        <pt x="42" y="70" on="1"/>
        <pt x="74" y="63" on="0"/>
        <pt x="103" y="63" on="1"/>
        <pt x="146" y="63" on="0"/>
        <pt x="195" y="102" on="0"/>
        <pt x="215" y="147" on="1"/>
        <pt x="235" y="193" on="1"/>
        <pt x="6" y="649" on="1"/>
        <pt x="114" y="649" on="1"/>
        <pt x="281" y="289" on="1"/>
        <pt x="433" y="649" on="1"/>
      </contour>
    </TTGlyph>
    <TTGlyph name="afii10038" xMin="66" yMin="0" xMax="653" yMax="649">
      <contour>
        <pt x="410" y="0" on="1"/>
        <pt x="313" y="0" on="1"/>
        <pt x="313" y="61" on="1"/>
        <pt x="247" y="61" on="0"/>
        <pt x="142" y="91" on="0"/>
        <pt x="66" y="173" on="0"/>
        <pt x="66" y="236" on="1"/>
        <pt x="66" y="403" on="1"/>
        <pt x="66" y="500" on="0"/>
        <pt x="208" y="587" on="0"/>
        <pt x="313" y="587" on="1"/>
        <pt x="313" y="649" on="1"/>
        <pt x="410" y="649" on="1"/>
        <pt x="410" y="587" on="1"/>
        <pt x="458" y="587" on="0"/>
        <pt x="540" y="568" on="0"/>
        <pt x="612" y="527" on="0"/>
        <pt x="653" y="454" on="0"/>
        <pt x="653" y="404" on="1"/>
        <pt x="653" y="236" on="1"/>
        <pt x="653" y="175" on="0"/>
        <pt x="577" y="93" on="0"/>
        <pt x="473" y="62" on="0"/>
        <pt x="410" y="62" on="1"/>
      </contour>
      <contour>
        <pt x="163" y="406" on="1"/>
        <pt x="163" y="237" on="1"/>
        <pt x="163" y="181" on="0"/>
        <pt x="245" y="127" on="0"/>
        <pt x="313" y="127" on="1"/>
        <pt x="313" y="524" on="1"/>
        <pt x="163" y="524" on="0"/>
      </contour>
      <contour>
        <pt x="555" y="237" on="1"/>
        <pt x="555" y="406" on="1"/>
        <pt x="555" y="465" on="0"/>
        <pt x="473" y="524" on="0"/>
        <pt x="410" y="524" on="1"/>
        <pt x="410" y="127" on="1"/>
        <pt x="475" y="127" on="0"/>
        <pt x="555" y="182" on="0"/>
      </contour>
    </TTGlyph>
    <TTGlyph name="afii10039" xMin="8" yMin="0" xMax="596" yMax="649">
      <contour>
        <pt x="596" y="0" on="1"/>
        <pt x="485" y="0" on="1"/>
        <pt x="302" y="264" on="1"/>
        <pt x="119" y="0" on="1"/>
        <pt x="8" y="0" on="1"/>
        <pt x="247" y="331" on="1"/>
        <pt x="18" y="649" on="1"/>
        <pt x="129" y="649" on="1"/>
        <pt x="302" y="398" on="1"/>
        <pt x="475" y="649" on="1"/>
        <pt x="586" y="649" on="1"/>
        <pt x="357" y="331" on="1"/>
      </contour>
    </TTGlyph>
    <TTGlyph name="afii10040" xMin="84" yMin="-166" xMax="623" yMax="649">
      <contour>
        <pt x="623" y="-166" on="1"/>
        <pt x="532" y="-166" on="1"/>
        <pt x="532" y="0" on="1"/>
        <pt x="84" y="0" on="1"/>
        <pt x="84" y="649" on="1"/>
        <pt x="181" y="649" on="1"/>
        <pt x="181" y="67" on="1"/>
        <pt x="526" y="67" on="1"/>
        <pt x="526" y="649" on="1"/>
        <pt x="623" y="649" on="1"/>
      </contour>
    </TTGlyph>
    <TTGlyph name="afii10041" xMin="69" yMin="0" xMax="526" yMax="649">
      <contour>
        <pt x="69" y="649" on="1"/>
        <pt x="165" y="649" on="1"/>
        <pt x="165" y="374" on="1"/>
        <pt x="165" y="294" on="0"/>
        <pt x="283" y="294" on="1"/>
        <pt x="368" y="294" on="0"/>
        <pt x="429" y="332" on="0"/>
        <pt x="429" y="374" on="1"/>
        <pt x="429" y="649" on="1"/>
        <pt x="526" y="649" on="1"/>
        <pt x="526" y="0" on="1"/>
        <pt x="429" y="0" on="1"/>
        <pt x="429" y="298" on="1"/>
        <pt x="421" y="261" on="0"/>
        <pt x="324" y="229" on="0"/>
        <pt x="257" y="229" on="1"/>
        <pt x="69" y="229" on="0"/>
        <pt x="69" y="368" on="1"/>
      </contour>
    </TTGlyph>
    <TTGlyph name="afii10042" xMin="84" yMin="0" xMax="845" yMax="649">
      <contour>
        <pt x="845" y="0" on="1"/>
        <pt x="84" y="0" on="1"/>
        <pt x="84" y="649" on="1"/>
        <pt x="181" y="649" on="1"/>
        <pt x="181" y="67" on="1"/>
        <pt x="416" y="67" on="1"/>
        <pt x="416" y="649" on="1"/>
        <pt x="513" y="649" on="1"/>
        <pt x="513" y="67" on="1"/>
        <pt x="748" y="67" on="1"/>
        <pt x="748" y="649" on="1"/>
        <pt x="845" y="649" on="1"/>
      </contour>
    </TTGlyph>
    <TTGlyph name="afii10043" xMin="84" yMin="-166" xMax="845" yMax="649">
      <contour>
        <pt x="754" y="0" on="1"/>
        <pt x="84" y="0" on="1"/>
        <pt x="84" y="649" on="1"/>
        <pt x="181" y="649" on="1"/>
        <pt x="181" y="67" on="1"/>
        <pt x="416" y="67" on="1"/>
        <pt x="416" y="649" on="1"/>
        <pt x="513" y="649" on="1"/>
        <pt x="513" y="67" on="1"/>
        <pt x="748" y="67" on="1"/>
        <pt x="748" y="649" on="1"/>
        <pt x="845" y="649" on="1"/>
        <pt x="845" y="-166" on="1"/>
        <pt x="754" y="-166" on="1"/>
      </contour>
    </TTGlyph>
    <TTGlyph name="afii10044" xMin="9" yMin="0" xMax="635" yMax="649">
      <contour>
        <pt x="9" y="581" on="1"/>
        <pt x="9" y="649" on="1"/>
        <pt x="291" y="649" on="1"/>
        <pt x="291" y="369" on="1"/>
        <pt x="388" y="369" on="1"/>
        <pt x="437" y="369" on="0"/>
        <pt x="504" y="364" on="0"/>
        <pt x="571" y="348" on="0"/>
        <pt x="611" y="320" on="0"/>
        <pt x="635" y="271" on="0"/>
        <pt x="635" y="237" on="1"/>
        <pt x="635" y="141" on="1"/>
        <pt x="635" y="0" on="0"/>
        <pt x="406" y="0" on="1"/>
        <pt x="194" y="0" on="1"/>
        <pt x="194" y="581" on="1"/>
      </contour>
      <contour>
        <pt x="540" y="145" on="1"/>
        <pt x="540" y="226" on="1"/>
        <pt x="540" y="273" on="0"/>
        <pt x="479" y="303" on="0"/>
        <pt x="401" y="303" on="1"/>
        <pt x="290" y="303" on="1"/>
        <pt x="290" y="66" on="1"/>
        <pt x="399" y="66" on="1"/>
        <pt x="425" y="66" on="0"/>
        <pt x="460" y="69" on="0"/>
        <pt x="512" y="83" on="0"/>
        <pt x="540" y="118" on="0"/>
      </contour>
    </TTGlyph>
    <TTGlyph name="afii10045" xMin="84" yMin="0" xMax="722" yMax="649">
      <contour>
        <pt x="722" y="0" on="1"/>
        <pt x="625" y="0" on="1"/>
        <pt x="625" y="649" on="1"/>
        <pt x="722" y="649" on="1"/>
      </contour>
      <contour>
        <pt x="84" y="649" on="1"/>
        <pt x="181" y="649" on="1"/>
        <pt x="181" y="369" on="1"/>
        <pt x="278" y="369" on="1"/>
        <pt x="327" y="369" on="0"/>
        <pt x="394" y="364" on="0"/>
        <pt x="461" y="348" on="0"/>
        <pt x="501" y="320" on="0"/>
        <pt x="525" y="271" on="0"/>
        <pt x="525" y="237" on="1"/>
        <pt x="525" y="141" on="1"/>
        <pt x="525" y="0" on="0"/>
        <pt x="296" y="0" on="1"/>
        <pt x="84" y="0" on="1"/>
      </contour>
      <contour>
        <pt x="430" y="145" on="1"/>
        <pt x="430" y="226" on="1"/>
        <pt x="430" y="273" on="0"/>
        <pt x="369" y="303" on="0"/>
        <pt x="291" y="303" on="1"/>
        <pt x="180" y="303" on="1"/>
        <pt x="180" y="66" on="1"/>
        <pt x="289" y="66" on="1"/>
        <pt x="315" y="66" on="0"/>
        <pt x="350" y="69" on="0"/>
        <pt x="402" y="83" on="0"/>
        <pt x="430" y="118" on="0"/>
      </contour>
    </TTGlyph>
    <TTGlyph name="afii10046" xMin="84" yMin="0" xMax="525" yMax="649">
      <contour>
        <pt x="84" y="649" on="1"/>
        <pt x="181" y="649" on="1"/>
        <pt x="181" y="369" on="1"/>
        <pt x="278" y="369" on="1"/>
        <pt x="327" y="369" on="0"/>
        <pt x="394" y="364" on="0"/>
        <pt x="461" y="348" on="0"/>
        <pt x="501" y="320" on="0"/>
        <pt x="525" y="271" on="0"/>
        <pt x="525" y="237" on="1"/>
        <pt x="525" y="141" on="1"/>
        <pt x="525" y="0" on="0"/>
        <pt x="296" y="0" on="1"/>
        <pt x="84" y="0" on="1"/>
      </contour>
      <contour>
        <pt x="430" y="145" on="1"/>
        <pt x="430" y="226" on="1"/>
        <pt x="430" y="273" on="0"/>
        <pt x="369" y="303" on="0"/>
        <pt x="291" y="303" on="1"/>
        <pt x="180" y="303" on="1"/>
        <pt x="180" y="66" on="1"/>
        <pt x="289" y="66" on="1"/>
        <pt x="315" y="66" on="0"/>
        <pt x="350" y="69" on="0"/>
        <pt x="402" y="83" on="0"/>
        <pt x="430" y="118" on="0"/>
      </contour>
    </TTGlyph>
    <TTGlyph name="afii10047" xMin="44" yMin="-10" xMax="499" yMax="660">
      <contour>
        <pt x="44" y="9" on="1"/>
        <pt x="44" y="83" on="1"/>
        <pt x="140" y="59" on="0"/>
        <pt x="220" y="59" on="1"/>
        <pt x="406" y="59" on="0"/>
        <pt x="406" y="171" on="1"/>
        <pt x="406" y="301" on="1"/>
        <pt x="76" y="301" on="1"/>
        <pt x="76" y="368" on="1"/>
        <pt x="406" y="368" on="1"/>
        <pt x="406" y="475" on="1"/>
        <pt x="406" y="512" on="0"/>
        <pt x="376" y="561" on="0"/>
        <pt x="320" y="584" on="0"/>
        <pt x="262" y="593" on="0"/>
        <pt x="224" y="593" on="1"/>
        <pt x="144" y="593" on="0"/>
        <pt x="48" y="569" on="1"/>
        <pt x="48" y="641" on="1"/>
        <pt x="135" y="660" on="0"/>
        <pt x="226" y="660" on="1"/>
        <pt x="499" y="660" on="0"/>
        <pt x="499" y="474" on="1"/>
        <pt x="499" y="166" on="1"/>
        <pt x="499" y="-10" on="0"/>
        <pt x="226" y="-10" on="1"/>
        <pt x="131" y="-10" on="0"/>
      </contour>
    </TTGlyph>
    <TTGlyph name="afii10048" xMin="84" yMin="-10" xMax="868" yMax="659">
      <contour>
        <pt x="181" y="0" on="1"/>
        <pt x="84" y="0" on="1"/>
        <pt x="84" y="649" on="1"/>
        <pt x="181" y="649" on="1"/>
        <pt x="181" y="361" on="1"/>
        <pt x="321" y="361" on="1"/>
        <pt x="321" y="473" on="1"/>
        <pt x="321" y="659" on="0"/>
        <pt x="593" y="659" on="1"/>
        <pt x="868" y="659" on="0"/>
        <pt x="868" y="474" on="1"/>
        <pt x="868" y="166" on="1"/>
        <pt x="868" y="113" on="0"/>
        <pt x="817" y="39" on="0"/>
        <pt x="729" y="4" on="0"/>
        <pt x="643" y="-10" on="0"/>
        <pt x="593" y="-10" on="1"/>
        <pt x="321" y="-10" on="0"/>
        <pt x="321" y="166" on="1"/>
        <pt x="321" y="299" on="1"/>
        <pt x="181" y="299" on="1"/>
      </contour>
      <contour>
        <pt x="774" y="167" on="1"/>
        <pt x="774" y="476" on="1"/>
        <pt x="774" y="596" on="0"/>
        <pt x="594" y="596" on="1"/>
        <pt x="556" y="596" on="0"/>
        <pt x="498" y="587" on="0"/>
        <pt x="444" y="562" on="0"/>
        <pt x="414" y="513" on="0"/>
        <pt x="414" y="476" on="1"/>
        <pt x="414" y="167" on="1"/>
        <pt x="414" y="55" on="0"/>
        <pt x="595" y="55" on="1"/>
        <pt x="774" y="55" on="0"/>
      </contour>
    </TTGlyph>
    <TTGlyph name="afii10049" xMin="32" yMin="0" xMax="528" yMax="649">
      <contour>
        <pt x="151" y="0" on="1"/>
        <pt x="32" y="0" on="1"/>
        <pt x="240" y="289" on="1"/>
        <pt x="170" y="289" on="0"/>
        <pt x="72" y="350" on="0"/>
        <pt x="72" y="410" on="1"/>
        <pt x="72" y="522" on="1"/>
        <pt x="72" y="599" on="0"/>
        <pt x="175" y="649" on="0"/>
        <pt x="300" y="649" on="1"/>
        <pt x="528" y="649" on="1"/>
        <pt x="528" y="0" on="1"/>
        <pt x="431" y="0" on="1"/>
        <pt x="431" y="277" on="1"/>
        <pt x="337" y="277" on="1"/>
      </contour>
      <contour>
        <pt x="169" y="512" on="1"/>
        <pt x="169" y="422" on="1"/>
        <pt x="169" y="383" on="0"/>
        <pt x="225" y="341" on="0"/>
        <pt x="304" y="341" on="1"/>
        <pt x="431" y="341" on="1"/>
        <pt x="431" y="585" on="1"/>
        <pt x="295" y="585" on="1"/>
        <pt x="169" y="585" on="0"/>
      </contour>
    </TTGlyph>
    <TTGlyph name="afii10050" xMin="84" yMin="0" xMax="530" yMax="762">
      <contour>
        <pt x="530" y="581" on="1"/>
        <pt x="181" y="581" on="1"/>
        <pt x="181" y="0" on="1"/>
        <pt x="84" y="0" on="1"/>
        <pt x="84" y="649" on="1"/>
        <pt x="453" y="649" on="1"/>
        <pt x="453" y="762" on="1"/>
        <pt x="530" y="762" on="1"/>
      </contour>
    </TTGlyph>
</ttFont>
